<?xml version="1.0" encoding="utf-8" standalone="no"?>
<!DOCTYPE svg PUBLIC "-//W3C//DTD SVG 1.1//EN"
  "http://www.w3.org/Graphics/SVG/1.1/DTD/svg11.dtd">
<!-- Created with matplotlib (http://matplotlib.org/) -->
<svg height="432pt" version="1.1" viewBox="0 0 576 432" width="576pt" xmlns="http://www.w3.org/2000/svg" xmlns:xlink="http://www.w3.org/1999/xlink">
 <defs>
  <style type="text/css">
*{stroke-linecap:square;stroke-linejoin:round;}
  </style>
 </defs>
 <g id="figure_1">
  <g id="patch_1">
   <path d="
M0 432
L576 432
L576 0
L0 0
z
" style="fill:#ffffff;"/>
  </g>
  <g id="axes_1">
   <g id="patch_2">
    <path d="
M57.6 388.8
L460.8 388.8
L460.8 43.2
L57.6 43.2
z
" style="fill:#ffffff;"/>
   </g>
   <g id="line2d_1">
    <path clip-path="url(#pb89c8edd4c)" d="
M57.6806 191.323
L460.719 191.316
L460.719 191.316" style="fill:none;stroke:#0000ff;"/>
   </g>
   <g id="line2d_2">
    <path clip-path="url(#pb89c8edd4c)" d="
M57.6806 191.301
L132.031 191.305
L215.735 191.583
L280.166 191.471
L339.356 191.343
L443.785 191.306
L460.719 191.384
L460.719 191.384" style="fill:none;stroke:#008000;"/>
   </g>
   <g id="line2d_3">
    <path clip-path="url(#pb89c8edd4c)" d="
M57.6806 191.354
L460.719 191.318
L460.719 191.318" style="fill:none;stroke:#ff0000;"/>
   </g>
   <g id="line2d_4">
    <path clip-path="url(#pb89c8edd4c)" d="
M57.6806 191.306
L120.499 191.208
L151.546 190.979
L198.639 190.855
L242.427 190.994
L337.743 191.296
L429.673 191.234
L460.719 190.99
L460.719 190.99" style="fill:none;stroke:#00bfbf;"/>
   </g>
   <g id="line2d_5">
    <path clip-path="url(#pb89c8edd4c)" d="
M57.6806 191.337
L127.757 191.531
L160.577 191.573
L228.557 191.431
L306.213 191.292
L417.738 191.41
L460.719 191.575
L460.719 191.575" style="fill:none;stroke:#bf00bf;"/>
   </g>
   <g id="line2d_6">
    <path clip-path="url(#pb89c8edd4c)" d="
M57.6806 191.302
L459.429 191.308
L460.719 191.307
L460.719 191.307" style="fill:none;stroke:#bfbf00;"/>
   </g>
   <g id="line2d_7">
    <path clip-path="url(#pb89c8edd4c)" d="
M110.984 388.8
L110.984 43.2" style="fill:none;stroke:#000000;stroke-dasharray:6.000000,6.000000;stroke-dashoffset:0.0;stroke-linecap:butt;"/>
   </g>
   <g id="line2d_8">
    <path clip-path="url(#pb89c8edd4c)" d="
M266.78 388.8
L266.78 43.2" style="fill:none;stroke:#000000;stroke-dasharray:6.000000,6.000000;stroke-dashoffset:0.0;stroke-linecap:butt;"/>
   </g>
   <g id="line2d_9">
    <path clip-path="url(#pb89c8edd4c)" d="
M422.496 388.8
L422.496 43.2" style="fill:none;stroke:#000000;stroke-dasharray:6.000000,6.000000;stroke-dashoffset:0.0;stroke-linecap:butt;"/>
   </g>
   <g id="line2d_10">
    <path clip-path="url(#pb89c8edd4c)" d="
M57.6806 191.327
L156.707 191.375
L186.06 191.387
L239.604 191.345
L266.619 191.341
L266.7 191.6
L266.78 191.51
L266.941 191.233
L268.07 191.067
L270.167 191.03
L303.552 191.286
L364.274 191.33
L460.719 191.296
L460.719 191.296" style="fill:none;stroke:#000000;"/>
   </g>
   <g id="line2d_11">
    <path clip-path="url(#pb89c8edd4c)" d="
M57.6806 191.025
L110.903 190.894
L111.306 191.767
L111.709 191.997
L112.435 192.109
L115.822 192.194
L127.837 192.302
L177.028 192.077
L200.333 191.624
L230.008 191.1
L266.619 190.877
L266.78 190.978
L266.861 191.846
L266.941 191.804
L268.393 191.135
L269.764 190.806
L271.78 190.575
L274.925 190.454
L280.328 190.501
L304.842 190.891
L332.663 191.024
L396.046 190.974
L422.415 190.897
L422.819 191.761
L423.222 192
L423.948 192.115
L427.254 192.199
L439.027 192.304
L459.913 192.26
L460.719 192.262
L460.719 192.262" style="fill:none;stroke:#0000ff;"/>
   </g>
   <g id="line2d_12">
    <path clip-path="url(#pb89c8edd4c)" d="
M57.6806 191.253
L111.064 191.128
L111.306 191.007
L112.516 190.869
L114.532 190.92
L122.676 191.257
L133.966 191.385
L151.546 191.381
L168.883 191.222
L194.043 191.143
L265.651 191.189
L266.78 191.229
L266.941 191.669
L268.232 191.907
L269.925 191.941
L288.956 191.59
L357.178 191.278
L422.98 190.965
L424.189 190.862
L426.528 190.949
L433.463 191.244
L443.624 191.376
L460.719 191.437
L460.719 191.437" style="fill:none;stroke:#008000;"/>
   </g>
   <g id="line2d_13">
    <path clip-path="url(#pb89c8edd4c)" d="
M57.6806 191.356
L110.903 191.345
L111.226 189.906
L111.548 189.351
L111.951 189.06
L112.596 188.92
L114.209 188.899
L121.951 189.155
L129.934 189.576
L135.337 189.904
L144.127 190.187
L190.898 191.182
L215.735 191.925
L230.008 192.167
L255.329 192.323
L265.167 192.402
L266.619 192.386
L266.7 191.991
L266.78 192.031
L266.861 189.875
L266.941 189.994
L267.667 190.811
L268.474 191.384
L269.522 191.853
L270.893 192.216
L272.748 192.469
L275.328 192.587
L279.279 192.524
L306.697 191.69
L326.051 191.473
L361.532 191.363
L422.415 191.34
L422.738 189.911
L423.06 189.343
L423.464 189.049
L424.109 188.909
L425.722 188.889
L433.382 189.144
L441.043 189.553
L446.446 189.88
L455.962 190.195
L460.719 190.276
L460.719 190.276" style="fill:none;stroke:#ff0000;"/>
   </g>
   <g id="line2d_14">
    <path clip-path="url(#pb89c8edd4c)" d="
M57.6806 191.551
L110.903 191.715
L111.145 192.487
L111.468 192.811
L111.951 192.973
L112.919 193.006
L117.919 192.751
L145.014 191.478
L163.158 191.197
L229.847 190.673
L253.313 190.712
L266.458 190.678
L266.619 190.68
L266.7 192.617
L266.78 192.576
L267.103 192.238
L267.828 191.837
L268.957 191.489
L270.732 191.201
L273.393 191.017
L277.667 190.97
L290.085 191.162
L312.826 191.366
L382.337 191.581
L422.415 191.719
L422.657 192.482
L422.98 192.816
L423.464 192.98
L424.431 193.011
L429.512 192.75
L456.687 191.468
L460.719 191.389
L460.719 191.389" style="fill:none;stroke:#00bfbf;"/>
   </g>
   <g id="line2d_15">
    <path clip-path="url(#pb89c8edd4c)" d="
M57.6806 191.373
L115.338 191.355
L124.128 191.193
L145.336 191.067
L157.916 191.176
L190.737 191.437
L266.619 191.442
L266.941 190.977
L267.748 191.048
L280.408 191.158
L374.354 191.386
L426.528 191.365
L434.995 191.199
L455.962 191.06
L460.719 191.061
L460.719 191.061" style="fill:none;stroke:#bf00bf;"/>
   </g>
   <g id="line2d_16">
    <path clip-path="url(#pb89c8edd4c)" d="
M110.984 388.8
L110.984 43.2" style="fill:none;stroke:#000000;stroke-dasharray:6.000000,6.000000;stroke-dashoffset:0.0;stroke-linecap:butt;"/>
   </g>
   <g id="line2d_17">
    <path clip-path="url(#pb89c8edd4c)" d="
M266.78 388.8
L266.78 43.2" style="fill:none;stroke:#000000;stroke-dasharray:6.000000,6.000000;stroke-dashoffset:0.0;stroke-linecap:butt;"/>
   </g>
   <g id="line2d_18">
    <path clip-path="url(#pb89c8edd4c)" d="
M422.496 388.8
L422.496 43.2" style="fill:none;stroke:#000000;stroke-dasharray:6.000000,6.000000;stroke-dashoffset:0.0;stroke-linecap:butt;"/>
   </g>
   <g id="line2d_19">
    <path clip-path="url(#pb89c8edd4c)" d="
M57.6806 190.978
L81.3082 192.853
L85.0982 193.219
L91.3075 193.773
L107.597 194.945
L110.822 195.147
L110.903 195.154
L111.064 189.493
L111.145 188.96
L111.226 190.71
L111.387 188.67
L111.629 188.276
L112.516 187.628
L113.161 187.458
L113.887 187.511
L115.016 187.85
L119.773 189.509
L122.273 190.04
L125.338 190.45
L129.853 190.807
L136.547 191.122
L145.498 191.569
L151.384 192.151
L152.191 192.011
L156.626 191.675
L168.803 190.943
L175.98 190.75
L183.963 190.774
L196.623 191.056
L211.3 191.319
L220.251 191.29
L235.976 190.942
L259.523 190.458
L266.7 190.436
L266.941 173.563
L267.264 178.602
L267.587 180.962
L267.99 182.314
L268.393 182.888
L268.877 183.181
L270.086 183.689
L272.022 186.278
L273.635 188.1
L275.005 189.318
L276.296 190.176
L277.505 190.731
L279.037 191.185
L280.892 191.487
L282.021 191.501
L284.924 191.249
L288.472 191.223
L298.633 191.184
L310.003 191.061
L311.858 191.117
L312.422 190.76
L313.39 190.467
L314.922 190.251
L319.599 189.856
L322.583 189.875
L325.083 190.107
L325.728 190.102
L339.921 189.534
L350.968 189.566
L358.145 190.09
L415.4 194.69
L419.674 194.852
L422.415 195.106
L422.577 189.698
L422.657 190.891
L422.819 188.716
L423.06 188.316
L424.028 187.605
L424.673 187.45
L425.399 187.516
L426.528 187.868
L431.124 189.502
L433.544 190.035
L436.527 190.451
L440.801 190.798
L447.172 191.102
L459.752 191.692
L460.719 191.806
L460.719 191.806" style="fill:none;stroke:#bfbf00;"/>
   </g>
   <g id="line2d_20">
    <path clip-path="url(#pb89c8edd4c)" d="
M57.6806 191.594
L68.7283 190.732
L82.5984 189.465
L89.9366 188.081
L97.2749 187.022
L104.129 186.258
L106.71 186.12
L109.129 186.082
L110.903 185.968
L110.984 243.505
L111.064 235.817
L111.468 212.16
L111.79 207.014
L112.113 204.96
L112.435 204.2
L112.758 203.961
L113.242 203.916
L115.096 203.892
L117.354 203.552
L121.306 202.723
L125.176 201.678
L127.837 200.816
L128.321 200.35
L129.128 199.952
L133.321 198.386
L139.692 196.194
L143.643 195.025
L149.449 193.498
L152.755 192.582
L157.432 191.602
L160.9 191.1
L164.287 190.844
L169.367 190.669
L178.641 190.637
L189.446 190.628
L195.414 190.745
L201.865 191.123
L209.042 191.769
L218.396 192.85
L225.331 193.818
L226.541 194.173
L230.573 194.997
L239.363 196.589
L246.701 197.698
L249.604 197.988
L250.491 197.915
L253.233 198.022
L262.668 198.597
L266.7 199.024
L267.103 147.085
L267.345 144.513
L267.425 144.395
L267.587 144.804
L267.909 146.97
L269.119 156.006
L269.844 159.576
L271.699 166.719
L272.667 169.141
L273.635 170.999
L274.683 172.543
L275.812 173.802
L276.941 174.747
L278.392 175.644
L280.408 176.598
L281.86 177.323
L283.311 178.361
L284.763 179.059
L290.892 181.43
L298.472 184.616
L305.568 187.5
L307.665 188.187
L311.939 189.278
L312.422 189.094
L313.148 189.079
L314.358 189.317
L316.858 190.174
L325.647 192.815
L330.163 193.076
L332.018 193.039
L338.792 192.705
L351.21 192.369
L359.113 192.231
L366.451 191.873
L375.886 191.166
L389.595 189.93
L391.772 189.618
L395.724 188.831
L402.82 187.71
L409.674 186.841
L414.916 186.37
L418.464 186.4
L422.415 186.185
L422.496 243.62
L422.577 235.996
L422.819 217.604
L423.141 209.196
L423.464 205.793
L423.786 204.485
L424.109 204.032
L424.512 203.903
L428.141 203.66
L431.85 202.923
L435.721 201.935
L438.866 200.966
L439.511 200.401
L440.559 199.943
L447.252 197.525
L454.268 195.228
L457.413 194.372
L460.719 193.572
L460.719 193.572" style="fill:none;stroke:#000000;"/>
   </g>
   <g id="line2d_21">
    <path clip-path="url(#pb89c8edd4c)" d="
M57.6806 163.761
L61.7126 164.068
L66.6317 164.202
L71.4701 164.147
L76.0666 163.869
L80.9856 163.347
L83.0822 162.972
L86.3885 162.118
L89.6947 161.551
L94.9363 160.9
L101.629 160.292
L106.387 160.041
L109.371 160.1
L110.903 160.025
L111.064 198.764
L111.145 199.133
L111.306 202.945
L111.951 207.003
L112.355 208.373
L112.758 209.044
L113.08 209.214
L113.403 209.147
L113.806 208.824
L114.451 207.96
L115.741 205.722
L117.596 202.595
L118.967 200.704
L120.338 199.179
L121.789 197.905
L123.322 196.859
L125.096 195.925
L127.273 195.038
L131.144 193.754
L135.256 192.701
L143.965 190.489
L145.578 188.974
L146.949 187.389
L148.32 185.459
L151.142 181.258
L151.304 181.186
L153.32 181.522
L157.11 181.843
L161.948 182.335
L165.738 182.934
L169.609 183.779
L174.205 185.025
L187.753 188.868
L192.269 189.782
L196.946 190.5
L201.462 190.969
L206.22 191.239
L213.316 191.372
L217.912 191.156
L222.831 190.7
L232.831 189.433
L253.797 186.63
L264.925 185.547
L266.7 185.374
L266.861 214.648
L267.022 193.739
L267.909 168.952
L268.474 159.784
L268.957 155.394
L269.361 153.467
L269.683 152.742
L269.925 152.556
L270.086 152.625
L270.409 153.093
L270.893 154.28
L271.699 156.985
L274.522 166.964
L275.651 169.957
L276.699 172.105
L277.586 173.509
L278.473 174.513
L279.36 175.168
L280.247 175.527
L281.134 175.638
L282.182 175.529
L283.473 175.199
L284.844 174.597
L286.456 173.653
L288.876 171.948
L298.23 165.146
L301.939 162.814
L305.326 160.941
L307.826 159.768
L308.874 159.538
L310.245 158.982
L311.777 158.127
L312.584 156.838
L315.325 152.509
L316.293 151.559
L317.341 150.861
L318.47 150.384
L319.761 150.088
L321.293 149.979
L323.067 150.083
L328.308 150.804
L331.534 151.45
L334.276 152.165
L337.501 153.247
L341.695 154.903
L342.662 155.42
L348.227 158.354
L351.291 159.72
L354.516 160.916
L357.903 161.935
L361.452 162.766
L365.08 163.389
L368.951 163.828
L373.225 164.082
L378.386 164.185
L382.821 164.043
L387.498 163.668
L391.288 163.17
L396.127 162.003
L400.159 161.405
L406.368 160.726
L413.142 160.202
L415.48 160.168
L418.061 160.264
L421.286 160.122
L422.415 160.038
L422.496 199.154
L422.577 199.116
L422.738 202.791
L423.383 206.978
L423.867 208.621
L424.27 209.232
L424.593 209.366
L424.915 209.271
L425.399 208.828
L426.125 207.767
L430.399 200.819
L431.77 199.272
L433.221 197.978
L434.753 196.918
L436.527 195.973
L438.705 195.081
L442.495 193.824
L446.93 192.697
L457.655 190.014
L459.268 188.363
L460.639 186.646
L460.719 186.534
L460.719 186.534" style="fill:none;stroke:#0000ff;"/>
   </g>
   <g id="line2d_22">
    <path clip-path="url(#pb89c8edd4c)" d="
M57.6806 191.682
L69.0509 189.953
L84.5338 187.79
L91.2269 186.212
L100.581 184.22
L106.629 183.131
L110.903 182.545
L110.984 113.003
L111.064 128.968
L111.387 168.337
L111.709 183.898
L112.032 191.002
L112.355 194.291
L112.677 195.833
L113.08 196.671
L113.484 196.985
L113.967 197.08
L114.774 196.975
L120.58 195.786
L127.918 194.78
L128.241 195.103
L128.644 195.201
L129.289 195.083
L130.982 194.448
L134.692 193.098
L138.482 191.971
L146.143 190.017
L149.207 189.564
L151.626 189.234
L154.287 188.616
L157.836 188.027
L162.029 187.561
L165.9 187.344
L171.383 187.268
L179.366 187.406
L219.364 188.727
L225.331 188.959
L226.057 188.769
L227.267 188.727
L229.766 188.91
L249.362 190.883
L250.491 191.418
L251.7 191.555
L255.249 191.635
L266.7 191.672
L266.941 262.03
L267.425 243.056
L267.99 230.229
L268.635 220.537
L269.361 212.705
L270.006 207.497
L271.054 205.516
L272.828 202.7
L274.683 200.123
L276.134 198.453
L277.908 196.786
L279.037 196.043
L280.166 195.563
L281.376 195.289
L282.828 195.202
L284.198 195.404
L286.456 195.763
L290.246 196.578
L301.455 199.099
L306.536 199.955
L309.358 200.267
L311.777 200.383
L312.503 197.991
L313.068 197.038
L313.713 196.377
L314.358 195.959
L314.68 196.056
L317.1 197.192
L320.325 198.881
L322.502 200.275
L324.196 201.614
L325.405 202.596
L328.792 202.482
L331.212 202.274
L334.437 200.778
L338.147 199.318
L342.259 197.716
L343.63 196.878
L345.243 196.162
L347.259 195.514
L350.001 194.878
L354.678 194.046
L374.112 191.016
L389.998 188.891
L392.659 188.442
L400.643 186.59
L410.077 184.614
L415.561 183.66
L422.335 182.758
L422.415 182.745
L422.496 112.813
L422.577 128.789
L422.819 161.524
L423.141 180.959
L423.464 189.709
L423.786 193.714
L424.109 195.574
L424.431 196.445
L424.835 196.908
L425.318 197.075
L426.044 197.029
L428.141 196.514
L430.883 195.969
L438.866 194.696
L439.35 195.206
L439.753 195.277
L440.479 195.123
L442.656 194.298
L446.285 193.021
L450.156 191.905
L454.913 190.773
L456.768 190.258
L459.268 189.671
L460.719 189.439
L460.719 189.439" style="fill:none;stroke:#008000;"/>
   </g>
   <g id="line2d_23">
    <path clip-path="url(#pb89c8edd4c)" d="
M57.6806 190.128
L65.9866 188.301
L75.6634 186.76
L84.2918 185.36
L103.404 180.252
L108.645 179.04
L110.903 178.492
L110.984 191.308
L111.064 189.918
L111.145 189.522
L111.548 190.792
L111.951 191.429
L112.355 191.659
L113.08 191.749
L115.661 191.675
L122.999 191.536
L148.723 191.436
L213.396 191.361
L266.7 191.399
L266.861 174.703
L267.022 114.62
L267.183 115.483
L267.506 119.665
L268.877 139.866
L269.683 147.88
L270.086 152.067
L270.893 163.959
L271.699 172.89
L272.506 179.577
L273.312 184.544
L274.118 188.188
L274.925 190.818
L275.731 192.675
L276.538 193.952
L277.263 194.596
L278.15 195.077
L279.36 195.455
L281.86 195.934
L283.795 196.312
L285.489 196.671
L287.505 197.193
L290.246 198.152
L302.1 202.577
L305.649 203.524
L310.326 204.504
L311.777 204.706
L312.503 200.276
L313.068 198.536
L313.713 197.323
L314.358 196.53
L314.6 196.636
L316.696 198.127
L318.874 199.935
L320.728 201.751
L322.341 203.626
L323.793 205.655
L325.083 207.857
L325.325 208.121
L330.486 208.013
L331.131 207.921
L333.469 206.044
L336.292 204.076
L339.759 201.943
L341.937 200.602
L342.985 199.322
L344.195 198.191
L345.646 197.151
L347.34 196.217
L349.436 195.318
L352.259 194.364
L356.371 193.225
L363.548 191.5
L374.435 189.098
L382.902 187.685
L393.466 185.927
L415.48 180.294
L420.722 179.077
L422.415 178.674
L422.496 191.308
L422.577 189.924
L422.657 189.805
L422.738 189.876
L423.383 191.345
L423.786 191.633
L424.431 191.746
L426.286 191.708
L433.705 191.543
L454.51 191.452
L460.719 191.436
L460.719 191.436" style="fill:none;stroke:#ff0000;"/>
   </g>
   <g id="line2d_24">
    <path clip-path="url(#pb89c8edd4c)" d="
M57.6806 179.192
L72.841 179.197
L83.3242 179.044
L87.1949 178.934
L97.7587 178.903
L107.516 179.04
L110.903 179.049
L111.064 191.382
L111.145 191.349
L111.226 191.082
L111.306 191.487
L111.387 191.381
L111.951 191.436
L114.29 191.475
L141.546 191.316
L194.93 191.306
L259.603 191.282
L266.7 191.279
L266.861 192.017
L267.022 190.208
L267.506 189.909
L268.07 189.268
L268.796 188.057
L269.522 186.407
L270.328 184.499
L271.457 182.901
L272.506 181.798
L273.473 181.082
L274.522 180.587
L275.651 180.314
L276.538 180.251
L277.586 180.898
L278.715 181.335
L280.005 181.582
L281.537 181.63
L283.876 181.548
L284.682 181.541
L287.585 182.019
L290.246 182.228
L292.988 182.219
L295.972 181.981
L299.278 181.488
L303.149 180.678
L307.584 179.542
L307.907 180.664
L309.116 185.728
L310.245 191.414
L311.374 198.241
L311.858 201.13
L314.68 200.887
L318.067 201.236
L322.744 201.427
L325.244 201.453
L327.744 198.399
L330.083 195.198
L331.776 192.536
L334.84 187.709
L337.743 183.545
L340.485 179.993
L341.856 178.41
L355.404 178.977
L367.258 179.179
L382.337 179.193
L391.853 179.047
L396.207 178.926
L407.658 178.891
L415.964 179.023
L421.125 179.044
L422.415 179.035
L422.577 191.436
L422.657 191.065
L422.738 191.502
L422.819 191.384
L423.383 191.438
L425.722 191.479
L453.139 191.317
L460.719 191.273
L460.719 191.273" style="fill:none;stroke:#00bfbf;"/>
   </g>
   <g id="line2d_25">
    <path clip-path="url(#pb89c8edd4c)" d="
M110.984 388.8
L110.984 43.2" style="fill:none;stroke:#000000;stroke-dasharray:6.000000,6.000000;stroke-dashoffset:0.0;stroke-linecap:butt;"/>
   </g>
   <g id="line2d_26">
    <path clip-path="url(#pb89c8edd4c)" d="
M266.78 388.8
L266.78 43.2" style="fill:none;stroke:#000000;stroke-dasharray:6.000000,6.000000;stroke-dashoffset:0.0;stroke-linecap:butt;"/>
   </g>
   <g id="line2d_27">
    <path clip-path="url(#pb89c8edd4c)" d="
M422.496 388.8
L422.496 43.2" style="fill:none;stroke:#000000;stroke-dasharray:6.000000,6.000000;stroke-dashoffset:0.0;stroke-linecap:butt;"/>
   </g>
   <g id="line2d_28">
    <path clip-path="url(#pb89c8edd4c)" d="
M57.6806 191.323
L88.0819 191.354
L107.919 191.583
L110.903 191.673
L110.984 191.315
L111.064 191.383
L111.145 191.164
L111.387 191.487
L112.193 191.664
L113.322 191.744
L115.096 191.581
L118.322 191.324
L122.676 191.256
L163.4 191.33
L181.463 191.411
L233.718 191.327
L266.619 191.361
L266.7 191.823
L266.78 194.134
L267.022 188.014
L267.345 187.312
L267.748 187.028
L268.716 186.697
L269.441 186.68
L270.006 186.834
L272.425 189.05
L273.715 189.904
L275.005 190.503
L276.457 190.933
L278.15 191.197
L280.65 191.354
L283.311 191.321
L289.521 191.301
L365.322 191.333
L396.046 191.342
L417.335 191.559
L422.415 191.717
L422.577 191.23
L422.98 191.589
L424.512 191.83
L425.883 191.735
L429.996 191.354
L434.269 191.275
L455.316 191.318
L460.719 191.333
L460.719 191.333" style="fill:none;stroke:#bf00bf;"/>
   </g>
   <g id="line2d_29">
    <path clip-path="url(#pb89c8edd4c)" d="
M57.6806 191.478
L70.1798 190.876
L82.4371 190.085
L87.1142 189.374
L101.226 187.538
L106.79 186.981
L109.613 186.815
L110.903 186.767
L110.984 211.8
L111.226 169.461
L111.387 167.12
L111.468 167.101
L111.709 168.372
L112.113 170.136
L112.435 170.574
L112.758 170.563
L113.403 170.144
L114.451 169.508
L115.5 169.127
L116.79 168.909
L118.322 168.885
L120.015 169.078
L121.87 169.516
L123.805 170.2
L125.902 171.178
L127.837 172.313
L128.321 173.325
L129.047 174.261
L130.499 175.689
L132.595 177.44
L135.256 179.354
L138.966 181.723
L142.272 183.615
L150.82 187.95
L151.868 188.476
L156.707 190.508
L159.368 191.355
L161.706 191.867
L164.287 192.178
L167.835 192.407
L172.754 192.453
L179.124 192.31
L186.301 192.155
L194.285 191.861
L207.026 191.228
L212.59 191.215
L217.67 191.426
L222.751 191.86
L226.299 192.352
L247.991 195.468
L253.797 196.347
L259.603 197.353
L264.28 197.952
L266.619 198.137
L266.7 196.912
L266.78 188.407
L266.941 230.427
L267.022 229.474
L267.264 220.745
L268.151 183.169
L268.635 171.465
L269.199 163.203
L269.764 158.296
L270.167 156.29
L270.57 155.299
L270.973 154.813
L271.377 154.684
L271.78 154.81
L272.344 155.282
L273.151 156.317
L274.683 158.75
L277.344 162.924
L280.166 166.808
L281.94 169.317
L283.311 171.612
L284.602 173.298
L286.537 175.38
L289.198 177.897
L292.101 180.336
L295.004 182.483
L297.907 184.352
L300.81 185.96
L303.875 187.4
L306.858 188.559
L310.648 189.559
L311.858 189.82
L312.422 189.652
L313.309 189.676
L314.6 189.943
L316.454 190.433
L321.696 191.549
L325.809 192.236
L331.373 192.357
L339.598 192.1
L354.758 191.895
L364.596 191.701
L375.322 191.253
L387.66 190.536
L392.095 190.133
L396.933 189.445
L411.126 187.683
L415.48 187.299
L418.464 187.195
L422.415 186.975
L422.496 211.874
L422.657 173.712
L422.899 166.801
L422.98 166.762
L423.222 168.083
L423.625 169.955
L423.948 170.429
L424.189 170.454
L424.673 170.19
L425.964 169.38
L427.012 169.005
L428.302 168.794
L429.834 168.782
L431.528 168.99
L433.382 169.443
L435.398 170.174
L437.495 171.177
L438.866 171.954
L439.511 173.203
L440.317 174.162
L441.93 175.687
L444.108 177.442
L446.93 179.412
L451.204 182.091
L456.042 184.892
L457.816 185.674
L460.719 186.983
L460.719 186.983" style="fill:none;stroke:#bfbf00;"/>
   </g>
   <g id="line2d_30">
    <path clip-path="url(#pb89c8edd4c)" d="
M57.6806 187.891
L70.6637 186.735
L86.3078 185.251
L92.2752 184.439
L99.2102 183.271
L105.903 181.922
L110.822 180.802
L110.903 180.358
L111.064 194.123
L111.468 200.1
L112.032 204.826
L112.435 206.757
L112.758 207.484
L113 207.64
L113.242 207.529
L113.564 207.066
L114.048 205.922
L115.258 202.224
L116.467 198.846
L117.435 196.755
L118.403 195.182
L119.37 194.026
L120.419 193.128
L121.548 192.458
L122.838 191.95
L124.451 191.557
L126.628 191.269
L129.853 191.086
L134.289 191.077
L140.659 191.292
L144.288 191.574
L147.514 192.37
L149.61 192.821
L150.82 192.841
L151.546 192.68
L153.481 192.121
L156.626 191.473
L161.787 190.651
L167.109 190.025
L171.544 189.722
L175.657 189.665
L180.012 189.832
L187.108 190.376
L195.978 190.995
L202.913 191.245
L212.348 191.33
L226.218 191.175
L244.604 190.745
L262.103 190.034
L266.7 189.772
L266.78 195.305
L266.861 175.561
L267.022 189.464
L267.506 203.698
L268.312 227.032
L268.796 235.385
L269.199 239.116
L269.522 240.425
L269.764 240.647
L269.925 240.504
L270.167 239.809
L270.651 237.417
L271.538 231.446
L273.231 220.012
L274.28 214.465
L275.247 210.506
L276.134 207.731
L277.102 205.437
L277.989 203.898
L278.876 202.8
L279.763 202.048
L280.731 201.533
L281.779 201.242
L283.231 201.071
L284.602 201.141
L286.295 201.446
L289.037 202.205
L295.004 203.882
L298.552 204.625
L301.939 205.11
L305.326 205.372
L310.648 205.704
L311.858 206.07
L313.793 207.685
L315.084 208.694
L315.89 208.98
L316.777 209.037
L317.745 208.868
L318.954 208.414
L320.486 207.58
L322.583 206.159
L334.76 197.405
L337.985 195.516
L341.05 193.976
L344.598 192.466
L347.904 191.298
L351.13 190.394
L354.92 189.571
L359.516 188.809
L365.322 188.086
L374.273 187.223
L396.852 185.059
L403.465 184.095
L410.481 182.851
L417.416 181.393
L422.335 180.236
L422.415 179.392
L422.577 195.677
L422.819 199.106
L423.544 205.314
L423.948 207.126
L424.27 207.77
L424.512 207.871
L424.754 207.713
L425.076 207.198
L425.641 205.764
L428.544 197.52
L429.512 195.734
L430.479 194.416
L431.447 193.457
L432.495 192.717
L433.705 192.135
L435.156 191.689
L437.011 191.359
L439.672 191.128
L443.22 191.037
L448.704 191.135
L455.8 191.497
L457.978 191.732
L460.719 192.506
L460.719 192.506" style="fill:none;stroke:#000000;"/>
   </g>
   <g id="line2d_31">
    <path clip-path="url(#pb89c8edd4c)" d="
M57.6806 191.283
L110.822 191.941
L110.903 191.866
L111.145 72.1689
L111.79 168.927
L112.193 199.072
L112.516 210.121
L112.838 215.485
L113.161 218.02
L113.484 219.14
L113.806 219.53
L114.048 219.549
L114.371 219.336
L114.935 218.638
L118.725 213.323
L120.58 211.346
L127.837 204.183
L128.16 205.616
L128.402 205.921
L128.644 205.875
L128.966 205.523
L129.692 204.261
L131.869 200.334
L133.321 198.202
L134.853 196.336
L136.547 194.629
L138.401 193.086
L140.417 191.702
L145.417 188.725
L147.433 188.01
L149.207 187.598
L151.465 187.152
L153.078 186.458
L155.094 185.825
L157.432 185.33
L160.013 185.015
L162.755 184.906
L165.335 185.022
L168.803 185.404
L172.754 186.069
L177.996 187.179
L186.14 189.169
L197.833 192.014
L203.8 193.201
L209.284 194.065
L214.284 194.628
L219.283 194.967
L224.202 195.08
L225.17 195.129
L225.734 195.521
L226.46 195.717
L227.508 195.736
L229.444 195.514
L234.685 194.61
L248.959 192.151
L249.443 192.004
L249.926 191.446
L250.491 191.124
L251.378 190.904
L253.152 190.751
L259.361 190.532
L265.248 190.494
L266.619 190.535
L266.7 190.824
L266.78 147.918
L266.941 380.493
L267.022 354.584
L267.425 268.239
L267.828 222.544
L268.312 193.054
L268.716 179.896
L269.119 172.805
L269.441 169.969
L269.764 168.843
L270.006 168.653
L270.57 165.87
L271.054 164.494
L271.457 163.9
L271.78 163.722
L272.102 163.767
L272.506 164.088
L272.989 164.786
L273.715 166.3
L274.844 169.272
L277.747 177.082
L278.796 179.233
L279.763 180.7
L280.65 181.661
L281.618 182.378
L282.505 182.824
L283.392 182.982
L287.827 183.106
L294.843 183.164
L298.633 183.475
L302.907 184.059
L308.955 185.135
L311.777 185.702
L312.503 187.294
L313.148 188.012
L313.955 188.539
L314.519 188.723
L324.035 187.762
L325.647 187.638
L344.517 190.414
L348.549 190.73
L355.162 191
L367.419 191.249
L418.625 191.899
L422.415 191.767
L422.577 78.6166
L422.657 78.6155
L422.819 95.3321
L423.383 176.9
L423.786 202.792
L424.109 212.069
L424.431 216.516
L424.754 218.58
L425.076 219.452
L425.399 219.708
L425.722 219.62
L426.125 219.217
L427.012 217.913
L429.108 214.801
L430.721 212.846
L432.818 210.676
L438.866 204.595
L439.269 206.221
L439.511 206.437
L439.753 206.34
L440.156 205.825
L441.124 204.034
L442.898 200.835
L444.43 198.55
L445.962 196.656
L447.656 194.915
L449.43 193.403
L451.446 191.977
L453.704 190.66
L459.59 187.689
L460.719 187.37
L460.719 187.37" style="fill:none;stroke:#0000ff;"/>
   </g>
   <g id="line2d_32">
    <path clip-path="url(#pb89c8edd4c)" d="
M57.6806 191.883
L76.631 193.992
L84.0499 194.915
L91.3882 196.451
L98.4845 198.167
L107.032 200.486
L110.903 201.714
L110.984 191.324
L111.064 194.158
L111.145 195.571
L111.226 195.085
L111.468 193.531
L111.871 191.207
L112.193 190.355
L112.516 189.99
L112.919 189.842
L113.645 189.865
L120.58 190.66
L126.467 190.903
L141.224 191.238
L160.658 191.332
L266.619 191.423
L266.7 191.091
L266.861 229.393
L266.941 355.172
L267.022 344.628
L267.667 274.302
L268.232 236.785
L268.796 213.985
L269.361 199.783
L269.925 190.714
L270.328 186.707
L270.732 184.558
L271.054 183.762
L271.296 183.553
L271.538 183.593
L271.86 183.936
L272.344 184.854
L273.393 187.495
L274.602 190.348
L275.489 191.921
L276.296 192.939
L276.941 193.45
L277.828 193.83
L278.876 194.028
L280.489 194.079
L283.231 193.92
L291.295 193.313
L295.811 192.824
L300.649 192.064
L311.939 190.138
L312.584 190.42
L313.713 190.628
L314.761 190.635
L318.067 190.042
L320.89 189.326
L323.148 188.53
L324.922 187.674
L325.486 187.461
L330.728 186.791
L331.453 186.801
L341.937 188.119
L343.549 188.685
L345.727 189.199
L348.872 189.695
L354.597 190.332
L383.386 193.337
L392.82 194.425
L399.997 195.817
L407.094 197.421
L414.351 199.291
L421.448 201.342
L422.415 201.673
L422.496 191.323
L422.577 194.154
L422.738 195.058
L422.899 194.192
L423.383 191.211
L423.706 190.346
L424.028 189.978
L424.431 189.831
L425.157 189.856
L431.931 190.649
L437.576 190.891
L451.93 191.228
L460.719 191.296
L460.719 191.296" style="fill:none;stroke:#008000;"/>
   </g>
   <g id="line2d_33">
    <path clip-path="url(#pb89c8edd4c)" d="
M57.6806 192.759
L80.8243 193.766
L93.9686 194.523
L110.822 195.648
L110.903 195.682
L111.064 191.291
L111.871 191.277
L116.548 191.313
L134.047 191.322
L266.7 191.311
L266.78 191.37
L266.861 191.825
L266.941 190.576
L267.022 190.597
L267.425 190.562
L267.99 190.282
L268.796 189.621
L269.764 188.534
L270.248 188.066
L271.296 187.561
L272.425 187.273
L273.796 187.174
L275.651 187.292
L276.86 187.526
L278.312 187.939
L280.166 188.224
L283.231 188.424
L286.053 188.614
L290.73 188.938
L296.536 189.104
L305.568 189.112
L307.745 189.201
L309.519 190.651
L311.213 192.323
L311.939 192.953
L316.938 192.646
L323.47 192.116
L327.18 191.674
L330.405 191.383
L333.631 191.317
L337.501 191.482
L348.146 192.078
L390.966 193.841
L415.48 195.335
L422.335 195.857
L422.415 195.954
L422.577 191.263
L422.657 191.4
L422.819 191.29
L424.109 191.27
L457.332 191.31
L460.719 191.293
L460.719 191.293" style="fill:none;stroke:#ff0000;"/>
   </g>
   <g id="line2d_34">
    <path clip-path="url(#pb89c8edd4c)" d="
M110.984 388.8
L110.984 43.2" style="fill:none;stroke:#000000;stroke-dasharray:6.000000,6.000000;stroke-dashoffset:0.0;stroke-linecap:butt;"/>
   </g>
   <g id="line2d_35">
    <path clip-path="url(#pb89c8edd4c)" d="
M266.78 388.8
L266.78 43.2" style="fill:none;stroke:#000000;stroke-dasharray:6.000000,6.000000;stroke-dashoffset:0.0;stroke-linecap:butt;"/>
   </g>
   <g id="line2d_36">
    <path clip-path="url(#pb89c8edd4c)" d="
M422.496 388.8
L422.496 43.2" style="fill:none;stroke:#000000;stroke-dasharray:6.000000,6.000000;stroke-dashoffset:0.0;stroke-linecap:butt;"/>
   </g>
   <g id="matplotlib.axis_1">
    <g id="xtick_1">
     <g id="line2d_37">
      <defs>
       <path d="
M0 0
L0 -4" id="mcb557df647" style="stroke:#000000;stroke-linecap:butt;stroke-width:0.5;"/>
      </defs>
      <g>
       <use style="stroke:#000000;stroke-linecap:butt;stroke-width:0.5;" x="57.6" xlink:href="#mcb557df647" y="388.8"/>
      </g>
     </g>
     <g id="line2d_38">
      <defs>
       <path d="
M0 0
L0 4" id="mdad270ee8e" style="stroke:#000000;stroke-linecap:butt;stroke-width:0.5;"/>
      </defs>
      <g>
       <use style="stroke:#000000;stroke-linecap:butt;stroke-width:0.5;" x="57.6" xlink:href="#mdad270ee8e" y="43.2"/>
      </g>
     </g>
     <g id="text_1">
      <!-- 3.5 -->
      <defs>
       <path d="
M40.5781 39.3125
Q47.6562 37.7969 51.625 33
Q55.6094 28.2188 55.6094 21.1875
Q55.6094 10.4062 48.1875 4.48438
Q40.7656 -1.42188 27.0938 -1.42188
Q22.5156 -1.42188 17.6562 -0.515625
Q12.7969 0.390625 7.625 2.20312
L7.625 11.7188
Q11.7188 9.32812 16.5938 8.10938
Q21.4844 6.89062 26.8125 6.89062
Q36.0781 6.89062 40.9375 10.5469
Q45.7969 14.2031 45.7969 21.1875
Q45.7969 27.6406 41.2812 31.2656
Q36.7656 34.9062 28.7188 34.9062
L20.2188 34.9062
L20.2188 43.0156
L29.1094 43.0156
Q36.375 43.0156 40.2344 45.9219
Q44.0938 48.8281 44.0938 54.2969
Q44.0938 59.9062 40.1094 62.9062
Q36.1406 65.9219 28.7188 65.9219
Q24.6562 65.9219 20.0156 65.0312
Q15.375 64.1562 9.8125 62.3125
L9.8125 71.0938
Q15.4375 72.6562 20.3438 73.4375
Q25.25 74.2188 29.5938 74.2188
Q40.8281 74.2188 47.3594 69.1094
Q53.9062 64.0156 53.9062 55.3281
Q53.9062 49.2656 50.4375 45.0938
Q46.9688 40.9219 40.5781 39.3125" id="DejaVuSans-33"/>
       <path d="
M10.7969 72.9062
L49.5156 72.9062
L49.5156 64.5938
L19.8281 64.5938
L19.8281 46.7344
Q21.9688 47.4688 24.1094 47.8281
Q26.2656 48.1875 28.4219 48.1875
Q40.625 48.1875 47.75 41.5
Q54.8906 34.8125 54.8906 23.3906
Q54.8906 11.625 47.5625 5.09375
Q40.2344 -1.42188 26.9062 -1.42188
Q22.3125 -1.42188 17.5469 -0.640625
Q12.7969 0.140625 7.71875 1.70312
L7.71875 11.625
Q12.1094 9.23438 16.7969 8.0625
Q21.4844 6.89062 26.7031 6.89062
Q35.1562 6.89062 40.0781 11.3281
Q45.0156 15.7656 45.0156 23.3906
Q45.0156 31 40.0781 35.4375
Q35.1562 39.8906 26.7031 39.8906
Q22.75 39.8906 18.8125 39.0156
Q14.8906 38.1406 10.7969 36.2812
z
" id="DejaVuSans-35"/>
       <path d="
M10.6875 12.4062
L21 12.4062
L21 0
L10.6875 0
z
" id="DejaVuSans-2e"/>
      </defs>
      <g transform="translate(49.0396875 401.70625)scale(0.12 -0.12)">
       <use xlink:href="#DejaVuSans-33"/>
       <use x="63.623046875" xlink:href="#DejaVuSans-2e"/>
       <use x="95.41015625" xlink:href="#DejaVuSans-35"/>
      </g>
     </g>
    </g>
    <g id="xtick_2">
     <g id="line2d_39">
      <g>
       <use style="stroke:#000000;stroke-linecap:butt;stroke-width:0.5;" x="158.4" xlink:href="#mcb557df647" y="388.8"/>
      </g>
     </g>
     <g id="line2d_40">
      <g>
       <use style="stroke:#000000;stroke-linecap:butt;stroke-width:0.5;" x="158.4" xlink:href="#mdad270ee8e" y="43.2"/>
      </g>
     </g>
     <g id="text_2">
      <!-- 4.0 -->
      <defs>
       <path d="
M31.7812 66.4062
Q24.1719 66.4062 20.3281 58.9062
Q16.5 51.4219 16.5 36.375
Q16.5 21.3906 20.3281 13.8906
Q24.1719 6.39062 31.7812 6.39062
Q39.4531 6.39062 43.2812 13.8906
Q47.125 21.3906 47.125 36.375
Q47.125 51.4219 43.2812 58.9062
Q39.4531 66.4062 31.7812 66.4062
M31.7812 74.2188
Q44.0469 74.2188 50.5156 64.5156
Q56.9844 54.8281 56.9844 36.375
Q56.9844 17.9688 50.5156 8.26562
Q44.0469 -1.42188 31.7812 -1.42188
Q19.5312 -1.42188 13.0625 8.26562
Q6.59375 17.9688 6.59375 36.375
Q6.59375 54.8281 13.0625 64.5156
Q19.5312 74.2188 31.7812 74.2188" id="DejaVuSans-30"/>
       <path d="
M37.7969 64.3125
L12.8906 25.3906
L37.7969 25.3906
z

M35.2031 72.9062
L47.6094 72.9062
L47.6094 25.3906
L58.0156 25.3906
L58.0156 17.1875
L47.6094 17.1875
L47.6094 0
L37.7969 0
L37.7969 17.1875
L4.89062 17.1875
L4.89062 26.7031
z
" id="DejaVuSans-34"/>
      </defs>
      <g transform="translate(149.55 401.70625)scale(0.12 -0.12)">
       <use xlink:href="#DejaVuSans-34"/>
       <use x="63.623046875" xlink:href="#DejaVuSans-2e"/>
       <use x="95.41015625" xlink:href="#DejaVuSans-30"/>
      </g>
     </g>
    </g>
    <g id="xtick_3">
     <g id="line2d_41">
      <g>
       <use style="stroke:#000000;stroke-linecap:butt;stroke-width:0.5;" x="259.2" xlink:href="#mcb557df647" y="388.8"/>
      </g>
     </g>
     <g id="line2d_42">
      <g>
       <use style="stroke:#000000;stroke-linecap:butt;stroke-width:0.5;" x="259.2" xlink:href="#mdad270ee8e" y="43.2"/>
      </g>
     </g>
     <g id="text_3">
      <!-- 4.5 -->
      <g transform="translate(250.475625 401.54875)scale(0.12 -0.12)">
       <use xlink:href="#DejaVuSans-34"/>
       <use x="63.623046875" xlink:href="#DejaVuSans-2e"/>
       <use x="95.41015625" xlink:href="#DejaVuSans-35"/>
      </g>
     </g>
    </g>
    <g id="xtick_4">
     <g id="line2d_43">
      <g>
       <use style="stroke:#000000;stroke-linecap:butt;stroke-width:0.5;" x="360.0" xlink:href="#mcb557df647" y="388.8"/>
      </g>
     </g>
     <g id="line2d_44">
      <g>
       <use style="stroke:#000000;stroke-linecap:butt;stroke-width:0.5;" x="360.0" xlink:href="#mdad270ee8e" y="43.2"/>
      </g>
     </g>
     <g id="text_4">
      <!-- 5.0 -->
      <g transform="translate(351.3196875 401.70625)scale(0.12 -0.12)">
       <use xlink:href="#DejaVuSans-35"/>
       <use x="63.623046875" xlink:href="#DejaVuSans-2e"/>
       <use x="95.41015625" xlink:href="#DejaVuSans-30"/>
      </g>
     </g>
    </g>
    <g id="xtick_5">
     <g id="line2d_45">
      <g>
       <use style="stroke:#000000;stroke-linecap:butt;stroke-width:0.5;" x="460.8" xlink:href="#mcb557df647" y="388.8"/>
      </g>
     </g>
     <g id="line2d_46">
      <g>
       <use style="stroke:#000000;stroke-linecap:butt;stroke-width:0.5;" x="460.8" xlink:href="#mdad270ee8e" y="43.2"/>
      </g>
     </g>
     <g id="text_5">
      <!-- 5.5 -->
      <g transform="translate(452.2453125 401.54875)scale(0.12 -0.12)">
       <use xlink:href="#DejaVuSans-35"/>
       <use x="63.623046875" xlink:href="#DejaVuSans-2e"/>
       <use x="95.41015625" xlink:href="#DejaVuSans-35"/>
      </g>
     </g>
    </g>
    <g id="text_6">
     <!-- $t [\mathrm{s}]$ -->
     <defs>
      <path d="
M2.20312 -25
L2.20312 -21
L11.9219 -21
L11.9219 71
L2.20312 71
L2.20312 75
L15.9219 75
L15.9219 -25
z
" id="Cmr10-5d"/>
      <path d="
M3.32812 -0.296875
L3.32812 16.0156
Q3.32812 16.7969 4.20312 16.7969
L5.42188 16.7969
Q6 16.7969 6.20312 16.0156
Q8.98438 1.51562 19.6719 1.51562
Q24.4219 1.51562 27.6094 3.65625
Q30.8125 5.8125 30.8125 10.2969
Q30.8125 13.5312 28.3125 15.7969
Q25.8281 18.0625 22.4062 18.8906
L15.7188 20.2188
Q12.3594 20.9531 9.59375 22.4531
Q6.84375 23.9688 5.07812 26.4844
Q3.32812 29 3.32812 32.3281
Q3.32812 36.7188 5.64062 39.5156
Q7.95312 42.3281 11.6562 43.5781
Q15.375 44.8281 19.6719 44.8281
Q24.8125 44.8281 28.6094 42.0938
L31.5 44.5781
Q31.5 44.8281 31.9844 44.8281
L32.7188 44.8281
Q33.0156 44.8281 33.25 44.5469
Q33.5 44.2812 33.5 44
L33.5 30.9062
Q33.5 29.9844 32.7188 29.9844
L31.5 29.9844
Q30.6094 29.9844 30.6094 30.9062
Q30.6094 36.1406 27.7031 39.3125
Q24.8125 42.4844 19.5781 42.4844
Q15.0938 42.4844 11.7969 40.8125
Q8.5 39.1562 8.5 35.1094
Q8.5 32.3281 10.8594 30.5469
Q13.2344 28.7656 16.4062 27.9844
L23.1875 26.7031
Q26.6094 25.9219 29.5625 24.0625
Q32.5156 22.2188 34.25 19.375
Q35.9844 16.5469 35.9844 12.9844
Q35.9844 9.375 34.7344 6.70312
Q33.5 4.04688 31.2656 2.28125
Q29.0469 0.53125 26.0156 -0.296875
Q23 -1.125 19.6719 -1.125
Q13.4219 -1.125 8.98438 3.07812
L5.32812 -0.875
Q5.32812 -1.125 4.78125 -1.125
L4.20312 -1.125
Q3.32812 -1.125 3.32812 -0.296875" id="Cmr10-73"/>
      <path d="
M6.20312 8.10938
Q6.20312 9.57812 6.5 10.8906
L13.7188 39.5938
L3.21875 39.5938
Q2.20312 39.5938 2.20312 40.9219
Q2.59375 43.1094 3.51562 43.1094
L14.5938 43.1094
L18.6094 59.4219
Q19 60.75 20.1719 61.6719
Q21.3438 62.5938 22.7969 62.5938
Q24.0781 62.5938 24.9219 61.8281
Q25.7812 61.0781 25.7812 59.8125
Q25.7812 59.5156 25.75 59.3438
Q25.7344 59.1875 25.6875 58.9844
L21.6875 43.1094
L31.9844 43.1094
Q33.0156 43.1094 33.0156 41.7969
Q32.9531 41.5469 32.8125 40.9531
Q32.6719 40.375 32.4219 39.9844
Q32.1719 39.5938 31.6875 39.5938
L20.7969 39.5938
L13.625 10.6875
Q12.8906 7.85938 12.8906 5.8125
Q12.8906 1.51562 15.8281 1.51562
Q20.2188 1.51562 23.6094 5.64062
Q27 9.76562 28.8125 14.7031
Q29.2031 15.2812 29.5938 15.2812
L30.8125 15.2812
Q31.2031 15.2812 31.4375 15.0156
Q31.6875 14.75 31.6875 14.4062
Q31.6875 14.2031 31.5938 14.1094
Q29.3906 8.0625 25.1875 3.46875
Q21 -1.125 15.5781 -1.125
Q11.625 -1.125 8.90625 1.45312
Q6.20312 4.04688 6.20312 8.10938" id="Cmmi10-74"/>
      <path d="
M11.8125 -25
L11.8125 75
L25.4844 75
L25.4844 71
L15.8281 71
L15.8281 -21
L25.4844 -21
L25.4844 -25
z
" id="Cmr10-5b"/>
     </defs>
     <g transform="translate(251.34 418.876875)scale(0.12 -0.12)">
      <use transform="translate(0.0 25.0)" xlink:href="#Cmmi10-74"/>
      <use transform="translate(36.083984375 25.0)" xlink:href="#Cmr10-5b"/>
      <use transform="translate(63.76953125 25.0)" xlink:href="#Cmr10-73"/>
      <use transform="translate(103.173828125 25.0)" xlink:href="#Cmr10-5d"/>
     </g>
    </g>
   </g>
   <g id="matplotlib.axis_2">
    <g id="ytick_1">
     <g id="line2d_47">
      <defs>
       <path d="
M0 0
L4 0" id="mc8fcea1516" style="stroke:#000000;stroke-linecap:butt;stroke-width:0.5;"/>
      </defs>
      <g>
       <use style="stroke:#000000;stroke-linecap:butt;stroke-width:0.5;" x="57.6" xlink:href="#mc8fcea1516" y="388.8"/>
      </g>
     </g>
     <g id="line2d_48">
      <defs>
       <path d="
M0 0
L-4 0" id="m0d5b0a6425" style="stroke:#000000;stroke-linecap:butt;stroke-width:0.5;"/>
      </defs>
      <g>
       <use style="stroke:#000000;stroke-linecap:butt;stroke-width:0.5;" x="460.8" xlink:href="#m0d5b0a6425" y="388.8"/>
      </g>
     </g>
     <g id="text_7">
      <!-- −400 -->
      <defs>
       <path d="
M10.5938 35.5
L73.1875 35.5
L73.1875 27.2031
L10.5938 27.2031
z
" id="DejaVuSans-2212"/>
      </defs>
      <g transform="translate(22.7075 393.1678125)scale(0.12 -0.12)">
       <use xlink:href="#DejaVuSans-2212"/>
       <use x="83.7890625" xlink:href="#DejaVuSans-34"/>
       <use x="147.412109375" xlink:href="#DejaVuSans-30"/>
       <use x="211.03515625" xlink:href="#DejaVuSans-30"/>
      </g>
     </g>
    </g>
    <g id="ytick_2">
     <g id="line2d_49">
      <g>
       <use style="stroke:#000000;stroke-linecap:butt;stroke-width:0.5;" x="57.6" xlink:href="#mc8fcea1516" y="339.428571429"/>
      </g>
     </g>
     <g id="line2d_50">
      <g>
       <use style="stroke:#000000;stroke-linecap:butt;stroke-width:0.5;" x="460.8" xlink:href="#m0d5b0a6425" y="339.428571429"/>
      </g>
     </g>
     <g id="text_8">
      <!-- −300 -->
      <g transform="translate(22.7075 343.796383929)scale(0.12 -0.12)">
       <use xlink:href="#DejaVuSans-2212"/>
       <use x="83.7890625" xlink:href="#DejaVuSans-33"/>
       <use x="147.412109375" xlink:href="#DejaVuSans-30"/>
       <use x="211.03515625" xlink:href="#DejaVuSans-30"/>
      </g>
     </g>
    </g>
    <g id="ytick_3">
     <g id="line2d_51">
      <g>
       <use style="stroke:#000000;stroke-linecap:butt;stroke-width:0.5;" x="57.6" xlink:href="#mc8fcea1516" y="290.057142857"/>
      </g>
     </g>
     <g id="line2d_52">
      <g>
       <use style="stroke:#000000;stroke-linecap:butt;stroke-width:0.5;" x="460.8" xlink:href="#m0d5b0a6425" y="290.057142857"/>
      </g>
     </g>
     <g id="text_9">
      <!-- −200 -->
      <defs>
       <path d="
M19.1875 8.29688
L53.6094 8.29688
L53.6094 0
L7.32812 0
L7.32812 8.29688
Q12.9375 14.1094 22.625 23.8906
Q32.3281 33.6875 34.8125 36.5312
Q39.5469 41.8438 41.4219 45.5312
Q43.3125 49.2188 43.3125 52.7812
Q43.3125 58.5938 39.2344 62.25
Q35.1562 65.9219 28.6094 65.9219
Q23.9688 65.9219 18.8125 64.3125
Q13.6719 62.7031 7.8125 59.4219
L7.8125 69.3906
Q13.7656 71.7812 18.9375 73
Q24.125 74.2188 28.4219 74.2188
Q39.75 74.2188 46.4844 68.5469
Q53.2188 62.8906 53.2188 53.4219
Q53.2188 48.9219 51.5312 44.8906
Q49.8594 40.875 45.4062 35.4062
Q44.1875 33.9844 37.6406 27.2188
Q31.1094 20.4531 19.1875 8.29688" id="DejaVuSans-32"/>
      </defs>
      <g transform="translate(22.7075 294.424955357)scale(0.12 -0.12)">
       <use xlink:href="#DejaVuSans-2212"/>
       <use x="83.7890625" xlink:href="#DejaVuSans-32"/>
       <use x="147.412109375" xlink:href="#DejaVuSans-30"/>
       <use x="211.03515625" xlink:href="#DejaVuSans-30"/>
      </g>
     </g>
    </g>
    <g id="ytick_4">
     <g id="line2d_53">
      <g>
       <use style="stroke:#000000;stroke-linecap:butt;stroke-width:0.5;" x="57.6" xlink:href="#mc8fcea1516" y="240.685714286"/>
      </g>
     </g>
     <g id="line2d_54">
      <g>
       <use style="stroke:#000000;stroke-linecap:butt;stroke-width:0.5;" x="460.8" xlink:href="#m0d5b0a6425" y="240.685714286"/>
      </g>
     </g>
     <g id="text_10">
      <!-- −100 -->
      <defs>
       <path d="
M12.4062 8.29688
L28.5156 8.29688
L28.5156 63.9219
L10.9844 60.4062
L10.9844 69.3906
L28.4219 72.9062
L38.2812 72.9062
L38.2812 8.29688
L54.3906 8.29688
L54.3906 0
L12.4062 0
z
" id="DejaVuSans-31"/>
      </defs>
      <g transform="translate(22.7075 245.053526786)scale(0.12 -0.12)">
       <use xlink:href="#DejaVuSans-2212"/>
       <use x="83.7890625" xlink:href="#DejaVuSans-31"/>
       <use x="147.412109375" xlink:href="#DejaVuSans-30"/>
       <use x="211.03515625" xlink:href="#DejaVuSans-30"/>
      </g>
     </g>
    </g>
    <g id="ytick_5">
     <g id="line2d_55">
      <g>
       <use style="stroke:#000000;stroke-linecap:butt;stroke-width:0.5;" x="57.6" xlink:href="#mc8fcea1516" y="191.314285714"/>
      </g>
     </g>
     <g id="line2d_56">
      <g>
       <use style="stroke:#000000;stroke-linecap:butt;stroke-width:0.5;" x="460.8" xlink:href="#m0d5b0a6425" y="191.314285714"/>
      </g>
     </g>
     <g id="text_11">
      <!-- 0 -->
      <g transform="translate(47.553125 195.682098214)scale(0.12 -0.12)">
       <use xlink:href="#DejaVuSans-30"/>
      </g>
     </g>
    </g>
    <g id="ytick_6">
     <g id="line2d_57">
      <g>
       <use style="stroke:#000000;stroke-linecap:butt;stroke-width:0.5;" x="57.6" xlink:href="#mc8fcea1516" y="141.942857143"/>
      </g>
     </g>
     <g id="line2d_58">
      <g>
       <use style="stroke:#000000;stroke-linecap:butt;stroke-width:0.5;" x="460.8" xlink:href="#m0d5b0a6425" y="141.942857143"/>
      </g>
     </g>
     <g id="text_12">
      <!-- 100 -->
      <g transform="translate(32.81 146.310669643)scale(0.12 -0.12)">
       <use xlink:href="#DejaVuSans-31"/>
       <use x="63.623046875" xlink:href="#DejaVuSans-30"/>
       <use x="127.24609375" xlink:href="#DejaVuSans-30"/>
      </g>
     </g>
    </g>
    <g id="ytick_7">
     <g id="line2d_59">
      <g>
       <use style="stroke:#000000;stroke-linecap:butt;stroke-width:0.5;" x="57.6" xlink:href="#mc8fcea1516" y="92.5714285714"/>
      </g>
     </g>
     <g id="line2d_60">
      <g>
       <use style="stroke:#000000;stroke-linecap:butt;stroke-width:0.5;" x="460.8" xlink:href="#m0d5b0a6425" y="92.5714285714"/>
      </g>
     </g>
     <g id="text_13">
      <!-- 200 -->
      <g transform="translate(32.37125 96.9392410714)scale(0.12 -0.12)">
       <use xlink:href="#DejaVuSans-32"/>
       <use x="63.623046875" xlink:href="#DejaVuSans-30"/>
       <use x="127.24609375" xlink:href="#DejaVuSans-30"/>
      </g>
     </g>
    </g>
    <g id="ytick_8">
     <g id="line2d_61">
      <g>
       <use style="stroke:#000000;stroke-linecap:butt;stroke-width:0.5;" x="57.6" xlink:href="#mc8fcea1516" y="43.2"/>
      </g>
     </g>
     <g id="line2d_62">
      <g>
       <use style="stroke:#000000;stroke-linecap:butt;stroke-width:0.5;" x="460.8" xlink:href="#m0d5b0a6425" y="43.2"/>
      </g>
     </g>
     <g id="text_14">
      <!-- 300 -->
      <g transform="translate(32.406875 47.5678125)scale(0.12 -0.12)">
       <use xlink:href="#DejaVuSans-33"/>
       <use x="63.623046875" xlink:href="#DejaVuSans-30"/>
       <use x="127.24609375" xlink:href="#DejaVuSans-30"/>
      </g>
     </g>
    </g>
    <g id="text_15">
     <!-- $P [\mathrm{W}]$ -->
     <defs>
      <path d="
M4.89062 0
Q3.90625 0 3.90625 1.3125
Q3.95312 1.5625 4.09375 2.17188
Q4.25 2.78125 4.51562 3.14062
Q4.78125 3.51562 5.17188 3.51562
Q11.2812 3.51562 13.7188 4.20312
Q14.9844 4.64062 15.5781 6.89062
L29.2969 61.8125
Q29.5 62.7969 29.5 63.1875
Q29.5 64.2656 28.3281 64.4062
Q26.4219 64.7969 21.0938 64.7969
Q20.125 64.7969 20.125 66.1094
Q20.1719 66.3594 20.3125 66.9688
Q20.4531 67.5781 20.7188 67.9375
Q21 68.3125 21.3906 68.3125
L55.9062 68.3125
Q60.6406 68.3125 65.0781 66.625
Q69.5312 64.9375 72.3594 61.4688
Q75.2031 58.0156 75.2031 53.0781
Q75.2031 46.7344 70.7344 41.75
Q66.2656 36.7656 59.5938 33.9844
Q52.9375 31.2031 46.6875 31.2031
L30.4219 31.2031
L24.3125 6.5
Q24.125 5.51562 24.125 5.07812
Q24.125 4.6875 24.2344 4.42188
Q24.3594 4.15625 24.5781 4.07812
Q24.8125 4 25.2969 3.90625
Q27.2031 3.51562 32.5156 3.51562
Q33.5 3.51562 33.5 2.20312
Q33.1562 0.78125 32.9531 0.390625
Q32.7656 0 31.7812 0
z

M30.9062 34.1875
L44.9219 34.1875
Q54.6406 34.1875 59.7188 39.4062
Q62.3125 42 63.9375 46.875
Q65.5781 51.7656 65.5781 55.7188
Q65.5781 60.6406 61.8125 62.7188
Q58.0625 64.7969 52.4844 64.7969
L42.9219 64.7969
Q40.1875 64.7969 39.2969 64.3281
Q38.4219 63.875 37.7031 61.375
z
" id="Cmmi10-50"/>
      <path d="
M31.1094 -1.125
L10.6875 61.625
Q9.90625 63.7188 7.65625 64.25
Q5.42188 64.7969 1.8125 64.7969
L1.8125 68.3125
L28.6094 68.3125
L28.6094 64.7969
Q20.2188 64.7969 20.2188 62.1094
L20.2188 61.625
L36.1875 12.4062
L49.8125 54.5
L47.5156 61.625
Q46.7344 63.7188 44.4844 64.25
Q42.2344 64.7969 38.625 64.7969
L38.625 68.3125
L65.375 68.3125
L65.375 64.7969
Q56.8906 64.7969 56.8906 62.1094
Q56.8906 61.9688 56.9844 61.6719
Q57.0781 61.375 57.0781 61.2812
L73 12.4062
L87.9844 58.8906
Q88.0938 59.1875 88.0938 59.8125
Q88.0938 62.4531 85.2969 63.625
Q82.5156 64.7969 79.5 64.7969
L79.5 68.3125
L100.875 68.3125
L100.875 64.7969
Q92.9688 64.7969 91.1094 58.8906
L71.5781 -1.125
Q71.2344 -2.20312 70.125 -2.20312
L69.3906 -2.20312
Q68.2656 -2.20312 67.9219 -1.125
L51.4219 49.8125
L34.8125 -1.125
Q34.4688 -2.20312 33.2969 -2.20312
L32.625 -2.20312
Q31.4531 -2.20312 31.1094 -1.125" id="Cmr10-57"/>
     </defs>
     <g transform="translate(17.7075 229.38)rotate(-90.0)scale(0.12 -0.12)">
      <use transform="translate(0.0 25.0)" xlink:href="#Cmmi10-50"/>
      <use transform="translate(64.208984375 25.0)" xlink:href="#Cmr10-5b"/>
      <use transform="translate(91.89453125 25.0)" xlink:href="#Cmr10-57"/>
      <use transform="translate(194.580078125 25.0)" xlink:href="#Cmr10-5d"/>
     </g>
    </g>
   </g>
   <g id="patch_3">
    <path d="
M57.6 43.2
L460.8 43.2" style="fill:none;stroke:#000000;"/>
   </g>
   <g id="patch_4">
    <path d="
M460.8 388.8
L460.8 43.2" style="fill:none;stroke:#000000;"/>
   </g>
   <g id="patch_5">
    <path d="
M57.6 388.8
L460.8 388.8" style="fill:none;stroke:#000000;"/>
   </g>
   <g id="patch_6">
    <path d="
M57.6 388.8
L57.6 43.2" style="fill:none;stroke:#000000;"/>
   </g>
   <g id="text_16">
    <!-- Swing -->
    <defs>
     <path d="
M53.5156 70.5156
L53.5156 60.8906
Q47.9062 63.5781 42.9219 64.8906
Q37.9375 66.2188 33.2969 66.2188
Q25.25 66.2188 20.875 63.0938
Q16.5 59.9688 16.5 54.2031
Q16.5 49.3594 19.4062 46.8906
Q22.3125 44.4375 30.4219 42.9219
L36.375 41.7031
Q47.4062 39.5938 52.6562 34.2969
Q57.9062 29 57.9062 20.125
Q57.9062 9.51562 50.7969 4.04688
Q43.7031 -1.42188 29.9844 -1.42188
Q24.8125 -1.42188 18.9688 -0.25
Q13.1406 0.921875 6.89062 3.21875
L6.89062 13.375
Q12.8906 10.0156 18.6562 8.29688
Q24.4219 6.59375 29.9844 6.59375
Q38.4219 6.59375 43.0156 9.90625
Q47.6094 13.2344 47.6094 19.3906
Q47.6094 24.75 44.3125 27.7812
Q41.0156 30.8125 33.5 32.3281
L27.4844 33.5
Q16.4531 35.6875 11.5156 40.375
Q6.59375 45.0625 6.59375 53.4219
Q6.59375 63.0938 13.4062 68.6562
Q20.2188 74.2188 32.1719 74.2188
Q37.3125 74.2188 42.625 73.2812
Q47.9531 72.3594 53.5156 70.5156" id="DejaVuSans-53"/>
     <path d="
M45.4062 27.9844
Q45.4062 37.75 41.375 43.1094
Q37.3594 48.4844 30.0781 48.4844
Q22.8594 48.4844 18.8281 43.1094
Q14.7969 37.75 14.7969 27.9844
Q14.7969 18.2656 18.8281 12.8906
Q22.8594 7.51562 30.0781 7.51562
Q37.3594 7.51562 41.375 12.8906
Q45.4062 18.2656 45.4062 27.9844
M54.3906 6.78125
Q54.3906 -7.17188 48.1875 -13.9844
Q42 -20.7969 29.2031 -20.7969
Q24.4688 -20.7969 20.2656 -20.0938
Q16.0625 -19.3906 12.1094 -17.9219
L12.1094 -9.1875
Q16.0625 -11.3281 19.9219 -12.3438
Q23.7812 -13.375 27.7812 -13.375
Q36.625 -13.375 41.0156 -8.76562
Q45.4062 -4.15625 45.4062 5.17188
L45.4062 9.625
Q42.625 4.78125 38.2812 2.39062
Q33.9375 0 27.875 0
Q17.8281 0 11.6719 7.65625
Q5.51562 15.3281 5.51562 27.9844
Q5.51562 40.6719 11.6719 48.3281
Q17.8281 56 27.875 56
Q33.9375 56 38.2812 53.6094
Q42.625 51.2188 45.4062 46.3906
L45.4062 54.6875
L54.3906 54.6875
z
" id="DejaVuSans-67"/>
     <path d="
M4.20312 54.6875
L13.1875 54.6875
L24.4219 12.0156
L35.5938 54.6875
L46.1875 54.6875
L57.4219 12.0156
L68.6094 54.6875
L77.5938 54.6875
L63.2812 0
L52.6875 0
L40.9219 44.8281
L29.1094 0
L18.5 0
z
" id="DejaVuSans-77"/>
     <path d="
M54.8906 33.0156
L54.8906 0
L45.9062 0
L45.9062 32.7188
Q45.9062 40.4844 42.875 44.3281
Q39.8438 48.1875 33.7969 48.1875
Q26.5156 48.1875 22.3125 43.5469
Q18.1094 38.9219 18.1094 30.9062
L18.1094 0
L9.07812 0
L9.07812 54.6875
L18.1094 54.6875
L18.1094 46.1875
Q21.3438 51.125 25.7031 53.5625
Q30.0781 56 35.7969 56
Q45.2188 56 50.0469 50.1719
Q54.8906 44.3438 54.8906 33.0156" id="DejaVuSans-6e"/>
     <path d="
M9.42188 54.6875
L18.4062 54.6875
L18.4062 0
L9.42188 0
z

M9.42188 75.9844
L18.4062 75.9844
L18.4062 64.5938
L9.42188 64.5938
z
" id="DejaVuSans-69"/>
    </defs>
    <g transform="translate(171.828795 59.230125)scale(0.12 -0.12)">
     <use xlink:href="#DejaVuSans-53"/>
     <use x="63.4765625" xlink:href="#DejaVuSans-77"/>
     <use x="145.263671875" xlink:href="#DejaVuSans-69"/>
     <use x="173.046875" xlink:href="#DejaVuSans-6e"/>
     <use x="236.42578125" xlink:href="#DejaVuSans-67"/>
    </g>
   </g>
   <g id="text_17">
    <!-- Stance -->
    <defs>
     <path d="
M18.3125 70.2188
L18.3125 54.6875
L36.8125 54.6875
L36.8125 47.7031
L18.3125 47.7031
L18.3125 18.0156
Q18.3125 11.3281 20.1406 9.42188
Q21.9688 7.51562 27.5938 7.51562
L36.8125 7.51562
L36.8125 0
L27.5938 0
Q17.1875 0 13.2344 3.875
Q9.28125 7.76562 9.28125 18.0156
L9.28125 47.7031
L2.6875 47.7031
L2.6875 54.6875
L9.28125 54.6875
L9.28125 70.2188
z
" id="DejaVuSans-74"/>
     <path d="
M56.2031 29.5938
L56.2031 25.2031
L14.8906 25.2031
Q15.4844 15.9219 20.4844 11.0625
Q25.4844 6.20312 34.4219 6.20312
Q39.5938 6.20312 44.4531 7.46875
Q49.3125 8.73438 54.1094 11.2812
L54.1094 2.78125
Q49.2656 0.734375 44.1875 -0.34375
Q39.1094 -1.42188 33.8906 -1.42188
Q20.7969 -1.42188 13.1562 6.1875
Q5.51562 13.8125 5.51562 26.8125
Q5.51562 40.2344 12.7656 48.1094
Q20.0156 56 32.3281 56
Q43.3594 56 49.7812 48.8906
Q56.2031 41.7969 56.2031 29.5938
M47.2188 32.2344
Q47.125 39.5938 43.0938 43.9844
Q39.0625 48.3906 32.4219 48.3906
Q24.9062 48.3906 20.3906 44.1406
Q15.875 39.8906 15.1875 32.1719
z
" id="DejaVuSans-65"/>
     <path d="
M48.7812 52.5938
L48.7812 44.1875
Q44.9688 46.2969 41.1406 47.3438
Q37.3125 48.3906 33.4062 48.3906
Q24.6562 48.3906 19.8125 42.8438
Q14.9844 37.3125 14.9844 27.2969
Q14.9844 17.2812 19.8125 11.7344
Q24.6562 6.20312 33.4062 6.20312
Q37.3125 6.20312 41.1406 7.25
Q44.9688 8.29688 48.7812 10.4062
L48.7812 2.09375
Q45.0156 0.34375 40.9844 -0.53125
Q36.9688 -1.42188 32.4219 -1.42188
Q20.0625 -1.42188 12.7812 6.34375
Q5.51562 14.1094 5.51562 27.2969
Q5.51562 40.6719 12.8594 48.3281
Q20.2188 56 33.0156 56
Q37.1562 56 41.1094 55.1406
Q45.0625 54.2969 48.7812 52.5938" id="DejaVuSans-63"/>
     <path d="
M34.2812 27.4844
Q23.3906 27.4844 19.1875 25
Q14.9844 22.5156 14.9844 16.5
Q14.9844 11.7188 18.1406 8.90625
Q21.2969 6.10938 26.7031 6.10938
Q34.1875 6.10938 38.7031 11.4062
Q43.2188 16.7031 43.2188 25.4844
L43.2188 27.4844
z

M52.2031 31.2031
L52.2031 0
L43.2188 0
L43.2188 8.29688
Q40.1406 3.32812 35.5469 0.953125
Q30.9531 -1.42188 24.3125 -1.42188
Q15.9219 -1.42188 10.9531 3.29688
Q6 8.01562 6 15.9219
Q6 25.1406 12.1719 29.8281
Q18.3594 34.5156 30.6094 34.5156
L43.2188 34.5156
L43.2188 35.4062
Q43.2188 41.6094 39.1406 45
Q35.0625 48.3906 27.6875 48.3906
Q23 48.3906 18.5469 47.2656
Q14.1094 46.1406 10.0156 43.8906
L10.0156 52.2031
Q14.9375 54.1094 19.5781 55.0469
Q24.2188 56 28.6094 56
Q40.4844 56 46.3438 49.8438
Q52.2031 43.7031 52.2031 31.2031" id="DejaVuSans-61"/>
    </defs>
    <g transform="translate(324.72183 59.01825)scale(0.12 -0.12)">
     <use xlink:href="#DejaVuSans-53"/>
     <use x="63.4765625" xlink:href="#DejaVuSans-74"/>
     <use x="102.685546875" xlink:href="#DejaVuSans-61"/>
     <use x="163.96484375" xlink:href="#DejaVuSans-6e"/>
     <use x="227.34375" xlink:href="#DejaVuSans-63"/>
     <use x="282.32421875" xlink:href="#DejaVuSans-65"/>
    </g>
   </g>
   <g id="text_18">
    <!-- Joint power -->
    <defs>
     <path d="
M30.6094 48.3906
Q23.3906 48.3906 19.1875 42.75
Q14.9844 37.1094 14.9844 27.2969
Q14.9844 17.4844 19.1562 11.8438
Q23.3438 6.20312 30.6094 6.20312
Q37.7969 6.20312 41.9844 11.8594
Q46.1875 17.5312 46.1875 27.2969
Q46.1875 37.0156 41.9844 42.7031
Q37.7969 48.3906 30.6094 48.3906
M30.6094 56
Q42.3281 56 49.0156 48.375
Q55.7188 40.7656 55.7188 27.2969
Q55.7188 13.875 49.0156 6.21875
Q42.3281 -1.42188 30.6094 -1.42188
Q18.8438 -1.42188 12.1719 6.21875
Q5.51562 13.875 5.51562 27.2969
Q5.51562 40.7656 12.1719 48.375
Q18.8438 56 30.6094 56" id="DejaVuSans-6f"/>
     <path id="DejaVuSans-20"/>
     <path d="
M41.1094 46.2969
Q39.5938 47.1719 37.8125 47.5781
Q36.0312 48 33.8906 48
Q26.2656 48 22.1875 43.0469
Q18.1094 38.0938 18.1094 28.8125
L18.1094 0
L9.07812 0
L9.07812 54.6875
L18.1094 54.6875
L18.1094 46.1875
Q20.9531 51.1719 25.4844 53.5781
Q30.0312 56 36.5312 56
Q37.4531 56 38.5781 55.875
Q39.7031 55.7656 41.0625 55.5156
z
" id="DejaVuSans-72"/>
     <path d="
M9.8125 72.9062
L19.6719 72.9062
L19.6719 5.07812
Q19.6719 -8.10938 14.6719 -14.0625
Q9.67188 -20.0156 -1.42188 -20.0156
L-5.17188 -20.0156
L-5.17188 -11.7188
L-2.09375 -11.7188
Q4.4375 -11.7188 7.125 -8.04688
Q9.8125 -4.39062 9.8125 5.07812
z
" id="DejaVuSans-4a"/>
     <path d="
M18.1094 8.20312
L18.1094 -20.7969
L9.07812 -20.7969
L9.07812 54.6875
L18.1094 54.6875
L18.1094 46.3906
Q20.9531 51.2656 25.2656 53.625
Q29.5938 56 35.5938 56
Q45.5625 56 51.7812 48.0938
Q58.0156 40.1875 58.0156 27.2969
Q58.0156 14.4062 51.7812 6.48438
Q45.5625 -1.42188 35.5938 -1.42188
Q29.5938 -1.42188 25.2656 0.953125
Q20.9531 3.32812 18.1094 8.20312
M48.6875 27.2969
Q48.6875 37.2031 44.6094 42.8438
Q40.5312 48.4844 33.4062 48.4844
Q26.2656 48.4844 22.1875 42.8438
Q18.1094 37.2031 18.1094 27.2969
Q18.1094 17.3906 22.1875 11.75
Q26.2656 6.10938 33.4062 6.10938
Q40.5312 6.10938 44.6094 11.75
Q48.6875 17.3906 48.6875 27.2969" id="DejaVuSans-70"/>
    </defs>
    <g transform="translate(218.36925 38.2)scale(0.144 -0.144)">
     <use xlink:href="#DejaVuSans-4a"/>
     <use x="29.4921875" xlink:href="#DejaVuSans-6f"/>
     <use x="90.673828125" xlink:href="#DejaVuSans-69"/>
     <use x="118.45703125" xlink:href="#DejaVuSans-6e"/>
     <use x="181.8359375" xlink:href="#DejaVuSans-74"/>
     <use x="221.044921875" xlink:href="#DejaVuSans-20"/>
     <use x="252.83203125" xlink:href="#DejaVuSans-70"/>
     <use x="316.30859375" xlink:href="#DejaVuSans-6f"/>
     <use x="377.490234375" xlink:href="#DejaVuSans-77"/>
     <use x="459.27734375" xlink:href="#DejaVuSans-65"/>
     <use x="520.80078125" xlink:href="#DejaVuSans-72"/>
    </g>
   </g>
   <g id="legend_1">
    <g id="patch_7">
     <path d="
M480.96 171.344
L551.952 171.344
L551.952 43.2
L480.96 43.2
L480.96 171.344
z
" style="fill:#ffffff;stroke:#000000;"/>
    </g>
    <g id="line2d_63">
     <path d="
M491.04 54.8617
L511.2 54.8617" style="fill:none;stroke:#0000ff;"/>
    </g>
    <g id="line2d_64"/>
    <g id="text_19">
     <!-- HZ -->
     <defs>
      <path d="
M5.60938 72.9062
L62.8906 72.9062
L62.8906 65.375
L16.7969 8.29688
L64.0156 8.29688
L64.0156 0
L4.5 0
L4.5 7.51562
L50.5938 64.5938
L5.60938 64.5938
z
" id="DejaVuSans-5a"/>
      <path d="
M9.8125 72.9062
L19.6719 72.9062
L19.6719 43.0156
L55.5156 43.0156
L55.5156 72.9062
L65.375 72.9062
L65.375 0
L55.5156 0
L55.5156 34.7188
L19.6719 34.7188
L19.6719 0
L9.8125 0
z
" id="DejaVuSans-48"/>
     </defs>
     <g transform="translate(527.04 59.90175)scale(0.144 -0.144)">
      <use xlink:href="#DejaVuSans-48"/>
      <use x="75.1953125" xlink:href="#DejaVuSans-5a"/>
     </g>
    </g>
    <g id="line2d_65">
     <path d="
M491.04 75.9983
L511.2 75.9983" style="fill:none;stroke:#008000;"/>
    </g>
    <g id="line2d_66"/>
    <g id="text_20">
     <!-- HY -->
     <defs>
      <path d="
M-0.203125 72.9062
L10.4062 72.9062
L30.6094 42.9219
L50.6875 72.9062
L61.2812 72.9062
L35.5 34.7188
L35.5 0
L25.5938 0
L25.5938 34.7188
z
" id="DejaVuSans-59"/>
     </defs>
     <g transform="translate(527.04 81.03825)scale(0.144 -0.144)">
      <use xlink:href="#DejaVuSans-48"/>
      <use x="75.1953125" xlink:href="#DejaVuSans-59"/>
     </g>
    </g>
    <g id="line2d_67">
     <path d="
M491.04 97.1348
L511.2 97.1348" style="fill:none;stroke:#ff0000;"/>
    </g>
    <g id="line2d_68"/>
    <g id="text_21">
     <!-- HX -->
     <defs>
      <path d="
M6.29688 72.9062
L16.8906 72.9062
L35.0156 45.7969
L53.2188 72.9062
L63.8125 72.9062
L40.375 37.8906
L65.375 0
L54.7812 0
L34.2812 31
L13.625 0
L2.98438 0
L29 38.9219
z
" id="DejaVuSans-58"/>
     </defs>
     <g transform="translate(527.04 102.17475)scale(0.144 -0.144)">
      <use xlink:href="#DejaVuSans-48"/>
      <use x="75.1953125" xlink:href="#DejaVuSans-58"/>
     </g>
    </g>
    <g id="line2d_69">
     <path d="
M491.04 118.271
L511.2 118.271" style="fill:none;stroke:#00bfbf;"/>
    </g>
    <g id="line2d_70"/>
    <g id="text_22">
     <!-- KY -->
     <defs>
      <path d="
M9.8125 72.9062
L19.6719 72.9062
L19.6719 42.0938
L52.3906 72.9062
L65.0938 72.9062
L28.9062 38.9219
L67.6719 0
L54.6875 0
L19.6719 35.1094
L19.6719 0
L9.8125 0
z
" id="DejaVuSans-4b"/>
     </defs>
     <g transform="translate(527.04 123.31125)scale(0.144 -0.144)">
      <use xlink:href="#DejaVuSans-4b"/>
      <use x="61.951171875" xlink:href="#DejaVuSans-59"/>
     </g>
    </g>
    <g id="line2d_71">
     <path d="
M491.04 139.408
L511.2 139.408" style="fill:none;stroke:#bf00bf;"/>
    </g>
    <g id="line2d_72"/>
    <g id="text_23">
     <!-- AY -->
     <defs>
      <path d="
M34.1875 63.1875
L20.7969 26.9062
L47.6094 26.9062
z

M28.6094 72.9062
L39.7969 72.9062
L67.5781 0
L57.3281 0
L50.6875 18.7031
L17.8281 18.7031
L11.1875 0
L0.78125 0
z
" id="DejaVuSans-41"/>
     </defs>
     <g transform="translate(527.04 144.44775)scale(0.144 -0.144)">
      <use xlink:href="#DejaVuSans-41"/>
      <use x="60.658203125" xlink:href="#DejaVuSans-59"/>
     </g>
    </g>
    <g id="line2d_73">
     <path d="
M491.04 160.544
L511.2 160.544" style="fill:none;stroke:#bfbf00;"/>
    </g>
    <g id="line2d_74"/>
    <g id="text_24">
     <!-- AX -->
     <g transform="translate(527.04 165.58425)scale(0.144 -0.144)">
      <use xlink:href="#DejaVuSans-41"/>
      <use x="68.408203125" xlink:href="#DejaVuSans-58"/>
     </g>
    </g>
   </g>
  </g>
 </g>
 <defs>
  <clipPath id="pb89c8edd4c">
   <rect height="345.6" width="403.2" x="57.6" y="43.2"/>
  </clipPath>
 </defs>
</svg>
