<?xml version="1.0" encoding="utf-8" standalone="no"?>
<!DOCTYPE svg PUBLIC "-//W3C//DTD SVG 1.1//EN"
  "http://www.w3.org/Graphics/SVG/1.1/DTD/svg11.dtd">
<!-- Created with matplotlib (http://matplotlib.org/) -->
<svg height="432pt" version="1.1" viewBox="0 0 576 432" width="576pt" xmlns="http://www.w3.org/2000/svg" xmlns:xlink="http://www.w3.org/1999/xlink">
 <defs>
  <style type="text/css">
*{stroke-linecap:square;stroke-linejoin:round;}
  </style>
 </defs>
 <g id="figure_1">
  <g id="patch_1">
   <path d="
M0 432
L576 432
L576 0
L0 0
z
" style="fill:#ffffff;"/>
  </g>
  <g id="axes_1">
   <g id="patch_2">
    <path d="
M57.6 388.8
L460.8 388.8
L460.8 43.2
L57.6 43.2
z
" style="fill:#ffffff;"/>
   </g>
   <g id="line2d_1">
    <path clip-path="url(#pb89c8edd4c)" d="
M57.6806 240.702
L460.719 240.69
L460.719 240.69" style="fill:none;stroke:#0000ff;"/>
   </g>
   <g id="line2d_2">
    <path clip-path="url(#pb89c8edd4c)" d="
M57.6806 240.66
L123.16 240.582
L198.801 241.195
L232.75 241.2
L284.037 240.969
L324.68 240.785
L433.302 240.568
L460.719 240.826
L460.719 240.826" style="fill:none;stroke:#008000;"/>
   </g>
   <g id="line2d_3">
    <path clip-path="url(#pb89c8edd4c)" d="
M57.6806 240.764
L308.955 240.722
L376.289 240.758
L460.719 240.693
L460.719 240.693" style="fill:none;stroke:#ff0000;"/>
   </g>
   <g id="line2d_4">
    <path clip-path="url(#pb89c8edd4c)" d="
M57.6806 240.669
L115.741 240.583
L138.24 240.164
L171.625 239.847
L200.252 239.769
L229.121 239.932
L325.164 240.632
L423.06 240.681
L459.429 240.05
L460.719 240.037
L460.719 240.037" style="fill:none;stroke:#00bfbf;"/>
   </g>
   <g id="line2d_5">
    <path clip-path="url(#pb89c8edd4c)" d="
M57.6806 240.732
L116.387 240.98
L136.95 241.178
L167.835 241.194
L214.525 241.009
L292.101 240.648
L348.63 240.689
L425.48 240.944
L445.962 241.168
L460.719 241.207
L460.719 241.207" style="fill:none;stroke:#bf00bf;"/>
   </g>
   <g id="line2d_6">
    <path clip-path="url(#pb89c8edd4c)" d="
M57.6806 240.661
L288.069 240.684
L381.047 240.671
L460.719 240.67
L460.719 240.67" style="fill:none;stroke:#bfbf00;"/>
   </g>
   <g id="line2d_7">
    <path clip-path="url(#pb89c8edd4c)" d="
M110.984 388.8
L110.984 43.2" style="fill:none;stroke:#000000;stroke-dasharray:6.000000,6.000000;stroke-dashoffset:0.0;stroke-linecap:butt;"/>
   </g>
   <g id="line2d_8">
    <path clip-path="url(#pb89c8edd4c)" d="
M266.78 388.8
L266.78 43.2" style="fill:none;stroke:#000000;stroke-dasharray:6.000000,6.000000;stroke-dashoffset:0.0;stroke-linecap:butt;"/>
   </g>
   <g id="line2d_9">
    <path clip-path="url(#pb89c8edd4c)" d="
M422.496 388.8
L422.496 43.2" style="fill:none;stroke:#000000;stroke-dasharray:6.000000,6.000000;stroke-dashoffset:0.0;stroke-linecap:butt;"/>
   </g>
   <g id="line2d_10">
    <path clip-path="url(#pb89c8edd4c)" d="
M57.6806 240.712
L111.387 240.75
L113.645 240.792
L135.337 240.601
L149.53 240.695
L157.271 240.812
L177.834 240.868
L246.781 240.764
L266.619 240.738
L266.7 241.257
L266.78 241.078
L266.941 240.523
L267.748 240.248
L268.877 240.122
L271.135 240.146
L283.231 240.462
L299.762 240.609
L340.001 240.735
L407.255 240.647
L422.577 240.634
L422.819 240.769
L425.076 240.814
L447.817 240.608
L460.719 240.648
L460.719 240.648" style="fill:none;stroke:#000000;"/>
   </g>
   <g id="line2d_11">
    <path clip-path="url(#pb89c8edd4c)" d="
M57.6806 240.106
L100.581 239.907
L110.903 239.846
L111.306 241.591
L111.709 242.051
L112.193 242.236
L113.322 242.339
L120.015 242.562
L128.886 242.633
L135.014 242.537
L173.399 242.31
L188.559 241.811
L229.847 240.26
L266.538 239.81
L266.619 239.811
L266.78 240.014
L266.861 241.75
L266.941 241.665
L268.151 240.496
L269.119 239.926
L270.328 239.498
L271.941 239.184
L274.199 238.991
L277.344 238.965
L283.473 239.191
L296.133 239.649
L310.81 239.928
L335.808 240.111
L381.934 240.07
L422.415 239.85
L422.819 241.579
L423.222 242.058
L423.706 242.248
L424.835 242.351
L431.528 242.573
L440.076 242.635
L446.204 242.546
L460.719 242.58
L460.719 242.58" style="fill:none;stroke:#0000ff;"/>
   </g>
   <g id="line2d_12">
    <path clip-path="url(#pb89c8edd4c)" d="
M57.6806 240.563
L111.064 240.313
L111.226 240.104
L112.193 239.828
L113.322 239.794
L115.58 240.018
L120.177 240.44
L125.418 240.666
L136.063 240.85
L149.288 240.882
L178.237 240.379
L192.914 240.338
L258.474 240.474
L266.78 240.515
L266.941 241.396
L267.909 241.8
L268.877 241.943
L270.409 241.911
L280.328 241.337
L290.166 241.231
L331.695 240.887
L354.92 240.629
L392.014 240.486
L421.206 240.344
L422.496 240.314
L422.657 240.114
L423.625 239.827
L424.673 239.784
L426.689 239.973
L431.528 240.436
L436.689 240.667
L446.93 240.852
L460.719 240.932
L460.719 240.932" style="fill:none;stroke:#008000;"/>
   </g>
   <g id="line2d_13">
    <path clip-path="url(#pb89c8edd4c)" d="
M57.6806 240.77
L110.903 240.748
L111.226 237.87
L111.548 236.759
L111.951 236.178
L112.435 235.933
L113.242 235.843
L115.419 235.914
L123.16 236.463
L128.966 237.043
L132.756 237.601
L137.434 238.037
L144.127 238.43
L163.077 239.036
L177.35 239.619
L190.092 240.365
L210.816 241.656
L226.299 242.367
L237.588 242.414
L252.184 242.567
L260.571 242.851
L266.377 242.836
L266.619 242.83
L266.7 242.04
L266.78 242.119
L266.861 237.807
L266.941 238.044
L267.587 239.533
L268.312 240.635
L269.119 241.456
L270.086 242.113
L271.215 242.608
L272.586 242.966
L274.36 243.187
L276.618 243.233
L280.005 243.054
L298.552 241.763
L309.761 241.348
L328.308 240.977
L356.129 240.799
L395.24 240.767
L422.415 240.738
L422.738 237.879
L423.06 236.744
L423.464 236.155
L423.948 235.91
L424.754 235.821
L426.931 235.894
L434.592 236.441
L439.995 236.984
L443.866 237.554
L448.543 237.99
L456.445 238.471
L460.719 238.609
L460.719 238.609" style="fill:none;stroke:#ff0000;"/>
   </g>
   <g id="line2d_14">
    <path clip-path="url(#pb89c8edd4c)" d="
M57.6806 241.159
L110.903 241.487
L111.145 243.03
L111.468 243.679
L111.871 243.976
L112.435 244.077
L113.725 244.003
L129.692 242.308
L134.208 241.768
L140.417 241.267
L147.191 240.925
L162.271 240.468
L222.67 239.382
L230.895 239.417
L250.33 239.548
L264.361 239.383
L266.619 239.417
L266.7 243.29
L266.78 243.21
L267.103 242.533
L267.667 241.872
L268.474 241.285
L269.522 240.806
L270.973 240.408
L272.909 240.133
L275.57 239.998
L279.683 240.038
L310.084 240.76
L342.582 241.029
L422.415 241.495
L422.657 243.02
L422.98 243.688
L423.383 243.988
L423.948 244.088
L425.238 244.013
L440.882 242.337
L445.478 241.793
L451.849 241.282
L459.671 240.871
L460.719 240.835
L460.719 240.835" style="fill:none;stroke:#00bfbf;"/>
   </g>
   <g id="line2d_15">
    <path clip-path="url(#pb89c8edd4c)" d="
M57.6806 240.803
L113.725 240.878
L119.29 240.58
L128.644 240.356
L144.369 240.192
L152.433 240.283
L181.544 240.872
L196.059 240.93
L261.7 240.912
L266.619 240.942
L266.861 239.967
L266.941 240.011
L267.506 240.138
L269.764 240.193
L281.537 240.381
L363.468 240.794
L422.496 241.022
L422.657 241.025
L423.302 241.017
L436.931 240.411
L452.494 240.198
L460.719 240.179
L460.719 240.179" style="fill:none;stroke:#bf00bf;"/>
   </g>
   <g id="line2d_16">
    <path clip-path="url(#pb89c8edd4c)" d="
M110.984 388.8
L110.984 43.2" style="fill:none;stroke:#000000;stroke-dasharray:6.000000,6.000000;stroke-dashoffset:0.0;stroke-linecap:butt;"/>
   </g>
   <g id="line2d_17">
    <path clip-path="url(#pb89c8edd4c)" d="
M266.78 388.8
L266.78 43.2" style="fill:none;stroke:#000000;stroke-dasharray:6.000000,6.000000;stroke-dashoffset:0.0;stroke-linecap:butt;"/>
   </g>
   <g id="line2d_18">
    <path clip-path="url(#pb89c8edd4c)" d="
M422.496 388.8
L422.496 43.2" style="fill:none;stroke:#000000;stroke-dasharray:6.000000,6.000000;stroke-dashoffset:0.0;stroke-linecap:butt;"/>
   </g>
   <g id="line2d_19">
    <path clip-path="url(#pb89c8edd4c)" d="
M57.6806 240.014
L77.3568 243.209
L84.4531 244.354
L88.4851 245.141
L96.2266 246.356
L107.355 247.934
L109.693 248.161
L110.903 248.365
L111.064 237.044
L111.145 235.977
L111.226 239.478
L111.387 235.398
L111.629 234.61
L112.435 233.393
L112.919 233.042
L113.403 232.963
L113.967 233.113
L114.774 233.584
L116.709 235.083
L118.644 236.437
L120.419 237.393
L122.273 238.137
L124.451 238.759
L127.192 239.296
L131.144 239.823
L136.627 240.307
L144.772 241.033
L149.207 242.128
L151.142 242.497
L151.304 242.42
L151.788 242.178
L152.997 241.936
L158.884 241.098
L166.867 240.122
L172.189 239.706
L177.189 239.538
L183.156 239.584
L190.737 239.87
L209.445 240.649
L215.493 240.721
L222.025 240.576
L237.83 239.849
L256.7 239.028
L265.974 238.926
L266.7 238.93
L266.941 205.184
L267.264 215.261
L267.587 219.982
L267.99 222.686
L268.393 223.833
L268.796 224.35
L269.522 224.832
L270.006 225.202
L271.78 230.007
L273.312 233.591
L274.522 235.907
L275.651 237.619
L276.699 238.832
L277.747 239.695
L278.876 240.353
L280.166 240.846
L281.537 241.136
L282.263 240.998
L283.956 240.651
L286.295 240.495
L290.892 240.535
L296.94 240.484
L302.746 240.208
L308.39 239.943
L311.858 240.292
L312.342 239.651
L312.987 239.188
L314.035 238.741
L314.842 238.575
L319.277 237.792
L321.454 237.737
L323.389 237.904
L325.083 238.271
L325.486 238.285
L329.276 238.018
L332.018 237.801
L335.244 237.38
L338.711 237.154
L348.227 236.94
L351.613 237.265
L356.774 238.014
L376.289 241.253
L385.724 242.767
L393.062 243.949
L397.256 244.754
L405.078 245.965
L415.803 247.445
L418.464 247.603
L421.206 248.02
L422.415 248.269
L422.577 237.453
L422.657 239.839
L422.819 235.489
L423.06 234.689
L423.948 233.345
L424.431 233.016
L424.915 232.958
L425.48 233.125
L426.367 233.672
L431.205 237.105
L432.979 237.915
L434.995 238.583
L437.414 239.138
L440.64 239.631
L444.753 240.065
L452.575 240.629
L458.058 241.061
L460.719 241.669
L460.719 241.669" style="fill:none;stroke:#bfbf00;"/>
   </g>
   <g id="line2d_20">
    <path clip-path="url(#pb89c8edd4c)" d="
M57.6806 241.245
L64.2931 240.234
L73.2442 238.741
L82.679 236.954
L87.5174 235.017
L92.6784 233.374
L97.7587 231.978
L102.597 230.874
L106.065 230.262
L108.968 230.237
L110.903 229.992
L110.984 345.066
L111.064 329.691
L111.468 282.377
L111.79 272.084
L112.113 267.977
L112.435 266.458
L112.758 265.979
L113.08 265.884
L115.338 265.79
L117.032 265.277
L119.854 264.166
L122.676 262.816
L125.499 261.219
L127.837 259.689
L128.241 258.871
L128.805 258.235
L130.176 257.156
L135.901 252.997
L140.74 249.77
L142.836 248.562
L146.385 246.691
L149.933 244.75
L151.949 243.597
L156.545 241.589
L159.206 240.689
L161.545 240.125
L163.964 239.782
L167.593 239.466
L172.27 239.322
L178.399 239.326
L184.769 239.328
L192.833 239.373
L197.107 239.703
L201.784 240.291
L206.865 241.156
L212.509 242.346
L219.525 244.044
L225.17 245.557
L225.976 246.117
L227.428 246.795
L231.944 248.577
L238.234 250.854
L243.717 252.607
L248.717 253.976
L249.523 254.071
L250.088 253.911
L251.055 253.905
L254.684 254.246
L261.135 255.01
L264.845 255.665
L266.7 256.105
L267.103 152.228
L267.345 147.083
L267.425 146.848
L267.506 147.08
L267.748 149.555
L269.603 175.087
L271.054 187.41
L271.941 192.833
L272.909 197.36
L273.876 200.844
L274.844 203.549
L275.892 205.816
L276.941 207.552
L278.15 209.08
L279.602 210.541
L281.86 212.704
L283.15 214.589
L284.279 215.763
L285.65 216.872
L292.504 222.239
L306.697 233.892
L308.632 234.95
L311.697 236.764
L311.777 236.814
L312.422 236.246
L312.906 236.184
L313.632 236.358
L314.438 236.755
L315.406 237.485
L319.519 240.069
L325.405 243.645
L328.389 244.051
L331.212 244.244
L335.808 243.713
L341.533 243.292
L342.42 243.131
L344.195 242.877
L346.533 242.778
L357.339 242.624
L362.419 242.25
L367.822 241.623
L374.838 240.559
L383.466 239.061
L391.288 237.511
L395.482 235.804
L400.481 234.171
L405.642 232.706
L410.4 231.583
L414.674 230.791
L415.964 230.893
L417.738 230.896
L420.722 230.654
L422.415 230.427
L422.496 345.297
L422.577 330.049
L422.819 293.266
L423.141 276.448
L423.464 269.644
L423.786 267.027
L424.109 266.122
L424.431 265.879
L424.915 265.879
L425.964 265.906
L427.092 265.697
L428.947 265.093
L431.85 263.904
L434.673 262.509
L437.576 260.819
L438.866 259.99
L439.43 258.955
L440.156 258.257
L442.817 256.267
L447.978 252.61
L453.3 249.116
L456.284 247.365
L459.994 245.552
L460.719 245.201
L460.719 245.201" style="fill:none;stroke:#000000;"/>
   </g>
   <g id="line2d_21">
    <path clip-path="url(#pb89c8edd4c)" d="
M57.6806 185.58
L60.5837 186.064
L63.648 186.343
L68.1638 186.478
L71.4701 186.352
L74.6957 186.007
L78.0826 185.421
L81.6307 184.583
L82.7597 184.183
L86.711 182.162
L89.1302 181.328
L92.5171 180.41
L96.9523 179.444
L101.791 178.617
L105.984 178.107
L110.258 178.182
L110.903 178.106
L111.064 255.585
L111.145 256.324
L111.306 263.948
L111.951 272.062
L112.355 274.802
L112.758 276.146
L113.08 276.486
L113.322 276.422
L113.645 276.016
L114.129 274.922
L114.935 272.376
L118.08 261.823
L119.37 258.496
L120.58 255.945
L121.87 253.743
L123.16 251.972
L124.612 250.37
L126.225 248.933
L128.241 247.456
L131.063 245.612
L133.805 244.17
L140.579 240.934
L143.724 239.439
L145.175 236.825
L146.465 234.026
L147.756 230.655
L149.53 225.216
L151.223 220.392
L152.675 220.935
L154.449 221.325
L162.029 222.749
L164.771 223.574
L167.512 224.646
L170.496 226.062
L173.964 227.967
L178.963 230.997
L183.156 233.476
L186.705 235.304
L190.092 236.798
L193.398 238.01
L196.704 238.995
L199.93 239.726
L203.236 240.247
L206.703 240.566
L212.751 240.823
L215.977 240.603
L219.364 240.146
L222.831 239.456
L230.008 237.686
L236.701 235.836
L248.072 232.753
L255.329 230.999
L266.7 228.805
L266.861 287.353
L267.022 245.535
L267.909 195.96
L268.474 177.625
L268.957 168.844
L269.361 164.992
L269.683 163.541
L269.925 163.169
L270.006 163.181
L270.248 163.696
L270.651 165.311
L271.296 169.172
L272.667 179.306
L274.199 190.013
L275.328 196.409
L276.296 200.742
L277.344 204.393
L278.15 206.439
L278.876 207.758
L279.602 208.643
L280.247 209.11
L280.892 209.316
L281.537 209.292
L282.505 208.993
L283.392 208.512
L284.36 207.714
L285.569 206.46
L287.101 204.5
L289.521 200.991
L296.617 190.54
L299.843 186.254
L302.826 182.655
L305.568 179.691
L307.745 177.608
L308.471 177.359
L309.358 176.794
L310.487 175.781
L311.777 174.312
L312.503 171.999
L315.325 163.074
L316.132 161.445
L317.019 160.148
L317.906 159.242
L318.793 158.634
L319.761 158.233
L320.809 158.037
L322.019 158.049
L323.389 158.303
L324.922 158.825
L325.647 159.012
L327.421 159.396
L329.437 160.072
L332.26 161.291
L334.356 162.436
L336.776 164.028
L339.679 166.219
L342.098 168.277
L347.259 173.801
L349.759 176.192
L352.178 178.202
L354.678 179.996
L357.258 181.573
L359.839 182.891
L362.419 183.965
L365.08 184.835
L367.822 185.501
L370.725 185.976
L374.112 186.289
L377.58 186.431
L380.724 186.333
L383.95 186.003
L387.337 185.426
L390.804 184.61
L391.611 184.22
L394.433 182.729
L396.611 181.897
L399.594 181.015
L403.707 180.041
L408.545 179.123
L413.303 178.441
L415.077 178.333
L417.658 178.588
L419.674 178.489
L422.415 178.134
L422.496 256.365
L422.577 256.29
L422.738 263.638
L423.383 272.013
L423.786 274.907
L424.189 276.365
L424.512 276.771
L424.754 276.743
L425.076 276.37
L425.56 275.305
L426.286 273.047
L429.834 261.181
L431.124 257.97
L432.334 255.518
L433.624 253.402
L434.915 251.7
L436.366 250.156
L437.979 248.767
L440.479 246.956
L442.495 245.706
L445.478 244.16
L455.155 239.515
L457.494 238.381
L458.865 235.673
L460.155 232.637
L460.719 231.125
L460.719 231.125" style="fill:none;stroke:#0000ff;"/>
   </g>
   <g id="line2d_22">
    <path clip-path="url(#pb89c8edd4c)" d="
M57.6806 241.421
L67.1155 238.48
L80.0179 235.127
L83.4854 234.16
L92.5171 229.903
L99.2102 227.047
L104.855 224.874
L106.871 224.258
L110.903 223.147
L110.984 84.0626
L111.064 115.994
L111.387 194.732
L111.709 225.854
L112.032 240.062
L112.355 246.639
L112.677 249.723
L113 251.178
L113.322 251.851
L113.725 252.17
L114.129 252.21
L114.774 252.007
L119.854 249.849
L127.837 247.335
L128.16 248.158
L128.483 248.432
L128.805 248.44
L129.37 248.174
L130.66 247.209
L133.885 244.794
L136.627 243.047
L139.692 241.364
L142.917 239.596
L145.578 238.308
L147.917 237.502
L149.772 237.077
L151.384 236.662
L153.078 235.804
L155.416 234.867
L158.077 234.045
L161.061 233.356
L163.884 232.92
L167.27 232.666
L171.222 232.591
L176.786 232.734
L183.64 233.15
L196.704 233.939
L204.042 234.236
L212.106 234.797
L220.412 235.628
L225.17 236.13
L225.734 235.713
L226.38 235.53
L227.347 235.515
L229.041 235.743
L233.395 236.626
L246.136 239.228
L249.443 239.916
L249.926 240.539
L250.491 240.894
L251.297 241.112
L252.829 241.249
L257.99 241.383
L265.974 241.418
L266.7 241.401
L266.941 382.117
L267.425 344.169
L267.99 318.514
L268.635 299.13
L269.361 283.467
L270.006 273.052
L270.973 269.367
L272.586 264.186
L274.441 258.926
L275.812 255.644
L277.344 252.58
L278.392 250.924
L279.36 249.819
L280.247 249.132
L281.134 248.709
L282.263 248.442
L283.069 248.501
L284.118 248.832
L285.247 249.175
L287.343 249.928
L290.408 251.289
L299.843 255.618
L303.633 257.046
L307.261 258.178
L309.116 258.561
L311.777 258.823
L312.503 254.039
L313.068 252.133
L313.632 250.944
L314.277 250.061
L314.438 249.981
L315.487 250.898
L319.035 254.392
L321.051 256.687
L322.744 258.957
L324.196 261.286
L325.405 263.248
L327.583 263.134
L331.05 262.767
L333.631 260.315
L336.292 258.096
L339.437 255.77
L342.017 253.846
L343.146 252.346
L344.356 251.111
L345.727 250.029
L347.34 249.041
L349.356 248.082
L352.259 246.964
L356.855 245.461
L377.66 239.105
L389.998 235.839
L392.175 235.176
L400.723 231.201
L407.82 228.181
L413.464 226.015
L415.561 225.377
L420.803 224.038
L422.415 223.548
L422.496 83.6831
L422.577 115.635
L422.819 181.106
L423.141 219.975
L423.464 237.474
L423.786 245.485
L424.109 249.204
L424.431 250.947
L424.754 251.755
L425.076 252.105
L425.48 252.228
L425.964 252.144
L427.012 251.658
L429.431 250.519
L431.689 249.74
L438.866 247.449
L439.269 248.382
L439.592 248.601
L439.995 248.556
L440.64 248.196
L442.575 246.715
L445.398 244.679
L448.22 242.928
L451.365 241.25
L454.994 239.568
L456.204 238.939
L457.171 238.359
L459.51 237.315
L460.719 236.935
L460.719 236.935" style="fill:none;stroke:#008000;"/>
   </g>
   <g id="line2d_23">
    <path clip-path="url(#pb89c8edd4c)" d="
M57.6806 238.314
L65.0995 234.966
L71.5507 232.839
L79.2922 230.518
L83.4854 229.221
L95.1782 222.873
L103.887 218.317
L106.468 217.139
L109.048 215.944
L110.903 215.041
L110.984 240.674
L111.064 237.893
L111.145 237.101
L111.548 239.642
L111.871 240.75
L112.193 241.247
L112.596 241.484
L113.242 241.558
L115.258 241.435
L120.177 241.193
L127.999 241.074
L134.531 241.006
L177.108 240.818
L221.944 240.793
L266.7 240.855
L266.861 207.464
L267.022 87.2976
L267.183 89.0232
L267.506 97.3867
L268.877 137.79
L269.683 153.817
L270.086 162.192
L270.893 185.975
L271.699 203.838
L272.506 217.212
L273.312 227.146
L274.118 234.434
L274.925 239.693
L275.651 243.094
L276.376 245.529
L276.86 246.607
L277.586 247.658
L278.392 248.399
L279.36 248.968
L280.973 249.613
L284.118 250.867
L284.763 251.137
L286.134 251.687
L287.747 252.594
L289.843 254.056
L293.311 256.802
L298.068 260.517
L301.052 262.562
L303.794 264.173
L306.374 265.434
L310.487 267.115
L311.777 267.468
L312.503 258.609
L313.068 255.13
L313.632 252.949
L314.277 251.284
L314.438 251.123
L316.132 253.462
L318.067 256.518
L319.841 259.746
L321.373 262.98
L322.825 266.577
L324.115 270.385
L325.405 274.299
L328.873 274.183
L331.05 274.039
L333.066 270.754
L335.324 267.5
L337.985 264.063
L341.13 260.375
L341.856 259.488
L342.824 257.052
L343.872 254.985
L345.082 253.103
L346.372 251.5
L347.904 249.961
L349.678 248.512
L351.855 247.035
L354.678 245.4
L358.71 243.342
L365.564 240.131
L373.709 236.518
L379.354 234.565
L386.611 232.294
L392.417 230.459
L414.513 218.995
L415.642 218.577
L419.432 216.825
L422.415 215.405
L422.496 240.674
L422.577 237.906
L422.657 237.667
L422.738 237.809
L423.383 240.747
L423.706 241.251
L424.109 241.489
L424.754 241.561
L426.851 241.431
L431.77 241.19
L439.43 241.078
L460.719 240.929
L460.719 240.929" style="fill:none;stroke:#ff0000;"/>
   </g>
   <g id="line2d_24">
    <path clip-path="url(#pb89c8edd4c)" d="
M57.6806 216.441
L67.2768 216.477
L82.1146 216.333
L86.6304 215.942
L92.759 215.855
L104.049 215.93
L106.468 216.079
L108.564 216.157
L110.903 216.154
L111.064 240.821
L111.145 240.755
L111.226 240.222
L111.306 241.032
L111.387 240.818
L111.709 240.893
L113.161 241.011
L116.145 240.954
L124.934 240.779
L163.238 240.534
L262.668 240.619
L266.7 240.616
L266.861 242.09
L267.022 238.474
L267.425 238.009
L267.909 237.017
L268.554 235.071
L269.28 232.08
L270.57 226.3
L271.619 223.472
L272.506 221.652
L273.393 220.321
L274.199 219.48
L275.005 218.938
L275.812 218.643
L276.538 218.559
L277.425 219.688
L278.312 220.469
L279.199 220.966
L280.166 221.253
L281.215 221.334
L283.795 221.175
L284.521 221.074
L286.698 221.855
L288.634 222.313
L290.488 222.53
L292.424 222.534
L294.44 222.318
L296.617 221.861
L299.036 221.12
L301.778 220.035
L305.004 218.505
L307.584 217.141
L307.907 219.386
L309.116 229.513
L310.245 240.885
L311.374 254.538
L311.858 260.316
L314.438 259.769
L317.906 260.507
L320.89 260.799
L325.164 261.016
L325.244 260.963
L327.502 255.477
L329.679 249.615
L331.373 244.462
L334.276 235.188
L337.018 227.152
L339.598 220.259
L341.775 214.958
L341.937 214.885
L352.742 215.859
L360.645 216.243
L369.435 216.445
L380.402 216.456
L390.885 216.295
L392.498 216.088
L395.724 215.922
L402.497 215.834
L413.948 215.905
L415.077 216.028
L416.851 216.136
L421.448 216.141
L422.415 216.127
L422.577 240.93
L422.657 240.188
L422.738 241.061
L422.819 240.825
L423.141 240.898
L424.593 241.018
L427.496 240.963
L436.285 240.782
L460.719 240.603
L460.719 240.603" style="fill:none;stroke:#00bfbf;"/>
   </g>
   <g id="line2d_25">
    <path clip-path="url(#pb89c8edd4c)" d="
M110.984 388.8
L110.984 43.2" style="fill:none;stroke:#000000;stroke-dasharray:6.000000,6.000000;stroke-dashoffset:0.0;stroke-linecap:butt;"/>
   </g>
   <g id="line2d_26">
    <path clip-path="url(#pb89c8edd4c)" d="
M266.78 388.8
L266.78 43.2" style="fill:none;stroke:#000000;stroke-dasharray:6.000000,6.000000;stroke-dashoffset:0.0;stroke-linecap:butt;"/>
   </g>
   <g id="line2d_27">
    <path clip-path="url(#pb89c8edd4c)" d="
M422.496 388.8
L422.496 43.2" style="fill:none;stroke:#000000;stroke-dasharray:6.000000,6.000000;stroke-dashoffset:0.0;stroke-linecap:butt;"/>
   </g>
   <g id="matplotlib.axis_1">
    <g id="xtick_1">
     <g id="line2d_28">
      <defs>
       <path d="
M0 0
L0 -4" id="mcb557df647" style="stroke:#000000;stroke-linecap:butt;stroke-width:0.5;"/>
      </defs>
      <g>
       <use style="stroke:#000000;stroke-linecap:butt;stroke-width:0.5;" x="57.6" xlink:href="#mcb557df647" y="388.8"/>
      </g>
     </g>
     <g id="line2d_29">
      <defs>
       <path d="
M0 0
L0 4" id="mdad270ee8e" style="stroke:#000000;stroke-linecap:butt;stroke-width:0.5;"/>
      </defs>
      <g>
       <use style="stroke:#000000;stroke-linecap:butt;stroke-width:0.5;" x="57.6" xlink:href="#mdad270ee8e" y="43.2"/>
      </g>
     </g>
     <g id="text_1">
      <!-- 3.5 -->
      <defs>
       <path d="
M40.5781 39.3125
Q47.6562 37.7969 51.625 33
Q55.6094 28.2188 55.6094 21.1875
Q55.6094 10.4062 48.1875 4.48438
Q40.7656 -1.42188 27.0938 -1.42188
Q22.5156 -1.42188 17.6562 -0.515625
Q12.7969 0.390625 7.625 2.20312
L7.625 11.7188
Q11.7188 9.32812 16.5938 8.10938
Q21.4844 6.89062 26.8125 6.89062
Q36.0781 6.89062 40.9375 10.5469
Q45.7969 14.2031 45.7969 21.1875
Q45.7969 27.6406 41.2812 31.2656
Q36.7656 34.9062 28.7188 34.9062
L20.2188 34.9062
L20.2188 43.0156
L29.1094 43.0156
Q36.375 43.0156 40.2344 45.9219
Q44.0938 48.8281 44.0938 54.2969
Q44.0938 59.9062 40.1094 62.9062
Q36.1406 65.9219 28.7188 65.9219
Q24.6562 65.9219 20.0156 65.0312
Q15.375 64.1562 9.8125 62.3125
L9.8125 71.0938
Q15.4375 72.6562 20.3438 73.4375
Q25.25 74.2188 29.5938 74.2188
Q40.8281 74.2188 47.3594 69.1094
Q53.9062 64.0156 53.9062 55.3281
Q53.9062 49.2656 50.4375 45.0938
Q46.9688 40.9219 40.5781 39.3125" id="DejaVuSans-33"/>
       <path d="
M10.7969 72.9062
L49.5156 72.9062
L49.5156 64.5938
L19.8281 64.5938
L19.8281 46.7344
Q21.9688 47.4688 24.1094 47.8281
Q26.2656 48.1875 28.4219 48.1875
Q40.625 48.1875 47.75 41.5
Q54.8906 34.8125 54.8906 23.3906
Q54.8906 11.625 47.5625 5.09375
Q40.2344 -1.42188 26.9062 -1.42188
Q22.3125 -1.42188 17.5469 -0.640625
Q12.7969 0.140625 7.71875 1.70312
L7.71875 11.625
Q12.1094 9.23438 16.7969 8.0625
Q21.4844 6.89062 26.7031 6.89062
Q35.1562 6.89062 40.0781 11.3281
Q45.0156 15.7656 45.0156 23.3906
Q45.0156 31 40.0781 35.4375
Q35.1562 39.8906 26.7031 39.8906
Q22.75 39.8906 18.8125 39.0156
Q14.8906 38.1406 10.7969 36.2812
z
" id="DejaVuSans-35"/>
       <path d="
M10.6875 12.4062
L21 12.4062
L21 0
L10.6875 0
z
" id="DejaVuSans-2e"/>
      </defs>
      <g transform="translate(49.0396875 401.70625)scale(0.12 -0.12)">
       <use xlink:href="#DejaVuSans-33"/>
       <use x="63.623046875" xlink:href="#DejaVuSans-2e"/>
       <use x="95.41015625" xlink:href="#DejaVuSans-35"/>
      </g>
     </g>
    </g>
    <g id="xtick_2">
     <g id="line2d_30">
      <g>
       <use style="stroke:#000000;stroke-linecap:butt;stroke-width:0.5;" x="158.4" xlink:href="#mcb557df647" y="388.8"/>
      </g>
     </g>
     <g id="line2d_31">
      <g>
       <use style="stroke:#000000;stroke-linecap:butt;stroke-width:0.5;" x="158.4" xlink:href="#mdad270ee8e" y="43.2"/>
      </g>
     </g>
     <g id="text_2">
      <!-- 4.0 -->
      <defs>
       <path d="
M31.7812 66.4062
Q24.1719 66.4062 20.3281 58.9062
Q16.5 51.4219 16.5 36.375
Q16.5 21.3906 20.3281 13.8906
Q24.1719 6.39062 31.7812 6.39062
Q39.4531 6.39062 43.2812 13.8906
Q47.125 21.3906 47.125 36.375
Q47.125 51.4219 43.2812 58.9062
Q39.4531 66.4062 31.7812 66.4062
M31.7812 74.2188
Q44.0469 74.2188 50.5156 64.5156
Q56.9844 54.8281 56.9844 36.375
Q56.9844 17.9688 50.5156 8.26562
Q44.0469 -1.42188 31.7812 -1.42188
Q19.5312 -1.42188 13.0625 8.26562
Q6.59375 17.9688 6.59375 36.375
Q6.59375 54.8281 13.0625 64.5156
Q19.5312 74.2188 31.7812 74.2188" id="DejaVuSans-30"/>
       <path d="
M37.7969 64.3125
L12.8906 25.3906
L37.7969 25.3906
z

M35.2031 72.9062
L47.6094 72.9062
L47.6094 25.3906
L58.0156 25.3906
L58.0156 17.1875
L47.6094 17.1875
L47.6094 0
L37.7969 0
L37.7969 17.1875
L4.89062 17.1875
L4.89062 26.7031
z
" id="DejaVuSans-34"/>
      </defs>
      <g transform="translate(149.55 401.70625)scale(0.12 -0.12)">
       <use xlink:href="#DejaVuSans-34"/>
       <use x="63.623046875" xlink:href="#DejaVuSans-2e"/>
       <use x="95.41015625" xlink:href="#DejaVuSans-30"/>
      </g>
     </g>
    </g>
    <g id="xtick_3">
     <g id="line2d_32">
      <g>
       <use style="stroke:#000000;stroke-linecap:butt;stroke-width:0.5;" x="259.2" xlink:href="#mcb557df647" y="388.8"/>
      </g>
     </g>
     <g id="line2d_33">
      <g>
       <use style="stroke:#000000;stroke-linecap:butt;stroke-width:0.5;" x="259.2" xlink:href="#mdad270ee8e" y="43.2"/>
      </g>
     </g>
     <g id="text_3">
      <!-- 4.5 -->
      <g transform="translate(250.475625 401.54875)scale(0.12 -0.12)">
       <use xlink:href="#DejaVuSans-34"/>
       <use x="63.623046875" xlink:href="#DejaVuSans-2e"/>
       <use x="95.41015625" xlink:href="#DejaVuSans-35"/>
      </g>
     </g>
    </g>
    <g id="xtick_4">
     <g id="line2d_34">
      <g>
       <use style="stroke:#000000;stroke-linecap:butt;stroke-width:0.5;" x="360.0" xlink:href="#mcb557df647" y="388.8"/>
      </g>
     </g>
     <g id="line2d_35">
      <g>
       <use style="stroke:#000000;stroke-linecap:butt;stroke-width:0.5;" x="360.0" xlink:href="#mdad270ee8e" y="43.2"/>
      </g>
     </g>
     <g id="text_4">
      <!-- 5.0 -->
      <g transform="translate(351.3196875 401.70625)scale(0.12 -0.12)">
       <use xlink:href="#DejaVuSans-35"/>
       <use x="63.623046875" xlink:href="#DejaVuSans-2e"/>
       <use x="95.41015625" xlink:href="#DejaVuSans-30"/>
      </g>
     </g>
    </g>
    <g id="xtick_5">
     <g id="line2d_36">
      <g>
       <use style="stroke:#000000;stroke-linecap:butt;stroke-width:0.5;" x="460.8" xlink:href="#mcb557df647" y="388.8"/>
      </g>
     </g>
     <g id="line2d_37">
      <g>
       <use style="stroke:#000000;stroke-linecap:butt;stroke-width:0.5;" x="460.8" xlink:href="#mdad270ee8e" y="43.2"/>
      </g>
     </g>
     <g id="text_5">
      <!-- 5.5 -->
      <g transform="translate(452.2453125 401.54875)scale(0.12 -0.12)">
       <use xlink:href="#DejaVuSans-35"/>
       <use x="63.623046875" xlink:href="#DejaVuSans-2e"/>
       <use x="95.41015625" xlink:href="#DejaVuSans-35"/>
      </g>
     </g>
    </g>
    <g id="text_6">
     <!-- $t [\mathrm{s}]$ -->
     <defs>
      <path d="
M2.20312 -25
L2.20312 -21
L11.9219 -21
L11.9219 71
L2.20312 71
L2.20312 75
L15.9219 75
L15.9219 -25
z
" id="Cmr10-5d"/>
      <path d="
M3.32812 -0.296875
L3.32812 16.0156
Q3.32812 16.7969 4.20312 16.7969
L5.42188 16.7969
Q6 16.7969 6.20312 16.0156
Q8.98438 1.51562 19.6719 1.51562
Q24.4219 1.51562 27.6094 3.65625
Q30.8125 5.8125 30.8125 10.2969
Q30.8125 13.5312 28.3125 15.7969
Q25.8281 18.0625 22.4062 18.8906
L15.7188 20.2188
Q12.3594 20.9531 9.59375 22.4531
Q6.84375 23.9688 5.07812 26.4844
Q3.32812 29 3.32812 32.3281
Q3.32812 36.7188 5.64062 39.5156
Q7.95312 42.3281 11.6562 43.5781
Q15.375 44.8281 19.6719 44.8281
Q24.8125 44.8281 28.6094 42.0938
L31.5 44.5781
Q31.5 44.8281 31.9844 44.8281
L32.7188 44.8281
Q33.0156 44.8281 33.25 44.5469
Q33.5 44.2812 33.5 44
L33.5 30.9062
Q33.5 29.9844 32.7188 29.9844
L31.5 29.9844
Q30.6094 29.9844 30.6094 30.9062
Q30.6094 36.1406 27.7031 39.3125
Q24.8125 42.4844 19.5781 42.4844
Q15.0938 42.4844 11.7969 40.8125
Q8.5 39.1562 8.5 35.1094
Q8.5 32.3281 10.8594 30.5469
Q13.2344 28.7656 16.4062 27.9844
L23.1875 26.7031
Q26.6094 25.9219 29.5625 24.0625
Q32.5156 22.2188 34.25 19.375
Q35.9844 16.5469 35.9844 12.9844
Q35.9844 9.375 34.7344 6.70312
Q33.5 4.04688 31.2656 2.28125
Q29.0469 0.53125 26.0156 -0.296875
Q23 -1.125 19.6719 -1.125
Q13.4219 -1.125 8.98438 3.07812
L5.32812 -0.875
Q5.32812 -1.125 4.78125 -1.125
L4.20312 -1.125
Q3.32812 -1.125 3.32812 -0.296875" id="Cmr10-73"/>
      <path d="
M6.20312 8.10938
Q6.20312 9.57812 6.5 10.8906
L13.7188 39.5938
L3.21875 39.5938
Q2.20312 39.5938 2.20312 40.9219
Q2.59375 43.1094 3.51562 43.1094
L14.5938 43.1094
L18.6094 59.4219
Q19 60.75 20.1719 61.6719
Q21.3438 62.5938 22.7969 62.5938
Q24.0781 62.5938 24.9219 61.8281
Q25.7812 61.0781 25.7812 59.8125
Q25.7812 59.5156 25.75 59.3438
Q25.7344 59.1875 25.6875 58.9844
L21.6875 43.1094
L31.9844 43.1094
Q33.0156 43.1094 33.0156 41.7969
Q32.9531 41.5469 32.8125 40.9531
Q32.6719 40.375 32.4219 39.9844
Q32.1719 39.5938 31.6875 39.5938
L20.7969 39.5938
L13.625 10.6875
Q12.8906 7.85938 12.8906 5.8125
Q12.8906 1.51562 15.8281 1.51562
Q20.2188 1.51562 23.6094 5.64062
Q27 9.76562 28.8125 14.7031
Q29.2031 15.2812 29.5938 15.2812
L30.8125 15.2812
Q31.2031 15.2812 31.4375 15.0156
Q31.6875 14.75 31.6875 14.4062
Q31.6875 14.2031 31.5938 14.1094
Q29.3906 8.0625 25.1875 3.46875
Q21 -1.125 15.5781 -1.125
Q11.625 -1.125 8.90625 1.45312
Q6.20312 4.04688 6.20312 8.10938" id="Cmmi10-74"/>
      <path d="
M11.8125 -25
L11.8125 75
L25.4844 75
L25.4844 71
L15.8281 71
L15.8281 -21
L25.4844 -21
L25.4844 -25
z
" id="Cmr10-5b"/>
     </defs>
     <g transform="translate(251.34 418.876875)scale(0.12 -0.12)">
      <use transform="translate(0.0 25.0)" xlink:href="#Cmmi10-74"/>
      <use transform="translate(36.083984375 25.0)" xlink:href="#Cmr10-5b"/>
      <use transform="translate(63.76953125 25.0)" xlink:href="#Cmr10-73"/>
      <use transform="translate(103.173828125 25.0)" xlink:href="#Cmr10-5d"/>
     </g>
    </g>
   </g>
   <g id="matplotlib.axis_2">
    <g id="ytick_1">
     <g id="line2d_38">
      <defs>
       <path d="
M0 0
L4 0" id="mc8fcea1516" style="stroke:#000000;stroke-linecap:butt;stroke-width:0.5;"/>
      </defs>
      <g>
       <use style="stroke:#000000;stroke-linecap:butt;stroke-width:0.5;" x="57.6" xlink:href="#mc8fcea1516" y="388.8"/>
      </g>
     </g>
     <g id="line2d_39">
      <defs>
       <path d="
M0 0
L-4 0" id="m0d5b0a6425" style="stroke:#000000;stroke-linecap:butt;stroke-width:0.5;"/>
      </defs>
      <g>
       <use style="stroke:#000000;stroke-linecap:butt;stroke-width:0.5;" x="460.8" xlink:href="#m0d5b0a6425" y="388.8"/>
      </g>
     </g>
     <g id="text_7">
      <!-- −150 -->
      <defs>
       <path d="
M12.4062 8.29688
L28.5156 8.29688
L28.5156 63.9219
L10.9844 60.4062
L10.9844 69.3906
L28.4219 72.9062
L38.2812 72.9062
L38.2812 8.29688
L54.3906 8.29688
L54.3906 0
L12.4062 0
z
" id="DejaVuSans-31"/>
       <path d="
M10.5938 35.5
L73.1875 35.5
L73.1875 27.2031
L10.5938 27.2031
z
" id="DejaVuSans-2212"/>
      </defs>
      <g transform="translate(22.7075 393.1678125)scale(0.12 -0.12)">
       <use xlink:href="#DejaVuSans-2212"/>
       <use x="83.7890625" xlink:href="#DejaVuSans-31"/>
       <use x="147.412109375" xlink:href="#DejaVuSans-35"/>
       <use x="211.03515625" xlink:href="#DejaVuSans-30"/>
      </g>
     </g>
    </g>
    <g id="ytick_2">
     <g id="line2d_40">
      <g>
       <use style="stroke:#000000;stroke-linecap:butt;stroke-width:0.5;" x="57.6" xlink:href="#mc8fcea1516" y="339.428571429"/>
      </g>
     </g>
     <g id="line2d_41">
      <g>
       <use style="stroke:#000000;stroke-linecap:butt;stroke-width:0.5;" x="460.8" xlink:href="#m0d5b0a6425" y="339.428571429"/>
      </g>
     </g>
     <g id="text_8">
      <!-- −100 -->
      <g transform="translate(22.7075 343.796383929)scale(0.12 -0.12)">
       <use xlink:href="#DejaVuSans-2212"/>
       <use x="83.7890625" xlink:href="#DejaVuSans-31"/>
       <use x="147.412109375" xlink:href="#DejaVuSans-30"/>
       <use x="211.03515625" xlink:href="#DejaVuSans-30"/>
      </g>
     </g>
    </g>
    <g id="ytick_3">
     <g id="line2d_42">
      <g>
       <use style="stroke:#000000;stroke-linecap:butt;stroke-width:0.5;" x="57.6" xlink:href="#mc8fcea1516" y="290.057142857"/>
      </g>
     </g>
     <g id="line2d_43">
      <g>
       <use style="stroke:#000000;stroke-linecap:butt;stroke-width:0.5;" x="460.8" xlink:href="#m0d5b0a6425" y="290.057142857"/>
      </g>
     </g>
     <g id="text_9">
      <!-- −50 -->
      <g transform="translate(30.3425 294.424955357)scale(0.12 -0.12)">
       <use xlink:href="#DejaVuSans-2212"/>
       <use x="83.7890625" xlink:href="#DejaVuSans-35"/>
       <use x="147.412109375" xlink:href="#DejaVuSans-30"/>
      </g>
     </g>
    </g>
    <g id="ytick_4">
     <g id="line2d_44">
      <g>
       <use style="stroke:#000000;stroke-linecap:butt;stroke-width:0.5;" x="57.6" xlink:href="#mc8fcea1516" y="240.685714286"/>
      </g>
     </g>
     <g id="line2d_45">
      <g>
       <use style="stroke:#000000;stroke-linecap:butt;stroke-width:0.5;" x="460.8" xlink:href="#m0d5b0a6425" y="240.685714286"/>
      </g>
     </g>
     <g id="text_10">
      <!-- 0 -->
      <g transform="translate(47.553125 245.053526786)scale(0.12 -0.12)">
       <use xlink:href="#DejaVuSans-30"/>
      </g>
     </g>
    </g>
    <g id="ytick_5">
     <g id="line2d_46">
      <g>
       <use style="stroke:#000000;stroke-linecap:butt;stroke-width:0.5;" x="57.6" xlink:href="#mc8fcea1516" y="191.314285714"/>
      </g>
     </g>
     <g id="line2d_47">
      <g>
       <use style="stroke:#000000;stroke-linecap:butt;stroke-width:0.5;" x="460.8" xlink:href="#m0d5b0a6425" y="191.314285714"/>
      </g>
     </g>
     <g id="text_11">
      <!-- 50 -->
      <g transform="translate(40.053125 195.682098214)scale(0.12 -0.12)">
       <use xlink:href="#DejaVuSans-35"/>
       <use x="63.623046875" xlink:href="#DejaVuSans-30"/>
      </g>
     </g>
    </g>
    <g id="ytick_6">
     <g id="line2d_48">
      <g>
       <use style="stroke:#000000;stroke-linecap:butt;stroke-width:0.5;" x="57.6" xlink:href="#mc8fcea1516" y="141.942857143"/>
      </g>
     </g>
     <g id="line2d_49">
      <g>
       <use style="stroke:#000000;stroke-linecap:butt;stroke-width:0.5;" x="460.8" xlink:href="#m0d5b0a6425" y="141.942857143"/>
      </g>
     </g>
     <g id="text_12">
      <!-- 100 -->
      <g transform="translate(32.81 146.310669643)scale(0.12 -0.12)">
       <use xlink:href="#DejaVuSans-31"/>
       <use x="63.623046875" xlink:href="#DejaVuSans-30"/>
       <use x="127.24609375" xlink:href="#DejaVuSans-30"/>
      </g>
     </g>
    </g>
    <g id="ytick_7">
     <g id="line2d_50">
      <g>
       <use style="stroke:#000000;stroke-linecap:butt;stroke-width:0.5;" x="57.6" xlink:href="#mc8fcea1516" y="92.5714285714"/>
      </g>
     </g>
     <g id="line2d_51">
      <g>
       <use style="stroke:#000000;stroke-linecap:butt;stroke-width:0.5;" x="460.8" xlink:href="#m0d5b0a6425" y="92.5714285714"/>
      </g>
     </g>
     <g id="text_13">
      <!-- 150 -->
      <g transform="translate(32.81 96.9392410714)scale(0.12 -0.12)">
       <use xlink:href="#DejaVuSans-31"/>
       <use x="63.623046875" xlink:href="#DejaVuSans-35"/>
       <use x="127.24609375" xlink:href="#DejaVuSans-30"/>
      </g>
     </g>
    </g>
    <g id="ytick_8">
     <g id="line2d_52">
      <g>
       <use style="stroke:#000000;stroke-linecap:butt;stroke-width:0.5;" x="57.6" xlink:href="#mc8fcea1516" y="43.2"/>
      </g>
     </g>
     <g id="line2d_53">
      <g>
       <use style="stroke:#000000;stroke-linecap:butt;stroke-width:0.5;" x="460.8" xlink:href="#m0d5b0a6425" y="43.2"/>
      </g>
     </g>
     <g id="text_14">
      <!-- 200 -->
      <defs>
       <path d="
M19.1875 8.29688
L53.6094 8.29688
L53.6094 0
L7.32812 0
L7.32812 8.29688
Q12.9375 14.1094 22.625 23.8906
Q32.3281 33.6875 34.8125 36.5312
Q39.5469 41.8438 41.4219 45.5312
Q43.3125 49.2188 43.3125 52.7812
Q43.3125 58.5938 39.2344 62.25
Q35.1562 65.9219 28.6094 65.9219
Q23.9688 65.9219 18.8125 64.3125
Q13.6719 62.7031 7.8125 59.4219
L7.8125 69.3906
Q13.7656 71.7812 18.9375 73
Q24.125 74.2188 28.4219 74.2188
Q39.75 74.2188 46.4844 68.5469
Q53.2188 62.8906 53.2188 53.4219
Q53.2188 48.9219 51.5312 44.8906
Q49.8594 40.875 45.4062 35.4062
Q44.1875 33.9844 37.6406 27.2188
Q31.1094 20.4531 19.1875 8.29688" id="DejaVuSans-32"/>
      </defs>
      <g transform="translate(32.37125 47.5678125)scale(0.12 -0.12)">
       <use xlink:href="#DejaVuSans-32"/>
       <use x="63.623046875" xlink:href="#DejaVuSans-30"/>
       <use x="127.24609375" xlink:href="#DejaVuSans-30"/>
      </g>
     </g>
    </g>
    <g id="text_15">
     <!-- $\tau [\mathrm{Nm}]$ -->
     <defs>
      <path d="
M2.98438 0
L2.98438 3.51562
Q6.39062 3.51562 8.59375 4.04688
Q10.7969 4.59375 10.7969 6.6875
L10.7969 33.9844
Q10.7969 36.6719 9.98438 37.8594
Q9.1875 39.0625 7.67188 39.3281
Q6.15625 39.5938 2.98438 39.5938
L2.98438 43.1094
L17.4844 44.1875
L17.4844 34.4219
Q19.4844 38.7188 23.4062 41.4531
Q27.3438 44.1875 31.9844 44.1875
Q43.5 44.1875 45.5156 34.8125
Q47.5156 39.0156 51.3594 41.5938
Q55.2188 44.1875 59.8125 44.1875
Q64.3594 44.1875 67.4531 42.7188
Q70.5625 41.2656 72.125 38.25
Q73.6875 35.25 73.6875 30.7188
L73.6875 6.6875
Q73.6875 4.59375 75.9062 4.04688
Q78.125 3.51562 81.5 3.51562
L81.5 0
L58.5938 0
L58.5938 3.51562
Q62.0156 3.51562 64.2031 4.04688
Q66.4062 4.59375 66.4062 6.6875
L66.4062 30.4219
Q66.4062 35.4531 64.9844 38.5312
Q63.5781 41.6094 59.1875 41.6094
Q53.4219 41.6094 49.6562 36.9688
Q45.9062 32.3281 45.9062 26.4219
L45.9062 6.6875
Q45.9062 4.59375 48.0938 4.04688
Q50.2969 3.51562 53.7188 3.51562
L53.7188 0
L30.8125 0
L30.8125 3.51562
Q34.2344 3.51562 36.4219 4.04688
Q38.625 4.59375 38.625 6.6875
L38.625 30.4219
Q38.625 35.2969 37.2031 38.4531
Q35.7969 41.6094 31.3906 41.6094
Q25.5938 41.6094 21.8438 36.9688
Q18.1094 32.3281 18.1094 26.4219
L18.1094 6.6875
Q18.1094 4.59375 20.3125 4.04688
Q22.5156 3.51562 25.875 3.51562
L25.875 0
z
" id="Cmr10-6d"/>
      <path d="
M15.5781 1.51562
Q15.5781 2.20312 15.7188 2.59375
L26.2188 36.9219
L17.1875 36.9219
Q13.5312 36.9219 10.3438 34.625
Q7.17188 32.3281 5.07812 28.8125
Q4.89062 28.4219 4.5 28.4219
L3.32812 28.4219
Q2.39062 28.4219 2.39062 29.3906
Q2.39062 29.5938 2.59375 29.9844
Q5.85938 35.5469 9.59375 39.3281
Q13.3281 43.1094 18.0156 43.1094
L48.6875 43.1094
Q49.75 43.1094 50.4844 42.375
Q51.2188 41.6562 51.2188 40.5781
Q51.2188 39.1094 50.1719 38.0156
Q49.125 36.9219 47.6094 36.9219
L29.5 36.9219
L22.7969 2.39062
Q22.4062 0.78125 21.3281 -0.265625
Q20.2656 -1.3125 18.6094 -1.3125
Q17.3281 -1.3125 16.4531 -0.5
Q15.5781 0.296875 15.5781 1.51562" id="Cmmi10-bf"/>
      <path d="
M3.07812 0
L3.07812 3.51562
Q13.375 3.51562 13.375 9.42188
L13.375 64.2031
Q10.1094 64.7969 3.07812 64.7969
L3.07812 68.3125
L22.2188 68.3125
Q22.7031 68.3125 22.9062 67.9219
L58.2969 15.8281
L58.2969 58.8906
Q58.2969 64.7969 48 64.7969
L48 68.3125
L71.7812 68.3125
L71.7812 64.7969
Q61.5312 64.7969 61.5312 58.8906
L61.5312 0.875
Q61.5312 0.59375 61.1406 0.296875
Q60.75 0 60.5 0
L59.2812 0
Q58.7969 0 58.5938 0.390625
L16.6094 62.2031
L16.6094 9.42188
Q16.6094 3.51562 26.9062 3.51562
L26.9062 0
z
" id="Cmr10-4e"/>
     </defs>
     <g transform="translate(17.7075 231.48)rotate(-90.0)scale(0.12 -0.12)">
      <use transform="translate(0.0 25.0)" xlink:href="#Cmmi10-bf"/>
      <use transform="translate(43.701171875 25.0)" xlink:href="#Cmr10-5b"/>
      <use transform="translate(71.38671875 25.0)" xlink:href="#Cmr10-4e"/>
      <use transform="translate(146.38671875 25.0)" xlink:href="#Cmr10-6d"/>
      <use transform="translate(229.6875 25.0)" xlink:href="#Cmr10-5d"/>
     </g>
    </g>
   </g>
   <g id="patch_3">
    <path d="
M57.6 43.2
L460.8 43.2" style="fill:none;stroke:#000000;"/>
   </g>
   <g id="patch_4">
    <path d="
M460.8 388.8
L460.8 43.2" style="fill:none;stroke:#000000;"/>
   </g>
   <g id="patch_5">
    <path d="
M57.6 388.8
L460.8 388.8" style="fill:none;stroke:#000000;"/>
   </g>
   <g id="patch_6">
    <path d="
M57.6 388.8
L57.6 43.2" style="fill:none;stroke:#000000;"/>
   </g>
   <g id="text_16">
    <!-- Swing -->
    <defs>
     <path d="
M53.5156 70.5156
L53.5156 60.8906
Q47.9062 63.5781 42.9219 64.8906
Q37.9375 66.2188 33.2969 66.2188
Q25.25 66.2188 20.875 63.0938
Q16.5 59.9688 16.5 54.2031
Q16.5 49.3594 19.4062 46.8906
Q22.3125 44.4375 30.4219 42.9219
L36.375 41.7031
Q47.4062 39.5938 52.6562 34.2969
Q57.9062 29 57.9062 20.125
Q57.9062 9.51562 50.7969 4.04688
Q43.7031 -1.42188 29.9844 -1.42188
Q24.8125 -1.42188 18.9688 -0.25
Q13.1406 0.921875 6.89062 3.21875
L6.89062 13.375
Q12.8906 10.0156 18.6562 8.29688
Q24.4219 6.59375 29.9844 6.59375
Q38.4219 6.59375 43.0156 9.90625
Q47.6094 13.2344 47.6094 19.3906
Q47.6094 24.75 44.3125 27.7812
Q41.0156 30.8125 33.5 32.3281
L27.4844 33.5
Q16.4531 35.6875 11.5156 40.375
Q6.59375 45.0625 6.59375 53.4219
Q6.59375 63.0938 13.4062 68.6562
Q20.2188 74.2188 32.1719 74.2188
Q37.3125 74.2188 42.625 73.2812
Q47.9531 72.3594 53.5156 70.5156" id="DejaVuSans-53"/>
     <path d="
M45.4062 27.9844
Q45.4062 37.75 41.375 43.1094
Q37.3594 48.4844 30.0781 48.4844
Q22.8594 48.4844 18.8281 43.1094
Q14.7969 37.75 14.7969 27.9844
Q14.7969 18.2656 18.8281 12.8906
Q22.8594 7.51562 30.0781 7.51562
Q37.3594 7.51562 41.375 12.8906
Q45.4062 18.2656 45.4062 27.9844
M54.3906 6.78125
Q54.3906 -7.17188 48.1875 -13.9844
Q42 -20.7969 29.2031 -20.7969
Q24.4688 -20.7969 20.2656 -20.0938
Q16.0625 -19.3906 12.1094 -17.9219
L12.1094 -9.1875
Q16.0625 -11.3281 19.9219 -12.3438
Q23.7812 -13.375 27.7812 -13.375
Q36.625 -13.375 41.0156 -8.76562
Q45.4062 -4.15625 45.4062 5.17188
L45.4062 9.625
Q42.625 4.78125 38.2812 2.39062
Q33.9375 0 27.875 0
Q17.8281 0 11.6719 7.65625
Q5.51562 15.3281 5.51562 27.9844
Q5.51562 40.6719 11.6719 48.3281
Q17.8281 56 27.875 56
Q33.9375 56 38.2812 53.6094
Q42.625 51.2188 45.4062 46.3906
L45.4062 54.6875
L54.3906 54.6875
z
" id="DejaVuSans-67"/>
     <path d="
M4.20312 54.6875
L13.1875 54.6875
L24.4219 12.0156
L35.5938 54.6875
L46.1875 54.6875
L57.4219 12.0156
L68.6094 54.6875
L77.5938 54.6875
L63.2812 0
L52.6875 0
L40.9219 44.8281
L29.1094 0
L18.5 0
z
" id="DejaVuSans-77"/>
     <path d="
M54.8906 33.0156
L54.8906 0
L45.9062 0
L45.9062 32.7188
Q45.9062 40.4844 42.875 44.3281
Q39.8438 48.1875 33.7969 48.1875
Q26.5156 48.1875 22.3125 43.5469
Q18.1094 38.9219 18.1094 30.9062
L18.1094 0
L9.07812 0
L9.07812 54.6875
L18.1094 54.6875
L18.1094 46.1875
Q21.3438 51.125 25.7031 53.5625
Q30.0781 56 35.7969 56
Q45.2188 56 50.0469 50.1719
Q54.8906 44.3438 54.8906 33.0156" id="DejaVuSans-6e"/>
     <path d="
M9.42188 54.6875
L18.4062 54.6875
L18.4062 0
L9.42188 0
z

M9.42188 75.9844
L18.4062 75.9844
L18.4062 64.5938
L9.42188 64.5938
z
" id="DejaVuSans-69"/>
    </defs>
    <g transform="translate(171.828795 59.230125)scale(0.12 -0.12)">
     <use xlink:href="#DejaVuSans-53"/>
     <use x="63.4765625" xlink:href="#DejaVuSans-77"/>
     <use x="145.263671875" xlink:href="#DejaVuSans-69"/>
     <use x="173.046875" xlink:href="#DejaVuSans-6e"/>
     <use x="236.42578125" xlink:href="#DejaVuSans-67"/>
    </g>
   </g>
   <g id="text_17">
    <!-- Stance -->
    <defs>
     <path d="
M18.3125 70.2188
L18.3125 54.6875
L36.8125 54.6875
L36.8125 47.7031
L18.3125 47.7031
L18.3125 18.0156
Q18.3125 11.3281 20.1406 9.42188
Q21.9688 7.51562 27.5938 7.51562
L36.8125 7.51562
L36.8125 0
L27.5938 0
Q17.1875 0 13.2344 3.875
Q9.28125 7.76562 9.28125 18.0156
L9.28125 47.7031
L2.6875 47.7031
L2.6875 54.6875
L9.28125 54.6875
L9.28125 70.2188
z
" id="DejaVuSans-74"/>
     <path d="
M56.2031 29.5938
L56.2031 25.2031
L14.8906 25.2031
Q15.4844 15.9219 20.4844 11.0625
Q25.4844 6.20312 34.4219 6.20312
Q39.5938 6.20312 44.4531 7.46875
Q49.3125 8.73438 54.1094 11.2812
L54.1094 2.78125
Q49.2656 0.734375 44.1875 -0.34375
Q39.1094 -1.42188 33.8906 -1.42188
Q20.7969 -1.42188 13.1562 6.1875
Q5.51562 13.8125 5.51562 26.8125
Q5.51562 40.2344 12.7656 48.1094
Q20.0156 56 32.3281 56
Q43.3594 56 49.7812 48.8906
Q56.2031 41.7969 56.2031 29.5938
M47.2188 32.2344
Q47.125 39.5938 43.0938 43.9844
Q39.0625 48.3906 32.4219 48.3906
Q24.9062 48.3906 20.3906 44.1406
Q15.875 39.8906 15.1875 32.1719
z
" id="DejaVuSans-65"/>
     <path d="
M48.7812 52.5938
L48.7812 44.1875
Q44.9688 46.2969 41.1406 47.3438
Q37.3125 48.3906 33.4062 48.3906
Q24.6562 48.3906 19.8125 42.8438
Q14.9844 37.3125 14.9844 27.2969
Q14.9844 17.2812 19.8125 11.7344
Q24.6562 6.20312 33.4062 6.20312
Q37.3125 6.20312 41.1406 7.25
Q44.9688 8.29688 48.7812 10.4062
L48.7812 2.09375
Q45.0156 0.34375 40.9844 -0.53125
Q36.9688 -1.42188 32.4219 -1.42188
Q20.0625 -1.42188 12.7812 6.34375
Q5.51562 14.1094 5.51562 27.2969
Q5.51562 40.6719 12.8594 48.3281
Q20.2188 56 33.0156 56
Q37.1562 56 41.1094 55.1406
Q45.0625 54.2969 48.7812 52.5938" id="DejaVuSans-63"/>
     <path d="
M34.2812 27.4844
Q23.3906 27.4844 19.1875 25
Q14.9844 22.5156 14.9844 16.5
Q14.9844 11.7188 18.1406 8.90625
Q21.2969 6.10938 26.7031 6.10938
Q34.1875 6.10938 38.7031 11.4062
Q43.2188 16.7031 43.2188 25.4844
L43.2188 27.4844
z

M52.2031 31.2031
L52.2031 0
L43.2188 0
L43.2188 8.29688
Q40.1406 3.32812 35.5469 0.953125
Q30.9531 -1.42188 24.3125 -1.42188
Q15.9219 -1.42188 10.9531 3.29688
Q6 8.01562 6 15.9219
Q6 25.1406 12.1719 29.8281
Q18.3594 34.5156 30.6094 34.5156
L43.2188 34.5156
L43.2188 35.4062
Q43.2188 41.6094 39.1406 45
Q35.0625 48.3906 27.6875 48.3906
Q23 48.3906 18.5469 47.2656
Q14.1094 46.1406 10.0156 43.8906
L10.0156 52.2031
Q14.9375 54.1094 19.5781 55.0469
Q24.2188 56 28.6094 56
Q40.4844 56 46.3438 49.8438
Q52.2031 43.7031 52.2031 31.2031" id="DejaVuSans-61"/>
    </defs>
    <g transform="translate(324.72183 59.01825)scale(0.12 -0.12)">
     <use xlink:href="#DejaVuSans-53"/>
     <use x="63.4765625" xlink:href="#DejaVuSans-74"/>
     <use x="102.685546875" xlink:href="#DejaVuSans-61"/>
     <use x="163.96484375" xlink:href="#DejaVuSans-6e"/>
     <use x="227.34375" xlink:href="#DejaVuSans-63"/>
     <use x="282.32421875" xlink:href="#DejaVuSans-65"/>
    </g>
   </g>
   <g id="text_18">
    <!-- Joint torque -->
    <defs>
     <path d="
M9.8125 72.9062
L19.6719 72.9062
L19.6719 5.07812
Q19.6719 -8.10938 14.6719 -14.0625
Q9.67188 -20.0156 -1.42188 -20.0156
L-5.17188 -20.0156
L-5.17188 -11.7188
L-2.09375 -11.7188
Q4.4375 -11.7188 7.125 -8.04688
Q9.8125 -4.39062 9.8125 5.07812
z
" id="DejaVuSans-4a"/>
     <path d="
M30.6094 48.3906
Q23.3906 48.3906 19.1875 42.75
Q14.9844 37.1094 14.9844 27.2969
Q14.9844 17.4844 19.1562 11.8438
Q23.3438 6.20312 30.6094 6.20312
Q37.7969 6.20312 41.9844 11.8594
Q46.1875 17.5312 46.1875 27.2969
Q46.1875 37.0156 41.9844 42.7031
Q37.7969 48.3906 30.6094 48.3906
M30.6094 56
Q42.3281 56 49.0156 48.375
Q55.7188 40.7656 55.7188 27.2969
Q55.7188 13.875 49.0156 6.21875
Q42.3281 -1.42188 30.6094 -1.42188
Q18.8438 -1.42188 12.1719 6.21875
Q5.51562 13.875 5.51562 27.2969
Q5.51562 40.7656 12.1719 48.375
Q18.8438 56 30.6094 56" id="DejaVuSans-6f"/>
     <path id="DejaVuSans-20"/>
     <path d="
M8.5 21.5781
L8.5 54.6875
L17.4844 54.6875
L17.4844 21.9219
Q17.4844 14.1562 20.5 10.2656
Q23.5312 6.39062 29.5938 6.39062
Q36.8594 6.39062 41.0781 11.0312
Q45.3125 15.6719 45.3125 23.6875
L45.3125 54.6875
L54.2969 54.6875
L54.2969 0
L45.3125 0
L45.3125 8.40625
Q42.0469 3.42188 37.7188 1
Q33.4062 -1.42188 27.6875 -1.42188
Q18.2656 -1.42188 13.375 4.4375
Q8.5 10.2969 8.5 21.5781
M31.1094 56
z
" id="DejaVuSans-75"/>
     <path d="
M14.7969 27.2969
Q14.7969 17.3906 18.875 11.75
Q22.9531 6.10938 30.0781 6.10938
Q37.2031 6.10938 41.2969 11.75
Q45.4062 17.3906 45.4062 27.2969
Q45.4062 37.2031 41.2969 42.8438
Q37.2031 48.4844 30.0781 48.4844
Q22.9531 48.4844 18.875 42.8438
Q14.7969 37.2031 14.7969 27.2969
M45.4062 8.20312
Q42.5781 3.32812 38.25 0.953125
Q33.9375 -1.42188 27.875 -1.42188
Q17.9688 -1.42188 11.7344 6.48438
Q5.51562 14.4062 5.51562 27.2969
Q5.51562 40.1875 11.7344 48.0938
Q17.9688 56 27.875 56
Q33.9375 56 38.25 53.625
Q42.5781 51.2656 45.4062 46.3906
L45.4062 54.6875
L54.3906 54.6875
L54.3906 -20.7969
L45.4062 -20.7969
z
" id="DejaVuSans-71"/>
     <path d="
M41.1094 46.2969
Q39.5938 47.1719 37.8125 47.5781
Q36.0312 48 33.8906 48
Q26.2656 48 22.1875 43.0469
Q18.1094 38.0938 18.1094 28.8125
L18.1094 0
L9.07812 0
L9.07812 54.6875
L18.1094 54.6875
L18.1094 46.1875
Q20.9531 51.1719 25.4844 53.5781
Q30.0312 56 36.5312 56
Q37.4531 56 38.5781 55.875
Q39.7031 55.7656 41.0625 55.5156
z
" id="DejaVuSans-72"/>
    </defs>
    <g transform="translate(217.3815 38.2)scale(0.144 -0.144)">
     <use xlink:href="#DejaVuSans-4a"/>
     <use x="29.4921875" xlink:href="#DejaVuSans-6f"/>
     <use x="90.673828125" xlink:href="#DejaVuSans-69"/>
     <use x="118.45703125" xlink:href="#DejaVuSans-6e"/>
     <use x="181.8359375" xlink:href="#DejaVuSans-74"/>
     <use x="221.044921875" xlink:href="#DejaVuSans-20"/>
     <use x="252.83203125" xlink:href="#DejaVuSans-74"/>
     <use x="292.041015625" xlink:href="#DejaVuSans-6f"/>
     <use x="353.22265625" xlink:href="#DejaVuSans-72"/>
     <use x="392.5859375" xlink:href="#DejaVuSans-71"/>
     <use x="456.0625" xlink:href="#DejaVuSans-75"/>
     <use x="519.44140625" xlink:href="#DejaVuSans-65"/>
    </g>
   </g>
   <g id="legend_1">
    <g id="patch_7">
     <path d="
M480.96 171.344
L551.952 171.344
L551.952 43.2
L480.96 43.2
L480.96 171.344
z
" style="fill:#ffffff;stroke:#000000;"/>
    </g>
    <g id="line2d_54">
     <path d="
M491.04 54.8617
L511.2 54.8617" style="fill:none;stroke:#0000ff;"/>
    </g>
    <g id="line2d_55"/>
    <g id="text_19">
     <!-- HZ -->
     <defs>
      <path d="
M5.60938 72.9062
L62.8906 72.9062
L62.8906 65.375
L16.7969 8.29688
L64.0156 8.29688
L64.0156 0
L4.5 0
L4.5 7.51562
L50.5938 64.5938
L5.60938 64.5938
z
" id="DejaVuSans-5a"/>
      <path d="
M9.8125 72.9062
L19.6719 72.9062
L19.6719 43.0156
L55.5156 43.0156
L55.5156 72.9062
L65.375 72.9062
L65.375 0
L55.5156 0
L55.5156 34.7188
L19.6719 34.7188
L19.6719 0
L9.8125 0
z
" id="DejaVuSans-48"/>
     </defs>
     <g transform="translate(527.04 59.90175)scale(0.144 -0.144)">
      <use xlink:href="#DejaVuSans-48"/>
      <use x="75.1953125" xlink:href="#DejaVuSans-5a"/>
     </g>
    </g>
    <g id="line2d_56">
     <path d="
M491.04 75.9983
L511.2 75.9983" style="fill:none;stroke:#008000;"/>
    </g>
    <g id="line2d_57"/>
    <g id="text_20">
     <!-- HY -->
     <defs>
      <path d="
M-0.203125 72.9062
L10.4062 72.9062
L30.6094 42.9219
L50.6875 72.9062
L61.2812 72.9062
L35.5 34.7188
L35.5 0
L25.5938 0
L25.5938 34.7188
z
" id="DejaVuSans-59"/>
     </defs>
     <g transform="translate(527.04 81.03825)scale(0.144 -0.144)">
      <use xlink:href="#DejaVuSans-48"/>
      <use x="75.1953125" xlink:href="#DejaVuSans-59"/>
     </g>
    </g>
    <g id="line2d_58">
     <path d="
M491.04 97.1348
L511.2 97.1348" style="fill:none;stroke:#ff0000;"/>
    </g>
    <g id="line2d_59"/>
    <g id="text_21">
     <!-- HX -->
     <defs>
      <path d="
M6.29688 72.9062
L16.8906 72.9062
L35.0156 45.7969
L53.2188 72.9062
L63.8125 72.9062
L40.375 37.8906
L65.375 0
L54.7812 0
L34.2812 31
L13.625 0
L2.98438 0
L29 38.9219
z
" id="DejaVuSans-58"/>
     </defs>
     <g transform="translate(527.04 102.17475)scale(0.144 -0.144)">
      <use xlink:href="#DejaVuSans-48"/>
      <use x="75.1953125" xlink:href="#DejaVuSans-58"/>
     </g>
    </g>
    <g id="line2d_60">
     <path d="
M491.04 118.271
L511.2 118.271" style="fill:none;stroke:#00bfbf;"/>
    </g>
    <g id="line2d_61"/>
    <g id="text_22">
     <!-- KY -->
     <defs>
      <path d="
M9.8125 72.9062
L19.6719 72.9062
L19.6719 42.0938
L52.3906 72.9062
L65.0938 72.9062
L28.9062 38.9219
L67.6719 0
L54.6875 0
L19.6719 35.1094
L19.6719 0
L9.8125 0
z
" id="DejaVuSans-4b"/>
     </defs>
     <g transform="translate(527.04 123.31125)scale(0.144 -0.144)">
      <use xlink:href="#DejaVuSans-4b"/>
      <use x="61.951171875" xlink:href="#DejaVuSans-59"/>
     </g>
    </g>
    <g id="line2d_62">
     <path d="
M491.04 139.408
L511.2 139.408" style="fill:none;stroke:#bf00bf;"/>
    </g>
    <g id="line2d_63"/>
    <g id="text_23">
     <!-- AY -->
     <defs>
      <path d="
M34.1875 63.1875
L20.7969 26.9062
L47.6094 26.9062
z

M28.6094 72.9062
L39.7969 72.9062
L67.5781 0
L57.3281 0
L50.6875 18.7031
L17.8281 18.7031
L11.1875 0
L0.78125 0
z
" id="DejaVuSans-41"/>
     </defs>
     <g transform="translate(527.04 144.44775)scale(0.144 -0.144)">
      <use xlink:href="#DejaVuSans-41"/>
      <use x="60.658203125" xlink:href="#DejaVuSans-59"/>
     </g>
    </g>
    <g id="line2d_64">
     <path d="
M491.04 160.544
L511.2 160.544" style="fill:none;stroke:#bfbf00;"/>
    </g>
    <g id="line2d_65"/>
    <g id="text_24">
     <!-- AX -->
     <g transform="translate(527.04 165.58425)scale(0.144 -0.144)">
      <use xlink:href="#DejaVuSans-41"/>
      <use x="68.408203125" xlink:href="#DejaVuSans-58"/>
     </g>
    </g>
   </g>
  </g>
 </g>
 <defs>
  <clipPath id="pb89c8edd4c">
   <rect height="345.6" width="403.2" x="57.6" y="43.2"/>
  </clipPath>
 </defs>
</svg>
