<?xml version="1.0" encoding="utf-8" standalone="no"?>
<!DOCTYPE svg PUBLIC "-//W3C//DTD SVG 1.1//EN"
  "http://www.w3.org/Graphics/SVG/1.1/DTD/svg11.dtd">
<!-- Created with matplotlib (http://matplotlib.org/) -->
<svg height="432pt" version="1.1" viewBox="0 0 576 432" width="576pt" xmlns="http://www.w3.org/2000/svg" xmlns:xlink="http://www.w3.org/1999/xlink">
 <defs>
  <style type="text/css">
*{stroke-linecap:square;stroke-linejoin:round;}
  </style>
 </defs>
 <g id="figure_1">
  <g id="patch_1">
   <path d="
M0 432
L576 432
L576 0
L0 0
z
" style="fill:#ffffff;"/>
  </g>
  <g id="axes_1">
   <g id="patch_2">
    <path d="
M57.6 388.8
L460.8 388.8
L460.8 43.2
L57.6 43.2
z
" style="fill:#ffffff;"/>
   </g>
   <g id="line2d_1">
    <path clip-path="url(#pb89c8edd4c)" d="
M57.6806 235.847
L87.1142 235.883
L108.806 235.705
L114.371 235.731
L121.789 235.752
L139.692 235.496
L152.11 235.393
L163.561 235.676
L198.478 236.704
L214.122 236.797
L241.137 236.916
L268.312 237.155
L277.425 236.329
L285.166 235.942
L296.052 235.64
L310.326 235.475
L328.792 235.477
L398.707 235.824
L419.835 235.634
L425.48 235.655
L432.737 235.711
L448.22 235.537
L460.719 235.351
L460.719 235.351" style="fill:none;stroke:#0000ff;"/>
   </g>
   <g id="line2d_2">
    <path clip-path="url(#pb89c8edd4c)" d="
M57.6806 234.2
L77.8406 231.835
L92.8397 229.855
L106.065 227.886
L111.387 227.149
L113 227.617
L118.403 229.442
L126.628 232.48
L135.821 235.851
L157.352 243.65
L167.916 247.38
L175.254 249.738
L181.624 251.556
L187.43 252.986
L192.833 254.088
L197.994 254.916
L203.236 255.529
L208.477 255.919
L213.88 256.097
L219.444 256.054
L225.17 255.787
L233.073 255.157
L242.911 254.148
L253.475 252.847
L261.216 251.642
L267.103 250.764
L268.232 250.808
L269.683 250.617
L271.78 250.1
L275.489 248.921
L283.069 246.507
L288.311 245.096
L294.117 243.769
L300.81 242.474
L308.713 241.179
L318.47 239.818
L330.566 238.386
L365.242 234.59
L386.611 232.123
L401.933 230.135
L415.319 228.175
L422.899 227.084
L424.431 227.529
L429.754 229.335
L437.979 232.386
L446.849 235.647
L460.719 240.651
L460.719 240.651" style="fill:none;stroke:#008000;"/>
   </g>
   <g id="line2d_3">
    <path clip-path="url(#pb89c8edd4c)" d="
M57.6806 238.264
L76.0666 237.717
L96.9523 236.872
L111.064 236.09
L113.322 235.737
L116.79 235.255
L120.419 235.001
L125.338 234.895
L132.595 234.978
L142.836 235.333
L154.771 235.741
L162.674 235.71
L171.222 235.455
L180.737 234.942
L211.864 233.069
L224.605 232.661
L254.604 231.78
L267.587 231.388
L270.893 232.164
L274.683 232.916
L279.521 233.625
L287.988 234.605
L302.262 236.03
L319.68 237.517
L328.067 238.053
L336.534 238.367
L346.211 238.496
L357.823 238.42
L373.144 238.084
L392.337 237.437
L410.964 236.609
L422.899 235.869
L431.286 234.848
L435.963 234.724
L442.817 234.784
L452.494 235.106
L460.719 235.497
L460.719 235.497" style="fill:none;stroke:#ff0000;"/>
   </g>
   <g id="line2d_4">
    <path clip-path="url(#pb89c8edd4c)" d="
M57.6806 234.56
L111.064 235.332
L111.629 234.965
L113.242 233.507
L119.128 228.155
L123.644 224.359
L127.837 221.121
L130.821 219.063
L134.047 217.119
L137.917 215.054
L142.353 212.946
L148.078 210.494
L154.287 208.065
L160.577 205.848
L166.625 203.946
L172.189 202.424
L177.27 201.257
L182.028 200.39
L186.463 199.802
L190.737 199.459
L194.849 199.355
L199.043 199.476
L203.316 199.822
L207.752 200.403
L212.348 201.228
L217.187 202.325
L222.186 203.687
L227.831 205.466
L246.62 211.728
L254.523 214.525
L260.571 216.963
L266.861 219.501
L267.587 219.242
L268.474 219.175
L269.603 219.33
L271.054 219.766
L273.151 220.643
L278.07 223.028
L282.344 224.96
L286.134 226.428
L290.166 227.744
L294.52 228.929
L299.278 229.991
L304.52 230.931
L310.487 231.769
L317.341 232.508
L324.922 233.087
L335.324 233.64
L348.63 234.124
L365.161 234.484
L422.415 235.369
L422.819 235.198
L423.706 234.47
L433.786 225.434
L438.06 222.03
L441.366 219.65
L444.511 217.68
L448.22 215.622
L452.575 213.466
L457.332 211.362
L460.719 209.975
L460.719 209.975" style="fill:none;stroke:#00bfbf;"/>
   </g>
   <g id="line2d_5">
    <path clip-path="url(#pb89c8edd4c)" d="
M57.6806 236.986
L73.728 238.563
L88.4045 240.225
L101.871 241.964
L111.064 243.338
L111.951 243.849
L117.112 247.048
L120.741 248.985
L124.37 250.671
L127.918 252.076
L130.821 253.009
L133.966 253.781
L137.514 254.424
L141.546 254.924
L146.223 255.268
L151.788 255.451
L157.755 255.415
L164.932 255.142
L172.915 254.618
L180.657 253.889
L187.834 252.993
L194.607 251.926
L202.026 250.522
L210.735 248.64
L221.057 246.175
L240.733 241.392
L261.458 236.599
L266.7 235.345
L267.506 235.63
L268.716 235.823
L270.409 235.859
L272.909 235.67
L278.392 234.966
L284.682 234.257
L290.65 233.823
L297.504 233.552
L305.407 233.469
L314.842 233.602
L325.647 233.974
L338.066 234.632
L352.178 235.605
L367.822 236.912
L383.869 238.472
L398.788 240.142
L412.174 241.853
L422.496 243.375
L423.222 243.764
L429.834 247.803
L433.463 249.66
L437.092 251.266
L440.479 252.526
L443.462 253.39
L446.849 254.134
L450.639 254.734
L454.833 255.169
L459.59 255.432
L460.719 255.468
L460.719 255.468" style="fill:none;stroke:#bf00bf;"/>
   </g>
   <g id="line2d_6">
    <path clip-path="url(#pb89c8edd4c)" d="
M57.6806 234.222
L76.2278 234.756
L93.3235 235.466
L108.242 236.303
L115.822 236.681
L120.822 236.618
L127.676 236.298
L136.305 235.665
L160.9 233.707
L168.157 233.527
L175.657 233.566
L184.447 233.844
L223.073 235.34
L257.265 236.26
L267.748 236.558
L274.925 235.934
L285.65 235.278
L301.536 234.526
L317.664 233.984
L329.196 233.811
L343.066 233.845
L361.935 234.114
L380.724 234.602
L398.304 235.279
L413.706 236.086
L428.383 236.865
L433.786 236.745
L440.963 236.355
L450.075 235.626
L460.719 234.6
L460.719 234.6" style="fill:none;stroke:#bfbf00;"/>
   </g>
   <g id="line2d_7">
    <path clip-path="url(#pb89c8edd4c)" d="
M110.984 388.8
L110.984 43.2" style="fill:none;stroke:#000000;stroke-dasharray:6.000000,6.000000;stroke-dashoffset:0.0;stroke-linecap:butt;"/>
   </g>
   <g id="line2d_8">
    <path clip-path="url(#pb89c8edd4c)" d="
M266.78 388.8
L266.78 43.2" style="fill:none;stroke:#000000;stroke-dasharray:6.000000,6.000000;stroke-dashoffset:0.0;stroke-linecap:butt;"/>
   </g>
   <g id="line2d_9">
    <path clip-path="url(#pb89c8edd4c)" d="
M422.496 388.8
L422.496 43.2" style="fill:none;stroke:#000000;stroke-dasharray:6.000000,6.000000;stroke-dashoffset:0.0;stroke-linecap:butt;"/>
   </g>
   <g id="line2d_10">
    <path clip-path="url(#pb89c8edd4c)" d="
M57.6806 236.203
L84.7757 234.751
L96.1459 233.811
L103.484 232.976
L110.742 231.918
L110.822 231.904
L110.903 231.617
L111.064 236.647
L111.145 232.746
L111.306 237.245
L111.548 238.06
L112.355 239.214
L112.838 239.492
L113.322 239.476
L113.887 239.204
L114.774 238.485
L118.241 235.425
L119.773 234.481
L121.386 233.757
L123.16 233.211
L125.257 232.806
L128.724 232.415
L132.353 232.059
L137.514 231.808
L143.643 231.735
L144.449 231.895
L145.74 232.39
L146.949 233.096
L148.078 234.015
L149.449 235.458
L151.949 238.14
L153.723 238.869
L157.352 240.123
L161.142 241.204
L164.448 241.93
L167.674 242.394
L170.738 242.614
L173.883 242.612
L177.108 242.383
L180.657 241.896
L184.85 241.11
L190.172 239.872
L200.172 237.484
L205.252 236.54
L213.396 235.331
L216.864 235.142
L220.493 235.165
L224.364 235.415
L226.541 235.725
L230.008 236.248
L239.685 237.57
L245.975 238.183
L250.007 238.393
L254.523 238.002
L262.506 237.288
L265.893 237.222
L266.619 237.246
L266.7 257.434
L266.78 250.437
L266.941 228.855
L267.425 221.357
L267.909 216.976
L268.393 214.521
L268.796 213.431
L269.199 212.923
L269.522 212.81
L269.925 212.926
L270.409 213.317
L271.215 214.308
L275.892 220.623
L277.586 222.335
L279.441 223.897
L281.537 225.363
L284.198 227.043
L286.376 228.086
L289.359 229.248
L293.23 230.505
L297.746 231.734
L302.746 232.861
L307.745 233.772
L310.568 234.038
L315.648 234.53
L325.083 236.092
L330.324 236.653
L335.647 236.995
L341.211 237.128
L348.549 237.06
L357.178 236.737
L381.047 235.539
L396.611 234.605
L406.287 233.776
L413.626 232.928
L421.206 231.814
L422.335 231.604
L422.415 231.117
L422.496 235.851
L422.577 233.193
L422.738 237.992
L422.98 238.818
L423.786 240.009
L424.27 240.312
L424.754 240.308
L425.318 240.038
L426.205 239.305
L429.834 236.018
L431.286 235.1
L432.899 234.346
L434.673 233.77
L436.769 233.333
L441.688 232.656
L445.559 232.305
L450.962 232.04
L456.526 231.987
L457.897 232.096
L459.026 232.578
L460.155 233.291
L460.719 233.745
L460.719 233.745" style="fill:none;stroke:#000000;"/>
   </g>
   <g id="line2d_11">
    <path clip-path="url(#pb89c8edd4c)" d="
M57.6806 212.667
L64.6963 211.995
L71.3894 211.142
L78.1632 210.054
L85.2595 208.682
L97.3555 205.767
L105.5 203.55
L110.822 201.988
L110.903 202.545
L111.306 270.412
L111.629 286.03
L111.951 292.927
L112.274 296.089
L112.677 297.962
L113.242 299.351
L114.532 301.664
L116.064 303.987
L117.516 305.79
L119.048 307.328
L120.741 308.701
L122.515 309.86
L124.451 310.853
L126.386 311.596
L127.918 311.979
L128.241 311.739
L129.128 310.622
L130.257 309.362
L131.305 308.52
L132.434 307.894
L133.724 307.448
L135.176 307.189
L137.03 307.101
L139.933 307.223
L142.836 307.514
L145.417 308.161
L148.32 308.86
L150.578 309.142
L153.723 309.115
L155.9 308.915
L157.916 308.51
L159.932 307.873
L161.948 306.993
L164.206 305.745
L166.545 304.215
L168.964 302.366
L171.706 299.979
L174.447 297.29
L177.27 294.21
L180.334 290.525
L183.479 286.41
L186.624 281.92
L189.85 276.916
L193.64 270.582
L203.8 253.594
L209.687 244.183
L214.929 236.226
L219.686 229.395
L224.202 223.294
L225.734 221.446
L226.944 220.482
L229.202 219.013
L232.508 217.126
L236.137 215.31
L239.927 213.663
L243.959 212.154
L248.394 210.738
L249.846 210.195
L250.813 209.339
L254.604 205.813
L256.861 204.048
L258.877 202.739
L260.652 201.833
L262.264 201.246
L263.716 200.948
L265.006 200.898
L266.216 201.064
L266.619 201.171
L266.78 209.07
L266.861 276.59
L266.941 273.292
L268.07 230.194
L268.796 211.877
L269.522 199.072
L270.248 189.881
L271.054 182.508
L271.86 177.22
L272.667 173.45
L273.393 171.057
L274.118 169.421
L274.764 168.491
L275.328 168.018
L275.892 167.815
L276.457 167.845
L277.102 168.119
L277.828 168.68
L278.715 169.65
L279.924 171.332
L282.747 175.831
L288.956 186.05
L291.375 189.379
L293.875 192.437
L296.375 195.149
L298.956 197.63
L301.697 199.955
L304.52 202.054
L307.907 204.272
L309.842 205.289
L312.826 206.608
L315.003 207.636
L317.745 209.121
L320.244 210.188
L322.986 211.113
L325.647 211.775
L328.631 212.251
L332.502 212.642
L339.195 213.034
L348.146 213.307
L354.678 213.375
L360.968 213.213
L367.58 212.818
L374.515 212.18
L381.289 211.336
L388.063 210.27
L394.756 208.994
L405.562 206.493
L413.787 204.341
L422.254 201.889
L422.335 201.864
L422.415 202.717
L422.819 269.928
L423.141 286.206
L423.464 293.312
L423.786 296.538
L424.189 298.429
L424.754 299.816
L426.044 302.129
L427.576 304.453
L429.028 306.251
L430.479 307.706
L432.092 309.016
L433.866 310.175
L435.721 311.128
L437.656 311.875
L438.947 312.219
L439.269 312.01
L440.076 311.021
L441.204 309.746
L442.253 308.889
L443.382 308.255
L444.591 307.827
L446.043 307.562
L447.817 307.484
L450.397 307.621
L455.639 307.927
L456.849 308.034
L459.026 308.513
L460.719 308.879
L460.719 308.879" style="fill:none;stroke:#0000ff;"/>
   </g>
   <g id="line2d_12">
    <path clip-path="url(#pb89c8edd4c)" d="
M57.6806 230.429
L64.6963 229.462
L76.1472 228.11
L83.808 227.404
L87.1142 227.138
L91.7107 226.52
L97.5974 225.499
L103.484 224.257
L107.355 223.25
L110.822 222.297
L111.064 220.72
L111.226 212.58
L111.871 204.128
L112.274 201.428
L112.596 200.399
L112.838 200.131
L113.08 200.2
L113.403 200.7
L113.887 202.064
L114.693 205.257
L117.838 218.574
L119.128 222.803
L120.338 226.059
L121.548 228.721
L122.838 231.026
L124.128 232.894
L125.58 234.601
L127.192 236.145
L129.773 238.233
L131.547 239.394
L133.805 240.586
L136.788 241.902
L140.095 243.12
L143.078 243.992
L144.772 244.295
L145.981 244.259
L147.11 244.014
L148.239 243.541
L149.207 242.906
L150.255 241.934
L151.546 240.405
L152.916 238.904
L154.61 237.389
L157.029 235.549
L160.658 233.093
L166.141 229.679
L171.625 226.468
L175.334 224.544
L178.399 223.198
L180.899 222.323
L183.156 221.772
L185.495 221.428
L187.914 221.3
L190.414 221.39
L193.236 221.726
L196.543 222.344
L200.252 223.269
L205.252 224.764
L211.058 226.712
L215.896 228.245
L219.606 229.186
L222.912 229.798
L225.654 230.091
L231.057 230.024
L236.137 229.841
L240.814 229.446
L245.975 228.781
L251.62 228.048
L254.845 227.621
L260.006 226.687
L265.409 225.5
L266.7 225.228
L266.78 228.576
L266.941 262.812
L267.667 275.665
L268.151 280.703
L268.554 283.084
L268.957 284.246
L269.28 284.529
L269.522 284.457
L269.844 284.073
L270.328 283.053
L271.135 280.677
L274.522 269.99
L275.731 267.096
L276.941 264.759
L278.15 262.904
L279.36 261.452
L280.65 260.259
L282.102 259.232
L283.715 258.321
L285.408 257.639
L287.666 256.988
L292.101 255.991
L302.746 253.596
L308.794 252.257
L310.729 252.184
L312.906 252.313
L315.406 252.5
L316.535 252.245
L317.987 251.671
L319.922 250.653
L322.825 248.852
L334.598 241.289
L338.388 239.254
L342.017 237.559
L346.856 235.575
L350.726 234.212
L354.839 233.009
L359.436 231.898
L364.596 230.882
L370.725 229.91
L380.563 228.62
L390.966 227.502
L397.256 226.989
L402.578 226.2
L408.626 225.082
L414.432 223.788
L417.254 222.975
L422.335 221.596
L422.415 220.562
L422.496 220.747
L422.657 212.965
L423.302 204.24
L423.706 201.381
L424.028 200.257
L424.27 199.934
L424.512 199.962
L424.754 200.27
L425.157 201.249
L425.802 203.585
L427.173 209.715
L428.867 216.944
L430.157 221.522
L431.447 225.273
L432.657 228.14
L433.947 230.622
L435.237 232.63
L436.608 234.364
L438.14 235.944
L440.398 237.897
L442.092 239.123
L444.108 240.3
L446.849 241.633
L450.317 243.064
L453.542 244.167
L456.445 244.937
L458.3 245.223
L459.429 245.145
L460.558 244.837
L460.719 244.773
L460.719 244.773" style="fill:none;stroke:#008000;"/>
   </g>
   <g id="line2d_13">
    <path clip-path="url(#pb89c8edd4c)" d="
M57.6806 238.474
L65.0995 238.174
L75.1795 237.988
L83.808 238.006
L88.4045 238.4
L94.2106 238.603
L100.581 238.605
L106.629 238.396
L110.822 237.95
L110.903 237.616
L111.226 125.681
L111.548 82.5074
L111.871 62.8388
L112.193 53.776
L112.516 49.5905
L112.838 47.7054
L113.161 46.9464
L113.403 46.7758
L113.725 46.8541
L114.129 47.2565
L114.774 48.3166
L115.822 50.5468
L117.516 54.7263
L119.935 61.3223
L122.596 69.2125
L125.499 78.5459
L127.918 86.9127
L128.402 89.7163
L131.224 107.574
L132.676 114.852
L134.127 121.028
L135.66 126.619
L137.353 131.962
L139.208 137.075
L141.304 142.198
L142.595 144.909
L144.046 147.376
L145.498 149.346
L147.836 152.091
L150.417 155.187
L154.771 160.897
L163.803 171.987
L166.948 176.269
L169.932 180.726
L172.754 185.328
L175.657 190.492
L178.641 196.252
L181.786 202.82
L184.931 209.923
L188.156 217.764
L191.462 226.4
L196.946 240.947
L200.978 250.96
L205.01 260.378
L208.961 269.055
L212.913 277.201
L216.945 285.014
L221.057 292.498
L225.089 299.388
L225.654 300.097
L226.38 300.613
L227.347 300.996
L228.879 301.336
L232.186 301.79
L247.83 303.771
L249.604 304.125
L250.088 304.668
L250.975 306.138
L254.845 312.922
L256.62 315.482
L258.152 317.326
L259.523 318.648
L260.732 319.524
L261.861 320.067
L262.829 320.295
L263.716 320.291
L264.603 320.062
L265.49 319.583
L266.377 318.828
L266.619 318.571
L266.7 287.857
L266.78 290.947
L266.861 123.248
L266.941 132.472
L267.587 190.369
L268.232 229.254
L268.957 259.7
L269.683 281.339
L270.409 297.161
L271.215 309.948
L272.022 319.105
L272.748 325.021
L273.473 329.212
L274.118 331.762
L274.683 333.237
L275.247 334.113
L275.731 334.453
L276.134 334.483
L276.538 334.309
L277.021 333.865
L277.667 332.932
L278.473 331.318
L279.521 328.668
L280.973 324.339
L283.15 317.108
L286.134 307.111
L288.392 300.342
L290.73 294.029
L293.069 288.345
L295.488 283.047
L297.907 278.27
L300.407 273.815
L302.988 269.673
L305.568 265.947
L307.907 262.922
L309.761 260.953
L312.584 258.25
L314.761 256.219
L317.341 253.594
L319.599 251.685
L322.099 249.86
L324.68 248.247
L326.776 247.175
L329.679 245.989
L332.824 244.936
L338.227 243.433
L344.195 241.994
L352.984 240.101
L357.742 239.387
L362.903 238.84
L368.87 238.439
L376.531 238.165
L387.418 238.018
L392.498 238.089
L396.852 238.464
L402.578 238.675
L408.868 238.688
L415.077 238.485
L417.174 238.183
L420.238 237.854
L422.335 237.721
L422.415 237.228
L422.738 126.039
L423.06 81.8993
L423.383 61.9848
L423.706 52.8794
L424.028 48.7055
L424.351 46.8409
L424.673 46.0998
L424.915 45.9398
L425.238 46.0292
L425.641 46.4363
L426.286 47.5047
L427.334 49.7552
L429.028 53.9744
L431.447 60.6375
L434.189 68.8572
L437.092 78.2921
L439.027 85.0967
L439.592 88.5159
L441.93 103.53
L443.382 111.131
L444.833 117.569
L446.365 123.38
L448.059 128.908
L449.914 134.174
L452.01 139.443
L454.51 145.101
L456.526 149.214
L457.816 151.18
L459.187 152.809
L460.719 154.434
L460.719 154.434" style="fill:none;stroke:#ff0000;"/>
   </g>
   <g id="line2d_14">
    <path clip-path="url(#pb89c8edd4c)" d="
M57.6806 253.598
L71.712 256.095
L79.8566 257.782
L85.9853 259.034
L90.9043 260.107
L96.8717 261.633
L102.758 263.367
L107.274 264.901
L110.903 266.346
L111.145 326.382
L111.468 351.612
L111.79 361.731
L112.113 365.789
L112.355 366.921
L112.596 367.184
L112.758 367.064
L113.08 366.397
L113.645 364.528
L114.935 359.234
L118.322 345.339
L123.483 325.466
L128.079 307.453
L129.289 300.564
L131.063 291.018
L132.676 283.525
L134.369 276.672
L136.224 270.105
L138.159 264.063
L140.256 258.241
L142.272 253.254
L143.885 249.923
L145.498 247.118
L147.594 243.931
L154.207 234.597
L156.384 232.103
L158.723 229.757
L161.222 227.561
L163.884 225.527
L169.528 221.579
L174.77 217.82
L179.608 214.071
L183.318 210.924
L187.753 206.863
L192.269 202.426
L195.414 199.442
L198.317 196.998
L201.3 194.781
L204.445 192.725
L207.832 190.784
L211.38 189.009
L215.493 187.204
L220.332 185.328
L225.331 183.605
L225.976 183.651
L226.944 183.971
L229.041 184.958
L233.718 187.149
L237.105 188.477
L240.492 189.566
L243.959 190.444
L247.507 191.113
L249.604 191.352
L250.168 191.063
L251.217 190.195
L254.604 187.278
L256.539 185.945
L258.232 185.043
L259.764 184.47
L261.135 184.182
L262.426 184.131
L263.635 184.305
L264.764 184.688
L265.893 185.313
L266.619 185.857
L266.7 336.485
L266.78 333.348
L267.022 311.963
L267.587 284.337
L268.232 264.3
L268.957 248.824
L269.683 237.681
L270.49 228.601
L271.296 221.994
L272.102 217.171
L272.909 213.687
L273.635 211.445
L274.36 209.881
L275.005 208.959
L275.651 208.402
L276.296 208.15
L276.941 208.15
L277.667 208.395
L278.473 208.909
L279.521 209.859
L280.973 211.519
L282.666 213.784
L286.537 219.166
L288.956 222.087
L291.537 224.855
L294.278 227.467
L297.181 229.929
L300.326 232.307
L303.713 234.591
L307.261 236.722
L309.439 237.789
L313.229 239.403
L315.89 240.504
L318.954 241.702
L326.454 244.324
L331.776 245.902
L337.905 247.455
L345.807 249.255
L355.162 251.17
L365.484 252.999
L382.74 256.041
L390.724 257.699
L393.385 258.185
L397.82 259.057
L403.707 260.445
L409.594 262.06
L415.158 263.813
L422.335 266.556
L422.415 266.668
L422.657 325.994
L422.98 351.97
L423.302 362.195
L423.625 366.255
L423.867 367.373
L424.109 367.621
L424.27 367.491
L424.593 366.809
L425.157 364.919
L426.447 359.589
L429.834 345.608
L434.753 326.579
L439.188 309.084
L440.801 299.872
L442.495 291.041
L444.188 283.405
L445.962 276.447
L447.817 270.064
L449.833 263.917
L452.01 257.985
L454.349 252.248
L456.445 247.617
L457.897 245.018
L459.51 242.625
L460.719 241.004
L460.719 241.004" style="fill:none;stroke:#00bfbf;"/>
   </g>
   <g id="line2d_15">
    <path clip-path="url(#pb89c8edd4c)" d="
M57.6806 239.777
L73.4861 241.873
L87.1142 243.907
L95.4202 245.398
L103.726 247.105
L110.822 248.769
L110.903 248.873
L110.984 248.058
L111.064 248.195
L111.145 250.807
L111.226 248.078
L111.306 248.488
L111.548 248.189
L111.951 247.52
L112.677 245.691
L115.661 237.632
L117.032 234.755
L118.403 232.399
L119.935 230.222
L121.548 228.309
L123.402 226.452
L125.58 224.593
L128.16 222.691
L130.902 220.934
L133.644 219.472
L136.547 218.172
L139.369 217.146
L142.03 216.409
L144.288 216.002
L145.82 215.947
L147.191 216.108
L148.481 216.478
L149.449 216.964
L150.497 217.735
L152.594 219.684
L157.19 223.81
L165.174 230.712
L171.302 235.789
L174.931 238.515
L177.915 240.489
L180.495 241.945
L182.753 242.956
L185.011 243.727
L187.35 244.289
L189.769 244.642
L192.349 244.795
L195.252 244.736
L198.478 244.442
L202.429 243.845
L207.832 242.786
L217.428 240.754
L221.622 240.132
L225.251 239.81
L230.653 239.656
L234.927 239.754
L239.443 240.084
L244.282 240.663
L249.765 241.553
L254.765 242.516
L263.555 244.42
L266.619 245.15
L266.861 207.258
L266.941 208.954
L267.264 212.756
L267.587 214.146
L267.909 214.66
L268.474 215.036
L269.361 215.676
L270.651 216.969
L272.909 219.206
L274.441 220.402
L276.054 221.378
L277.908 222.223
L280.086 222.965
L282.989 223.699
L287.101 224.495
L304.6 227.524
L311.858 228.762
L319.035 230.656
L326.776 233.299
L331.131 234.627
L335.002 235.574
L339.034 236.329
L343.791 236.978
L388.305 242.756
L399.11 244.456
L407.9 246.111
L415.722 247.802
L422.335 249.406
L422.415 249.711
L422.496 248.296
L422.577 251.34
L422.657 248.397
L422.738 248.864
L422.98 248.577
L423.302 248.079
L423.867 246.726
L427.899 235.974
L429.27 233.349
L430.641 231.193
L432.173 229.178
L433.947 227.222
L435.963 225.34
L438.382 223.4
L441.204 221.432
L443.785 219.911
L446.769 218.413
L449.752 217.163
L452.494 216.244
L455.075 215.609
L457.413 215.246
L459.348 215.25
L460.639 215.489
L460.719 215.511
L460.719 215.511" style="fill:none;stroke:#bf00bf;"/>
   </g>
   <g id="line2d_16">
    <path clip-path="url(#pb89c8edd4c)" d="
M110.984 388.8
L110.984 43.2" style="fill:none;stroke:#000000;stroke-dasharray:6.000000,6.000000;stroke-dashoffset:0.0;stroke-linecap:butt;"/>
   </g>
   <g id="line2d_17">
    <path clip-path="url(#pb89c8edd4c)" d="
M266.78 388.8
L266.78 43.2" style="fill:none;stroke:#000000;stroke-dasharray:6.000000,6.000000;stroke-dashoffset:0.0;stroke-linecap:butt;"/>
   </g>
   <g id="line2d_18">
    <path clip-path="url(#pb89c8edd4c)" d="
M422.496 388.8
L422.496 43.2" style="fill:none;stroke:#000000;stroke-dasharray:6.000000,6.000000;stroke-dashoffset:0.0;stroke-linecap:butt;"/>
   </g>
   <g id="matplotlib.axis_1">
    <g id="xtick_1">
     <g id="line2d_19">
      <defs>
       <path d="
M0 0
L0 -4" id="mcb557df647" style="stroke:#000000;stroke-linecap:butt;stroke-width:0.5;"/>
      </defs>
      <g>
       <use style="stroke:#000000;stroke-linecap:butt;stroke-width:0.5;" x="57.6" xlink:href="#mcb557df647" y="388.8"/>
      </g>
     </g>
     <g id="line2d_20">
      <defs>
       <path d="
M0 0
L0 4" id="mdad270ee8e" style="stroke:#000000;stroke-linecap:butt;stroke-width:0.5;"/>
      </defs>
      <g>
       <use style="stroke:#000000;stroke-linecap:butt;stroke-width:0.5;" x="57.6" xlink:href="#mdad270ee8e" y="43.2"/>
      </g>
     </g>
     <g id="text_1">
      <!-- 3.5 -->
      <defs>
       <path d="
M40.5781 39.3125
Q47.6562 37.7969 51.625 33
Q55.6094 28.2188 55.6094 21.1875
Q55.6094 10.4062 48.1875 4.48438
Q40.7656 -1.42188 27.0938 -1.42188
Q22.5156 -1.42188 17.6562 -0.515625
Q12.7969 0.390625 7.625 2.20312
L7.625 11.7188
Q11.7188 9.32812 16.5938 8.10938
Q21.4844 6.89062 26.8125 6.89062
Q36.0781 6.89062 40.9375 10.5469
Q45.7969 14.2031 45.7969 21.1875
Q45.7969 27.6406 41.2812 31.2656
Q36.7656 34.9062 28.7188 34.9062
L20.2188 34.9062
L20.2188 43.0156
L29.1094 43.0156
Q36.375 43.0156 40.2344 45.9219
Q44.0938 48.8281 44.0938 54.2969
Q44.0938 59.9062 40.1094 62.9062
Q36.1406 65.9219 28.7188 65.9219
Q24.6562 65.9219 20.0156 65.0312
Q15.375 64.1562 9.8125 62.3125
L9.8125 71.0938
Q15.4375 72.6562 20.3438 73.4375
Q25.25 74.2188 29.5938 74.2188
Q40.8281 74.2188 47.3594 69.1094
Q53.9062 64.0156 53.9062 55.3281
Q53.9062 49.2656 50.4375 45.0938
Q46.9688 40.9219 40.5781 39.3125" id="DejaVuSans-33"/>
       <path d="
M10.7969 72.9062
L49.5156 72.9062
L49.5156 64.5938
L19.8281 64.5938
L19.8281 46.7344
Q21.9688 47.4688 24.1094 47.8281
Q26.2656 48.1875 28.4219 48.1875
Q40.625 48.1875 47.75 41.5
Q54.8906 34.8125 54.8906 23.3906
Q54.8906 11.625 47.5625 5.09375
Q40.2344 -1.42188 26.9062 -1.42188
Q22.3125 -1.42188 17.5469 -0.640625
Q12.7969 0.140625 7.71875 1.70312
L7.71875 11.625
Q12.1094 9.23438 16.7969 8.0625
Q21.4844 6.89062 26.7031 6.89062
Q35.1562 6.89062 40.0781 11.3281
Q45.0156 15.7656 45.0156 23.3906
Q45.0156 31 40.0781 35.4375
Q35.1562 39.8906 26.7031 39.8906
Q22.75 39.8906 18.8125 39.0156
Q14.8906 38.1406 10.7969 36.2812
z
" id="DejaVuSans-35"/>
       <path d="
M10.6875 12.4062
L21 12.4062
L21 0
L10.6875 0
z
" id="DejaVuSans-2e"/>
      </defs>
      <g transform="translate(49.0396875 401.70625)scale(0.12 -0.12)">
       <use xlink:href="#DejaVuSans-33"/>
       <use x="63.623046875" xlink:href="#DejaVuSans-2e"/>
       <use x="95.41015625" xlink:href="#DejaVuSans-35"/>
      </g>
     </g>
    </g>
    <g id="xtick_2">
     <g id="line2d_21">
      <g>
       <use style="stroke:#000000;stroke-linecap:butt;stroke-width:0.5;" x="158.4" xlink:href="#mcb557df647" y="388.8"/>
      </g>
     </g>
     <g id="line2d_22">
      <g>
       <use style="stroke:#000000;stroke-linecap:butt;stroke-width:0.5;" x="158.4" xlink:href="#mdad270ee8e" y="43.2"/>
      </g>
     </g>
     <g id="text_2">
      <!-- 4.0 -->
      <defs>
       <path d="
M31.7812 66.4062
Q24.1719 66.4062 20.3281 58.9062
Q16.5 51.4219 16.5 36.375
Q16.5 21.3906 20.3281 13.8906
Q24.1719 6.39062 31.7812 6.39062
Q39.4531 6.39062 43.2812 13.8906
Q47.125 21.3906 47.125 36.375
Q47.125 51.4219 43.2812 58.9062
Q39.4531 66.4062 31.7812 66.4062
M31.7812 74.2188
Q44.0469 74.2188 50.5156 64.5156
Q56.9844 54.8281 56.9844 36.375
Q56.9844 17.9688 50.5156 8.26562
Q44.0469 -1.42188 31.7812 -1.42188
Q19.5312 -1.42188 13.0625 8.26562
Q6.59375 17.9688 6.59375 36.375
Q6.59375 54.8281 13.0625 64.5156
Q19.5312 74.2188 31.7812 74.2188" id="DejaVuSans-30"/>
       <path d="
M37.7969 64.3125
L12.8906 25.3906
L37.7969 25.3906
z

M35.2031 72.9062
L47.6094 72.9062
L47.6094 25.3906
L58.0156 25.3906
L58.0156 17.1875
L47.6094 17.1875
L47.6094 0
L37.7969 0
L37.7969 17.1875
L4.89062 17.1875
L4.89062 26.7031
z
" id="DejaVuSans-34"/>
      </defs>
      <g transform="translate(149.55 401.70625)scale(0.12 -0.12)">
       <use xlink:href="#DejaVuSans-34"/>
       <use x="63.623046875" xlink:href="#DejaVuSans-2e"/>
       <use x="95.41015625" xlink:href="#DejaVuSans-30"/>
      </g>
     </g>
    </g>
    <g id="xtick_3">
     <g id="line2d_23">
      <g>
       <use style="stroke:#000000;stroke-linecap:butt;stroke-width:0.5;" x="259.2" xlink:href="#mcb557df647" y="388.8"/>
      </g>
     </g>
     <g id="line2d_24">
      <g>
       <use style="stroke:#000000;stroke-linecap:butt;stroke-width:0.5;" x="259.2" xlink:href="#mdad270ee8e" y="43.2"/>
      </g>
     </g>
     <g id="text_3">
      <!-- 4.5 -->
      <g transform="translate(250.475625 401.54875)scale(0.12 -0.12)">
       <use xlink:href="#DejaVuSans-34"/>
       <use x="63.623046875" xlink:href="#DejaVuSans-2e"/>
       <use x="95.41015625" xlink:href="#DejaVuSans-35"/>
      </g>
     </g>
    </g>
    <g id="xtick_4">
     <g id="line2d_25">
      <g>
       <use style="stroke:#000000;stroke-linecap:butt;stroke-width:0.5;" x="360.0" xlink:href="#mcb557df647" y="388.8"/>
      </g>
     </g>
     <g id="line2d_26">
      <g>
       <use style="stroke:#000000;stroke-linecap:butt;stroke-width:0.5;" x="360.0" xlink:href="#mdad270ee8e" y="43.2"/>
      </g>
     </g>
     <g id="text_4">
      <!-- 5.0 -->
      <g transform="translate(351.3196875 401.70625)scale(0.12 -0.12)">
       <use xlink:href="#DejaVuSans-35"/>
       <use x="63.623046875" xlink:href="#DejaVuSans-2e"/>
       <use x="95.41015625" xlink:href="#DejaVuSans-30"/>
      </g>
     </g>
    </g>
    <g id="xtick_5">
     <g id="line2d_27">
      <g>
       <use style="stroke:#000000;stroke-linecap:butt;stroke-width:0.5;" x="460.8" xlink:href="#mcb557df647" y="388.8"/>
      </g>
     </g>
     <g id="line2d_28">
      <g>
       <use style="stroke:#000000;stroke-linecap:butt;stroke-width:0.5;" x="460.8" xlink:href="#mdad270ee8e" y="43.2"/>
      </g>
     </g>
     <g id="text_5">
      <!-- 5.5 -->
      <g transform="translate(452.2453125 401.54875)scale(0.12 -0.12)">
       <use xlink:href="#DejaVuSans-35"/>
       <use x="63.623046875" xlink:href="#DejaVuSans-2e"/>
       <use x="95.41015625" xlink:href="#DejaVuSans-35"/>
      </g>
     </g>
    </g>
    <g id="text_6">
     <!-- $t [\mathrm{s}]$ -->
     <defs>
      <path d="
M2.20312 -25
L2.20312 -21
L11.9219 -21
L11.9219 71
L2.20312 71
L2.20312 75
L15.9219 75
L15.9219 -25
z
" id="Cmr10-5d"/>
      <path d="
M3.32812 -0.296875
L3.32812 16.0156
Q3.32812 16.7969 4.20312 16.7969
L5.42188 16.7969
Q6 16.7969 6.20312 16.0156
Q8.98438 1.51562 19.6719 1.51562
Q24.4219 1.51562 27.6094 3.65625
Q30.8125 5.8125 30.8125 10.2969
Q30.8125 13.5312 28.3125 15.7969
Q25.8281 18.0625 22.4062 18.8906
L15.7188 20.2188
Q12.3594 20.9531 9.59375 22.4531
Q6.84375 23.9688 5.07812 26.4844
Q3.32812 29 3.32812 32.3281
Q3.32812 36.7188 5.64062 39.5156
Q7.95312 42.3281 11.6562 43.5781
Q15.375 44.8281 19.6719 44.8281
Q24.8125 44.8281 28.6094 42.0938
L31.5 44.5781
Q31.5 44.8281 31.9844 44.8281
L32.7188 44.8281
Q33.0156 44.8281 33.25 44.5469
Q33.5 44.2812 33.5 44
L33.5 30.9062
Q33.5 29.9844 32.7188 29.9844
L31.5 29.9844
Q30.6094 29.9844 30.6094 30.9062
Q30.6094 36.1406 27.7031 39.3125
Q24.8125 42.4844 19.5781 42.4844
Q15.0938 42.4844 11.7969 40.8125
Q8.5 39.1562 8.5 35.1094
Q8.5 32.3281 10.8594 30.5469
Q13.2344 28.7656 16.4062 27.9844
L23.1875 26.7031
Q26.6094 25.9219 29.5625 24.0625
Q32.5156 22.2188 34.25 19.375
Q35.9844 16.5469 35.9844 12.9844
Q35.9844 9.375 34.7344 6.70312
Q33.5 4.04688 31.2656 2.28125
Q29.0469 0.53125 26.0156 -0.296875
Q23 -1.125 19.6719 -1.125
Q13.4219 -1.125 8.98438 3.07812
L5.32812 -0.875
Q5.32812 -1.125 4.78125 -1.125
L4.20312 -1.125
Q3.32812 -1.125 3.32812 -0.296875" id="Cmr10-73"/>
      <path d="
M6.20312 8.10938
Q6.20312 9.57812 6.5 10.8906
L13.7188 39.5938
L3.21875 39.5938
Q2.20312 39.5938 2.20312 40.9219
Q2.59375 43.1094 3.51562 43.1094
L14.5938 43.1094
L18.6094 59.4219
Q19 60.75 20.1719 61.6719
Q21.3438 62.5938 22.7969 62.5938
Q24.0781 62.5938 24.9219 61.8281
Q25.7812 61.0781 25.7812 59.8125
Q25.7812 59.5156 25.75 59.3438
Q25.7344 59.1875 25.6875 58.9844
L21.6875 43.1094
L31.9844 43.1094
Q33.0156 43.1094 33.0156 41.7969
Q32.9531 41.5469 32.8125 40.9531
Q32.6719 40.375 32.4219 39.9844
Q32.1719 39.5938 31.6875 39.5938
L20.7969 39.5938
L13.625 10.6875
Q12.8906 7.85938 12.8906 5.8125
Q12.8906 1.51562 15.8281 1.51562
Q20.2188 1.51562 23.6094 5.64062
Q27 9.76562 28.8125 14.7031
Q29.2031 15.2812 29.5938 15.2812
L30.8125 15.2812
Q31.2031 15.2812 31.4375 15.0156
Q31.6875 14.75 31.6875 14.4062
Q31.6875 14.2031 31.5938 14.1094
Q29.3906 8.0625 25.1875 3.46875
Q21 -1.125 15.5781 -1.125
Q11.625 -1.125 8.90625 1.45312
Q6.20312 4.04688 6.20312 8.10938" id="Cmmi10-74"/>
      <path d="
M11.8125 -25
L11.8125 75
L25.4844 75
L25.4844 71
L15.8281 71
L15.8281 -21
L25.4844 -21
L25.4844 -25
z
" id="Cmr10-5b"/>
     </defs>
     <g transform="translate(251.34 418.876875)scale(0.12 -0.12)">
      <use transform="translate(0.0 25.0)" xlink:href="#Cmmi10-74"/>
      <use transform="translate(36.083984375 25.0)" xlink:href="#Cmr10-5b"/>
      <use transform="translate(63.76953125 25.0)" xlink:href="#Cmr10-73"/>
      <use transform="translate(103.173828125 25.0)" xlink:href="#Cmr10-5d"/>
     </g>
    </g>
   </g>
   <g id="matplotlib.axis_2">
    <g id="ytick_1">
     <g id="line2d_29">
      <defs>
       <path d="
M0 0
L4 0" id="mc8fcea1516" style="stroke:#000000;stroke-linecap:butt;stroke-width:0.5;"/>
      </defs>
      <g>
       <use style="stroke:#000000;stroke-linecap:butt;stroke-width:0.5;" x="57.6" xlink:href="#mc8fcea1516" y="388.8"/>
      </g>
     </g>
     <g id="line2d_30">
      <defs>
       <path d="
M0 0
L-4 0" id="m0d5b0a6425" style="stroke:#000000;stroke-linecap:butt;stroke-width:0.5;"/>
      </defs>
      <g>
       <use style="stroke:#000000;stroke-linecap:butt;stroke-width:0.5;" x="460.8" xlink:href="#m0d5b0a6425" y="388.8"/>
      </g>
     </g>
     <g id="text_7">
      <!-- −4 -->
      <defs>
       <path d="
M10.5938 35.5
L73.1875 35.5
L73.1875 27.2031
L10.5938 27.2031
z
" id="DejaVuSans-2212"/>
      </defs>
      <g transform="translate(37.85375 393.174375)scale(0.12 -0.12)">
       <use xlink:href="#DejaVuSans-2212"/>
       <use x="83.7890625" xlink:href="#DejaVuSans-34"/>
      </g>
     </g>
    </g>
    <g id="ytick_2">
     <g id="line2d_31">
      <g>
       <use style="stroke:#000000;stroke-linecap:butt;stroke-width:0.5;" x="57.6" xlink:href="#mc8fcea1516" y="350.4"/>
      </g>
     </g>
     <g id="line2d_32">
      <g>
       <use style="stroke:#000000;stroke-linecap:butt;stroke-width:0.5;" x="460.8" xlink:href="#m0d5b0a6425" y="350.4"/>
      </g>
     </g>
     <g id="text_8">
      <!-- −3 -->
      <g transform="translate(38.1425 354.7678125)scale(0.12 -0.12)">
       <use xlink:href="#DejaVuSans-2212"/>
       <use x="83.7890625" xlink:href="#DejaVuSans-33"/>
      </g>
     </g>
    </g>
    <g id="ytick_3">
     <g id="line2d_33">
      <g>
       <use style="stroke:#000000;stroke-linecap:butt;stroke-width:0.5;" x="57.6" xlink:href="#mc8fcea1516" y="312.0"/>
      </g>
     </g>
     <g id="line2d_34">
      <g>
       <use style="stroke:#000000;stroke-linecap:butt;stroke-width:0.5;" x="460.8" xlink:href="#m0d5b0a6425" y="312.0"/>
      </g>
     </g>
     <g id="text_9">
      <!-- −2 -->
      <defs>
       <path d="
M19.1875 8.29688
L53.6094 8.29688
L53.6094 0
L7.32812 0
L7.32812 8.29688
Q12.9375 14.1094 22.625 23.8906
Q32.3281 33.6875 34.8125 36.5312
Q39.5469 41.8438 41.4219 45.5312
Q43.3125 49.2188 43.3125 52.7812
Q43.3125 58.5938 39.2344 62.25
Q35.1562 65.9219 28.6094 65.9219
Q23.9688 65.9219 18.8125 64.3125
Q13.6719 62.7031 7.8125 59.4219
L7.8125 69.3906
Q13.7656 71.7812 18.9375 73
Q24.125 74.2188 28.4219 74.2188
Q39.75 74.2188 46.4844 68.5469
Q53.2188 62.8906 53.2188 53.4219
Q53.2188 48.9219 51.5312 44.8906
Q49.8594 40.875 45.4062 35.4062
Q44.1875 33.9844 37.6406 27.2188
Q31.1094 20.4531 19.1875 8.29688" id="DejaVuSans-32"/>
      </defs>
      <g transform="translate(38.3825 316.453125)scale(0.12 -0.12)">
       <use xlink:href="#DejaVuSans-2212"/>
       <use x="83.7890625" xlink:href="#DejaVuSans-32"/>
      </g>
     </g>
    </g>
    <g id="ytick_4">
     <g id="line2d_35">
      <g>
       <use style="stroke:#000000;stroke-linecap:butt;stroke-width:0.5;" x="57.6" xlink:href="#mc8fcea1516" y="273.6"/>
      </g>
     </g>
     <g id="line2d_36">
      <g>
       <use style="stroke:#000000;stroke-linecap:butt;stroke-width:0.5;" x="460.8" xlink:href="#m0d5b0a6425" y="273.6"/>
      </g>
     </g>
     <g id="text_10">
      <!-- −1 -->
      <defs>
       <path d="
M12.4062 8.29688
L28.5156 8.29688
L28.5156 63.9219
L10.9844 60.4062
L10.9844 69.3906
L28.4219 72.9062
L38.2812 72.9062
L38.2812 8.29688
L54.3906 8.29688
L54.3906 0
L12.4062 0
z
" id="DejaVuSans-31"/>
      </defs>
      <g transform="translate(38.28875 277.974375)scale(0.12 -0.12)">
       <use xlink:href="#DejaVuSans-2212"/>
       <use x="83.7890625" xlink:href="#DejaVuSans-31"/>
      </g>
     </g>
    </g>
    <g id="ytick_5">
     <g id="line2d_37">
      <g>
       <use style="stroke:#000000;stroke-linecap:butt;stroke-width:0.5;" x="57.6" xlink:href="#mc8fcea1516" y="235.2"/>
      </g>
     </g>
     <g id="line2d_38">
      <g>
       <use style="stroke:#000000;stroke-linecap:butt;stroke-width:0.5;" x="460.8" xlink:href="#m0d5b0a6425" y="235.2"/>
      </g>
     </g>
     <g id="text_11">
      <!-- 0 -->
      <g transform="translate(47.553125 239.5678125)scale(0.12 -0.12)">
       <use xlink:href="#DejaVuSans-30"/>
      </g>
     </g>
    </g>
    <g id="ytick_6">
     <g id="line2d_39">
      <g>
       <use style="stroke:#000000;stroke-linecap:butt;stroke-width:0.5;" x="57.6" xlink:href="#mc8fcea1516" y="196.8"/>
      </g>
     </g>
     <g id="line2d_40">
      <g>
       <use style="stroke:#000000;stroke-linecap:butt;stroke-width:0.5;" x="460.8" xlink:href="#m0d5b0a6425" y="196.8"/>
      </g>
     </g>
     <g id="text_12">
      <!-- 1 -->
      <g transform="translate(48.39125 201.174375)scale(0.12 -0.12)">
       <use xlink:href="#DejaVuSans-31"/>
      </g>
     </g>
    </g>
    <g id="ytick_7">
     <g id="line2d_41">
      <g>
       <use style="stroke:#000000;stroke-linecap:butt;stroke-width:0.5;" x="57.6" xlink:href="#mc8fcea1516" y="158.4"/>
      </g>
     </g>
     <g id="line2d_42">
      <g>
       <use style="stroke:#000000;stroke-linecap:butt;stroke-width:0.5;" x="460.8" xlink:href="#m0d5b0a6425" y="158.4"/>
      </g>
     </g>
     <g id="text_13">
      <!-- 2 -->
      <g transform="translate(48.04625 162.853125)scale(0.12 -0.12)">
       <use xlink:href="#DejaVuSans-32"/>
      </g>
     </g>
    </g>
    <g id="ytick_8">
     <g id="line2d_43">
      <g>
       <use style="stroke:#000000;stroke-linecap:butt;stroke-width:0.5;" x="57.6" xlink:href="#mc8fcea1516" y="120.0"/>
      </g>
     </g>
     <g id="line2d_44">
      <g>
       <use style="stroke:#000000;stroke-linecap:butt;stroke-width:0.5;" x="460.8" xlink:href="#m0d5b0a6425" y="120.0"/>
      </g>
     </g>
     <g id="text_14">
      <!-- 3 -->
      <g transform="translate(47.841875 124.3678125)scale(0.12 -0.12)">
       <use xlink:href="#DejaVuSans-33"/>
      </g>
     </g>
    </g>
    <g id="ytick_9">
     <g id="line2d_45">
      <g>
       <use style="stroke:#000000;stroke-linecap:butt;stroke-width:0.5;" x="57.6" xlink:href="#mc8fcea1516" y="81.6"/>
      </g>
     </g>
     <g id="line2d_46">
      <g>
       <use style="stroke:#000000;stroke-linecap:butt;stroke-width:0.5;" x="460.8" xlink:href="#m0d5b0a6425" y="81.6"/>
      </g>
     </g>
     <g id="text_15">
      <!-- 4 -->
      <g transform="translate(47.225 85.974375)scale(0.12 -0.12)">
       <use xlink:href="#DejaVuSans-34"/>
      </g>
     </g>
    </g>
    <g id="ytick_10">
     <g id="line2d_47">
      <g>
       <use style="stroke:#000000;stroke-linecap:butt;stroke-width:0.5;" x="57.6" xlink:href="#mc8fcea1516" y="43.2"/>
      </g>
     </g>
     <g id="line2d_48">
      <g>
       <use style="stroke:#000000;stroke-linecap:butt;stroke-width:0.5;" x="460.8" xlink:href="#m0d5b0a6425" y="43.2"/>
      </g>
     </g>
     <g id="text_16">
      <!-- 5 -->
      <g transform="translate(47.939375 47.4890625)scale(0.12 -0.12)">
       <use xlink:href="#DejaVuSans-35"/>
      </g>
     </g>
    </g>
    <g id="text_17">
     <!-- $\omega [\mathrm{s}^{-1}]$ -->
     <defs>
      <path d="
M9.28125 0
L9.28125 3.51562
Q21.7812 3.51562 21.7812 6.6875
L21.7812 59.1875
Q16.6094 56.6875 8.6875 56.6875
L8.6875 60.2031
Q20.9531 60.2031 27.2031 66.6094
L28.6094 66.6094
Q28.9531 66.6094 29.2656 66.3281
Q29.5938 66.0625 29.5938 65.7188
L29.5938 6.6875
Q29.5938 3.51562 42.0938 3.51562
L42.0938 0
z
" id="Cmr10-31"/>
      <path d="
M10.2031 23
Q9.375 23 8.82812 23.625
Q8.29688 24.2656 8.29688 25
Q8.29688 25.7344 8.82812 26.3594
Q9.375 27 10.2031 27
L67.5781 27
Q68.3594 27 68.875 26.3594
Q69.3906 25.7344 69.3906 25
Q69.3906 24.2656 68.875 23.625
Q68.3594 23 67.5781 23
z
" id="Cmsy10-a1"/>
      <path d="
M12.1094 -1.125
Q6.45312 -1.125 3.9375 3.01562
Q1.42188 7.17188 1.42188 13.1875
Q1.42188 17.1406 2.125 20.9219
Q2.82812 24.7031 4.26562 28.5781
Q5.71875 32.4688 7.5625 35.8594
Q9.42188 39.2656 11.7188 42.4844
Q12.1562 43.1094 12.8906 43.1094
Q13.5312 43.1094 13.9219 42.7188
Q14.3125 42.3281 14.3125 41.7969
Q14.3125 41.2656 14.0156 40.8281
Q4.89062 28.2656 4.89062 17.6719
Q4.89062 13.0938 7 9.79688
Q9.125 6.5 13.4844 6.5
Q17.2344 6.5 20.4375 8.6875
Q23.6406 10.8906 25.9844 14.3125
Q25.9844 16.0625 26.5938 19.7656
Q27.2031 23.4844 28.4844 26.3906
Q29.7812 29.2969 31.5938 29.2969
Q33.8906 29.2969 33.8906 26.6094
Q33.8906 25.0469 33.2188 22.6719
Q32.5625 20.3125 31.75 18.2656
Q30.9531 16.2188 29.7812 13.625
Q30.9531 6.5 36.9219 6.5
Q40.375 6.5 43.8594 8.5
Q47.3594 10.5 50.0469 13.75
Q52.7344 17 54.2656 20.75
Q55.8125 24.5156 55.8125 27.875
Q55.8125 30.9062 54.8594 32.5938
Q53.9062 34.2812 52.3438 36.125
Q50.7812 37.9844 50.7812 39.1094
Q50.7812 41.0625 52.4375 42.6719
Q54.1094 44.2812 56 44.2812
Q58.4531 44.2812 59.4688 42.0625
Q60.5 39.8438 60.5 37.0156
Q60.5 32.4219 58.6719 25.4375
Q56.8438 18.4531 54.5 13.8125
Q51.2656 7.51562 46.4062 3.1875
Q41.5469 -1.125 35.5 -1.125
Q31.6406 -1.125 29.2656 1.1875
Q26.9062 3.51562 26.2188 7.51562
Q23.4375 3.5625 19.875 1.21875
Q16.3125 -1.125 12.1094 -1.125" id="Cmmi10-21"/>
     </defs>
     <g transform="translate(32.85375 231.84)rotate(-90.0)scale(0.12 -0.12)">
      <use transform="translate(0.0 25.8578125)" xlink:href="#Cmmi10-21"/>
      <use transform="translate(62.20703125 25.8578125)" xlink:href="#Cmr10-5b"/>
      <use transform="translate(89.892578125 25.8578125)" xlink:href="#Cmr10-73"/>
      <use transform="translate(129.296875 68.3734375)scale(0.7)" xlink:href="#Cmsy10-a1"/>
      <use transform="translate(183.676757812 68.3734375)scale(0.7)" xlink:href="#Cmr10-31"/>
      <use transform="translate(235.683007812 25.8578125)" xlink:href="#Cmr10-5d"/>
     </g>
    </g>
   </g>
   <g id="patch_3">
    <path d="
M57.6 43.2
L460.8 43.2" style="fill:none;stroke:#000000;"/>
   </g>
   <g id="patch_4">
    <path d="
M460.8 388.8
L460.8 43.2" style="fill:none;stroke:#000000;"/>
   </g>
   <g id="patch_5">
    <path d="
M57.6 388.8
L460.8 388.8" style="fill:none;stroke:#000000;"/>
   </g>
   <g id="patch_6">
    <path d="
M57.6 388.8
L57.6 43.2" style="fill:none;stroke:#000000;"/>
   </g>
   <g id="text_18">
    <!-- Swing -->
    <defs>
     <path d="
M53.5156 70.5156
L53.5156 60.8906
Q47.9062 63.5781 42.9219 64.8906
Q37.9375 66.2188 33.2969 66.2188
Q25.25 66.2188 20.875 63.0938
Q16.5 59.9688 16.5 54.2031
Q16.5 49.3594 19.4062 46.8906
Q22.3125 44.4375 30.4219 42.9219
L36.375 41.7031
Q47.4062 39.5938 52.6562 34.2969
Q57.9062 29 57.9062 20.125
Q57.9062 9.51562 50.7969 4.04688
Q43.7031 -1.42188 29.9844 -1.42188
Q24.8125 -1.42188 18.9688 -0.25
Q13.1406 0.921875 6.89062 3.21875
L6.89062 13.375
Q12.8906 10.0156 18.6562 8.29688
Q24.4219 6.59375 29.9844 6.59375
Q38.4219 6.59375 43.0156 9.90625
Q47.6094 13.2344 47.6094 19.3906
Q47.6094 24.75 44.3125 27.7812
Q41.0156 30.8125 33.5 32.3281
L27.4844 33.5
Q16.4531 35.6875 11.5156 40.375
Q6.59375 45.0625 6.59375 53.4219
Q6.59375 63.0938 13.4062 68.6562
Q20.2188 74.2188 32.1719 74.2188
Q37.3125 74.2188 42.625 73.2812
Q47.9531 72.3594 53.5156 70.5156" id="DejaVuSans-53"/>
     <path d="
M45.4062 27.9844
Q45.4062 37.75 41.375 43.1094
Q37.3594 48.4844 30.0781 48.4844
Q22.8594 48.4844 18.8281 43.1094
Q14.7969 37.75 14.7969 27.9844
Q14.7969 18.2656 18.8281 12.8906
Q22.8594 7.51562 30.0781 7.51562
Q37.3594 7.51562 41.375 12.8906
Q45.4062 18.2656 45.4062 27.9844
M54.3906 6.78125
Q54.3906 -7.17188 48.1875 -13.9844
Q42 -20.7969 29.2031 -20.7969
Q24.4688 -20.7969 20.2656 -20.0938
Q16.0625 -19.3906 12.1094 -17.9219
L12.1094 -9.1875
Q16.0625 -11.3281 19.9219 -12.3438
Q23.7812 -13.375 27.7812 -13.375
Q36.625 -13.375 41.0156 -8.76562
Q45.4062 -4.15625 45.4062 5.17188
L45.4062 9.625
Q42.625 4.78125 38.2812 2.39062
Q33.9375 0 27.875 0
Q17.8281 0 11.6719 7.65625
Q5.51562 15.3281 5.51562 27.9844
Q5.51562 40.6719 11.6719 48.3281
Q17.8281 56 27.875 56
Q33.9375 56 38.2812 53.6094
Q42.625 51.2188 45.4062 46.3906
L45.4062 54.6875
L54.3906 54.6875
z
" id="DejaVuSans-67"/>
     <path d="
M4.20312 54.6875
L13.1875 54.6875
L24.4219 12.0156
L35.5938 54.6875
L46.1875 54.6875
L57.4219 12.0156
L68.6094 54.6875
L77.5938 54.6875
L63.2812 0
L52.6875 0
L40.9219 44.8281
L29.1094 0
L18.5 0
z
" id="DejaVuSans-77"/>
     <path d="
M54.8906 33.0156
L54.8906 0
L45.9062 0
L45.9062 32.7188
Q45.9062 40.4844 42.875 44.3281
Q39.8438 48.1875 33.7969 48.1875
Q26.5156 48.1875 22.3125 43.5469
Q18.1094 38.9219 18.1094 30.9062
L18.1094 0
L9.07812 0
L9.07812 54.6875
L18.1094 54.6875
L18.1094 46.1875
Q21.3438 51.125 25.7031 53.5625
Q30.0781 56 35.7969 56
Q45.2188 56 50.0469 50.1719
Q54.8906 44.3438 54.8906 33.0156" id="DejaVuSans-6e"/>
     <path d="
M9.42188 54.6875
L18.4062 54.6875
L18.4062 0
L9.42188 0
z

M9.42188 75.9844
L18.4062 75.9844
L18.4062 64.5938
L9.42188 64.5938
z
" id="DejaVuSans-69"/>
    </defs>
    <g transform="translate(171.828795 59.230125)scale(0.12 -0.12)">
     <use xlink:href="#DejaVuSans-53"/>
     <use x="63.4765625" xlink:href="#DejaVuSans-77"/>
     <use x="145.263671875" xlink:href="#DejaVuSans-69"/>
     <use x="173.046875" xlink:href="#DejaVuSans-6e"/>
     <use x="236.42578125" xlink:href="#DejaVuSans-67"/>
    </g>
   </g>
   <g id="text_19">
    <!-- Stance -->
    <defs>
     <path d="
M18.3125 70.2188
L18.3125 54.6875
L36.8125 54.6875
L36.8125 47.7031
L18.3125 47.7031
L18.3125 18.0156
Q18.3125 11.3281 20.1406 9.42188
Q21.9688 7.51562 27.5938 7.51562
L36.8125 7.51562
L36.8125 0
L27.5938 0
Q17.1875 0 13.2344 3.875
Q9.28125 7.76562 9.28125 18.0156
L9.28125 47.7031
L2.6875 47.7031
L2.6875 54.6875
L9.28125 54.6875
L9.28125 70.2188
z
" id="DejaVuSans-74"/>
     <path d="
M56.2031 29.5938
L56.2031 25.2031
L14.8906 25.2031
Q15.4844 15.9219 20.4844 11.0625
Q25.4844 6.20312 34.4219 6.20312
Q39.5938 6.20312 44.4531 7.46875
Q49.3125 8.73438 54.1094 11.2812
L54.1094 2.78125
Q49.2656 0.734375 44.1875 -0.34375
Q39.1094 -1.42188 33.8906 -1.42188
Q20.7969 -1.42188 13.1562 6.1875
Q5.51562 13.8125 5.51562 26.8125
Q5.51562 40.2344 12.7656 48.1094
Q20.0156 56 32.3281 56
Q43.3594 56 49.7812 48.8906
Q56.2031 41.7969 56.2031 29.5938
M47.2188 32.2344
Q47.125 39.5938 43.0938 43.9844
Q39.0625 48.3906 32.4219 48.3906
Q24.9062 48.3906 20.3906 44.1406
Q15.875 39.8906 15.1875 32.1719
z
" id="DejaVuSans-65"/>
     <path d="
M48.7812 52.5938
L48.7812 44.1875
Q44.9688 46.2969 41.1406 47.3438
Q37.3125 48.3906 33.4062 48.3906
Q24.6562 48.3906 19.8125 42.8438
Q14.9844 37.3125 14.9844 27.2969
Q14.9844 17.2812 19.8125 11.7344
Q24.6562 6.20312 33.4062 6.20312
Q37.3125 6.20312 41.1406 7.25
Q44.9688 8.29688 48.7812 10.4062
L48.7812 2.09375
Q45.0156 0.34375 40.9844 -0.53125
Q36.9688 -1.42188 32.4219 -1.42188
Q20.0625 -1.42188 12.7812 6.34375
Q5.51562 14.1094 5.51562 27.2969
Q5.51562 40.6719 12.8594 48.3281
Q20.2188 56 33.0156 56
Q37.1562 56 41.1094 55.1406
Q45.0625 54.2969 48.7812 52.5938" id="DejaVuSans-63"/>
     <path d="
M34.2812 27.4844
Q23.3906 27.4844 19.1875 25
Q14.9844 22.5156 14.9844 16.5
Q14.9844 11.7188 18.1406 8.90625
Q21.2969 6.10938 26.7031 6.10938
Q34.1875 6.10938 38.7031 11.4062
Q43.2188 16.7031 43.2188 25.4844
L43.2188 27.4844
z

M52.2031 31.2031
L52.2031 0
L43.2188 0
L43.2188 8.29688
Q40.1406 3.32812 35.5469 0.953125
Q30.9531 -1.42188 24.3125 -1.42188
Q15.9219 -1.42188 10.9531 3.29688
Q6 8.01562 6 15.9219
Q6 25.1406 12.1719 29.8281
Q18.3594 34.5156 30.6094 34.5156
L43.2188 34.5156
L43.2188 35.4062
Q43.2188 41.6094 39.1406 45
Q35.0625 48.3906 27.6875 48.3906
Q23 48.3906 18.5469 47.2656
Q14.1094 46.1406 10.0156 43.8906
L10.0156 52.2031
Q14.9375 54.1094 19.5781 55.0469
Q24.2188 56 28.6094 56
Q40.4844 56 46.3438 49.8438
Q52.2031 43.7031 52.2031 31.2031" id="DejaVuSans-61"/>
    </defs>
    <g transform="translate(324.72183 59.01825)scale(0.12 -0.12)">
     <use xlink:href="#DejaVuSans-53"/>
     <use x="63.4765625" xlink:href="#DejaVuSans-74"/>
     <use x="102.685546875" xlink:href="#DejaVuSans-61"/>
     <use x="163.96484375" xlink:href="#DejaVuSans-6e"/>
     <use x="227.34375" xlink:href="#DejaVuSans-63"/>
     <use x="282.32421875" xlink:href="#DejaVuSans-65"/>
    </g>
   </g>
   <g id="text_20">
    <!-- Joint velocity -->
    <defs>
     <path d="
M9.8125 72.9062
L19.6719 72.9062
L19.6719 5.07812
Q19.6719 -8.10938 14.6719 -14.0625
Q9.67188 -20.0156 -1.42188 -20.0156
L-5.17188 -20.0156
L-5.17188 -11.7188
L-2.09375 -11.7188
Q4.4375 -11.7188 7.125 -8.04688
Q9.8125 -4.39062 9.8125 5.07812
z
" id="DejaVuSans-4a"/>
     <path d="
M30.6094 48.3906
Q23.3906 48.3906 19.1875 42.75
Q14.9844 37.1094 14.9844 27.2969
Q14.9844 17.4844 19.1562 11.8438
Q23.3438 6.20312 30.6094 6.20312
Q37.7969 6.20312 41.9844 11.8594
Q46.1875 17.5312 46.1875 27.2969
Q46.1875 37.0156 41.9844 42.7031
Q37.7969 48.3906 30.6094 48.3906
M30.6094 56
Q42.3281 56 49.0156 48.375
Q55.7188 40.7656 55.7188 27.2969
Q55.7188 13.875 49.0156 6.21875
Q42.3281 -1.42188 30.6094 -1.42188
Q18.8438 -1.42188 12.1719 6.21875
Q5.51562 13.875 5.51562 27.2969
Q5.51562 40.7656 12.1719 48.375
Q18.8438 56 30.6094 56" id="DejaVuSans-6f"/>
     <path d="
M9.42188 75.9844
L18.4062 75.9844
L18.4062 0
L9.42188 0
z
" id="DejaVuSans-6c"/>
     <path id="DejaVuSans-20"/>
     <path d="
M32.1719 -5.07812
Q28.375 -14.8438 24.75 -17.8125
Q21.1406 -20.7969 15.0938 -20.7969
L7.90625 -20.7969
L7.90625 -13.2812
L13.1875 -13.2812
Q16.8906 -13.2812 18.9375 -11.5156
Q21 -9.76562 23.4844 -3.21875
L25.0938 0.875
L2.98438 54.6875
L12.5 54.6875
L29.5938 11.9219
L46.6875 54.6875
L56.2031 54.6875
z
" id="DejaVuSans-79"/>
     <path d="
M2.98438 54.6875
L12.5 54.6875
L29.5938 8.79688
L46.6875 54.6875
L56.2031 54.6875
L35.6875 0
L23.4844 0
z
" id="DejaVuSans-76"/>
    </defs>
    <g transform="translate(212.698125 38.2)scale(0.144 -0.144)">
     <use xlink:href="#DejaVuSans-4a"/>
     <use x="29.4921875" xlink:href="#DejaVuSans-6f"/>
     <use x="90.673828125" xlink:href="#DejaVuSans-69"/>
     <use x="118.45703125" xlink:href="#DejaVuSans-6e"/>
     <use x="181.8359375" xlink:href="#DejaVuSans-74"/>
     <use x="221.044921875" xlink:href="#DejaVuSans-20"/>
     <use x="252.83203125" xlink:href="#DejaVuSans-76"/>
     <use x="312.01171875" xlink:href="#DejaVuSans-65"/>
     <use x="373.53515625" xlink:href="#DejaVuSans-6c"/>
     <use x="401.318359375" xlink:href="#DejaVuSans-6f"/>
     <use x="462.5" xlink:href="#DejaVuSans-63"/>
     <use x="517.48046875" xlink:href="#DejaVuSans-69"/>
     <use x="545.263671875" xlink:href="#DejaVuSans-74"/>
     <use x="584.47265625" xlink:href="#DejaVuSans-79"/>
    </g>
   </g>
   <g id="legend_1">
    <g id="patch_7">
     <path d="
M480.96 171.344
L551.952 171.344
L551.952 43.2
L480.96 43.2
L480.96 171.344
z
" style="fill:#ffffff;stroke:#000000;"/>
    </g>
    <g id="line2d_49">
     <path d="
M491.04 54.8617
L511.2 54.8617" style="fill:none;stroke:#0000ff;"/>
    </g>
    <g id="line2d_50"/>
    <g id="text_21">
     <!-- HZ -->
     <defs>
      <path d="
M5.60938 72.9062
L62.8906 72.9062
L62.8906 65.375
L16.7969 8.29688
L64.0156 8.29688
L64.0156 0
L4.5 0
L4.5 7.51562
L50.5938 64.5938
L5.60938 64.5938
z
" id="DejaVuSans-5a"/>
      <path d="
M9.8125 72.9062
L19.6719 72.9062
L19.6719 43.0156
L55.5156 43.0156
L55.5156 72.9062
L65.375 72.9062
L65.375 0
L55.5156 0
L55.5156 34.7188
L19.6719 34.7188
L19.6719 0
L9.8125 0
z
" id="DejaVuSans-48"/>
     </defs>
     <g transform="translate(527.04 59.90175)scale(0.144 -0.144)">
      <use xlink:href="#DejaVuSans-48"/>
      <use x="75.1953125" xlink:href="#DejaVuSans-5a"/>
     </g>
    </g>
    <g id="line2d_51">
     <path d="
M491.04 75.9983
L511.2 75.9983" style="fill:none;stroke:#008000;"/>
    </g>
    <g id="line2d_52"/>
    <g id="text_22">
     <!-- HY -->
     <defs>
      <path d="
M-0.203125 72.9062
L10.4062 72.9062
L30.6094 42.9219
L50.6875 72.9062
L61.2812 72.9062
L35.5 34.7188
L35.5 0
L25.5938 0
L25.5938 34.7188
z
" id="DejaVuSans-59"/>
     </defs>
     <g transform="translate(527.04 81.03825)scale(0.144 -0.144)">
      <use xlink:href="#DejaVuSans-48"/>
      <use x="75.1953125" xlink:href="#DejaVuSans-59"/>
     </g>
    </g>
    <g id="line2d_53">
     <path d="
M491.04 97.1348
L511.2 97.1348" style="fill:none;stroke:#ff0000;"/>
    </g>
    <g id="line2d_54"/>
    <g id="text_23">
     <!-- HX -->
     <defs>
      <path d="
M6.29688 72.9062
L16.8906 72.9062
L35.0156 45.7969
L53.2188 72.9062
L63.8125 72.9062
L40.375 37.8906
L65.375 0
L54.7812 0
L34.2812 31
L13.625 0
L2.98438 0
L29 38.9219
z
" id="DejaVuSans-58"/>
     </defs>
     <g transform="translate(527.04 102.17475)scale(0.144 -0.144)">
      <use xlink:href="#DejaVuSans-48"/>
      <use x="75.1953125" xlink:href="#DejaVuSans-58"/>
     </g>
    </g>
    <g id="line2d_55">
     <path d="
M491.04 118.271
L511.2 118.271" style="fill:none;stroke:#00bfbf;"/>
    </g>
    <g id="line2d_56"/>
    <g id="text_24">
     <!-- KY -->
     <defs>
      <path d="
M9.8125 72.9062
L19.6719 72.9062
L19.6719 42.0938
L52.3906 72.9062
L65.0938 72.9062
L28.9062 38.9219
L67.6719 0
L54.6875 0
L19.6719 35.1094
L19.6719 0
L9.8125 0
z
" id="DejaVuSans-4b"/>
     </defs>
     <g transform="translate(527.04 123.31125)scale(0.144 -0.144)">
      <use xlink:href="#DejaVuSans-4b"/>
      <use x="61.951171875" xlink:href="#DejaVuSans-59"/>
     </g>
    </g>
    <g id="line2d_57">
     <path d="
M491.04 139.408
L511.2 139.408" style="fill:none;stroke:#bf00bf;"/>
    </g>
    <g id="line2d_58"/>
    <g id="text_25">
     <!-- AY -->
     <defs>
      <path d="
M34.1875 63.1875
L20.7969 26.9062
L47.6094 26.9062
z

M28.6094 72.9062
L39.7969 72.9062
L67.5781 0
L57.3281 0
L50.6875 18.7031
L17.8281 18.7031
L11.1875 0
L0.78125 0
z
" id="DejaVuSans-41"/>
     </defs>
     <g transform="translate(527.04 144.44775)scale(0.144 -0.144)">
      <use xlink:href="#DejaVuSans-41"/>
      <use x="60.658203125" xlink:href="#DejaVuSans-59"/>
     </g>
    </g>
    <g id="line2d_59">
     <path d="
M491.04 160.544
L511.2 160.544" style="fill:none;stroke:#bfbf00;"/>
    </g>
    <g id="line2d_60"/>
    <g id="text_26">
     <!-- AX -->
     <g transform="translate(527.04 165.58425)scale(0.144 -0.144)">
      <use xlink:href="#DejaVuSans-41"/>
      <use x="68.408203125" xlink:href="#DejaVuSans-58"/>
     </g>
    </g>
   </g>
  </g>
 </g>
 <defs>
  <clipPath id="pb89c8edd4c">
   <rect height="345.6" width="403.2" x="57.6" y="43.2"/>
  </clipPath>
 </defs>
</svg>
